<?xml version="1.0" encoding="utf-8"?>
<!-- Generator: Adobe Illustrator 23.0.1, SVG Export Plug-In . SVG Version: 6.00 Build 0)  -->
<svg version="1.1" id="Layer_1" xmlns="http://www.w3.org/2000/svg" xmlns:xlink="http://www.w3.org/1999/xlink" x="0px" y="0px"
	 viewBox="0 0 380.39 371.48" style="enable-background:new 0 0 380.39 371.48;" xml:space="preserve">
<style type="text/css">
	.st0{fill:#52385A;}
	.st1{fill:#FEDB41;}
</style>
<g>
	<path class="st0" d="M190.19,339.83c-54.76,0-128.46-13.29-163.4-38.7l-0.29-0.21l-0.16-0.32C6.6,261.11-0.41,205.52-0.41,169.91
		c0-49.43,10.25-100.64,26.75-133.64l0.2-0.39l0.38-0.22C62.35,15,131.01,0,190.19,0c51.79,0,129.77,14.34,163.32,35.69l0.35,0.22
		l0.18,0.37c18.48,36.96,26.75,93.75,26.75,133.64c0,35.6-7.01,91.19-26.75,130.68l-0.15,0.29l-0.25,0.2
		C324.68,324.26,245.74,339.83,190.19,339.83z M28.83,298.95c30.52,21.99,98.28,37.92,161.37,37.92
		c54.89,0,132.66-15.22,161.35-37.89c12.16-24.49,26.29-72.84,26.29-129.07c0-54.62-13.16-105.52-26.26-131.95
		C318.28,17.01,241.39,2.96,190.19,2.96c-58.51,0-126.27,14.72-161.4,35.04C12.84,70.15,2.55,121.86,2.55,169.91
		C2.55,205.1,9.44,259.94,28.83,298.95z"/>
	<g>
		<g id="surface1">
			<path class="st0" d="M307.05,86.96c-0.02-5.6-4.56-10.14-10.16-10.16h-157.5v50.81c0,5.61-4.55,10.16-10.16,10.16H73.34v223.55
				c0.02,5.6,4.56,10.14,10.16,10.16h213.39c5.6-0.02,10.14-4.56,10.16-10.16V86.96z"/>
			<path class="st1" d="M139.39,127.61V76.8l-66.05,60.97h55.89C134.84,137.77,139.39,133.22,139.39,127.61z"/>
			<path class="st1" d="M215.6,213.98H108.9c-2.81,0-5.08-2.27-5.08-5.08s2.27-5.08,5.08-5.08h106.7c2.81,0,5.08,2.27,5.08,5.08
				S218.4,213.98,215.6,213.98z"/>
			<path class="st1" d="M185.11,244.46H108.9c-2.81,0-5.08-2.27-5.08-5.08s2.27-5.08,5.08-5.08h76.21c2.81,0,5.08,2.27,5.08,5.08
				S187.92,244.46,185.11,244.46z"/>
			<path class="st1" d="M154.63,274.95H108.9c-2.81,0-5.08-2.27-5.08-5.08s2.27-5.08,5.08-5.08h45.73c2.81,0,5.08,2.27,5.08,5.08
				S157.44,274.95,154.63,274.95z"/>
			<path class="st1" d="M246.08,183.49h-96.53c-2.81,0-5.08-2.27-5.08-5.08s2.27-5.08,5.08-5.08h96.53c2.81,0,5.08,2.27,5.08,5.08
				S248.89,183.49,246.08,183.49z"/>
			<path class="st1" d="M129.23,183.49H108.9c-2.81,0-5.08-2.27-5.08-5.08s2.27-5.08,5.08-5.08h20.32c2.81,0,5.08,2.27,5.08,5.08
				S132.03,183.49,129.23,183.49z"/>
		</g>
	</g>
</g>
</svg>
