<?xml version="1.0" encoding="utf-8"?>
<!-- Generator: Adobe Illustrator 23.0.1, SVG Export Plug-In . SVG Version: 6.00 Build 0)  -->
<svg version="1.1" id="Layer_1" xmlns="http://www.w3.org/2000/svg" xmlns:xlink="http://www.w3.org/1999/xlink" x="0px" y="0px"
	 viewBox="0 0 380.38 338.62" style="enable-background:new 0 0 380.38 338.62;" xml:space="preserve">
<style type="text/css">
	.st0{fill:#3EB6AC;}
	.st1{fill:#FFFFFF;}
	.st2{fill:#FEDB41;}
	.st3{fill:#20D0C2;}
	.st4{fill:#EBEEF2;}
</style>
<g>
	<path class="st0" d="M192.42,295.42c-47.72,0-111.97-11.59-142.41-33.73l-0.25-0.18l-0.14-0.28
		c-17.21-34.42-23.32-82.87-23.32-113.9c0-43.08,8.93-87.71,23.32-116.48l0.17-0.34l0.33-0.19C80.99,12.3,140.83-0.77,192.42-0.77
		c45.14,0,113.11,12.5,142.35,31.11l0.3,0.19l0.16,0.32c16.11,32.21,23.32,81.71,23.32,116.48c0,31.03-6.11,79.48-23.32,113.9
		l-0.13,0.25l-0.22,0.18C309.63,281.86,240.83,295.42,192.42,295.42z M51.77,259.79c26.6,19.16,85.66,33.05,140.65,33.05
		c47.84,0,115.63-13.26,140.63-33.02c10.6-21.34,22.92-63.49,22.92-112.5c0-47.61-11.47-91.97-22.89-115.01
		C304.05,14.06,237.03,1.81,192.42,1.81c-51,0-110.05,12.83-140.68,30.54c-13.9,28.02-22.87,73.09-22.87,114.98
		C28.87,177.99,34.87,225.79,51.77,259.79z"/>
	<path class="st1" d="M310.15,217.67l-9.65-78.36l-18.07,2.22l0.01-0.01l-35.04-19.72c-3.74-2.1-8.03-3.02-12.3-2.62l-55.33,5.12
		c-6.8,0.63-12.88,4.51-16.31,10.42l-39,67.12c-2.88,4.96-0.62,11.31,4.74,13.34l1.6,0.6c3.07,1.16,6.22,1.83,9.38,2.09l-4.94,4.3
		l-9.89,8.61l-28.12,23.98c-5.01,4.36-5.53,11.95-1.17,16.95l2.85,3.27c5.6,6.42,15.35,7.09,21.78,1.49l10.75,12.33
		c3.49,4.01,8.61,5.79,13.53,5.18c2.96-0.36,5.84-1.59,8.25-3.69l10.73,12.33c3.51,4.02,8.62,5.79,13.54,5.18
		c2.96-0.36,5.84-1.58,8.25-3.68l5.83,5.04c5.6,6.43,15.36,7.1,21.79,1.5l7.93-6.92l66.67-51.92l0.07-0.07l26.3-0.03L310.15,217.67z
		"/>
	<path class="st2" d="M293.71,265.45l-35.72-30.8l-9.93-8.56l-7.11-6.12l-30.56-26.34l3.53-30.04c1.19-10.16-5.2-19.67-15.06-22.4
		l-66.62-18.43c-7.05-1.95-14.5,1.32-17.83,7.83l-8.38,16.35l-35.96-2.44l-9.21,78.41l-4,34.07l35,2.33l0.07,0.07l73.13,63.03
		l7.97,6.87c6.46,5.57,16.22,4.85,21.78-1.62l10.66-12.37c2.42,2.09,5.31,3.29,8.27,3.64c4.92,0.58,10.03-1.21,13.51-5.26
		l10.67-12.39c2.42,2.09,5.31,3.3,8.27,3.65c4.92,0.58,10.03-1.22,13.5-5.26l10.68-12.39c6.46,5.57,16.21,4.84,21.77-1.61l2.83-3.28
		C299.3,277.37,298.74,269.78,293.71,265.45z"/>
	<g>
		<path class="st1" d="M93.68,259.22l-4.24,5.59c-4.61,6.09-3.42,14.77,2.68,19.39l0,0c6.09,4.61,14.77,3.42,19.39-2.68l4.24-5.59
			c4.61-6.09,3.42-14.77-2.68-19.39l0,0C106.98,251.93,98.3,253.13,93.68,259.22z"/>
		<path class="st1" d="M119.49,270.99l-7.98,10.54c-4.61,6.09-3.42,14.77,2.68,19.39l0,0c6.09,4.61,14.77,3.42,19.39-2.68
			l7.98-10.54c4.61-6.09,3.42-14.77-2.68-19.39l0,0C132.78,263.7,124.1,264.9,119.49,270.99z"/>
		<path class="st1" d="M144.45,283.88l-10.87,14.36c-4.61,6.09-3.42,14.77,2.68,19.39l0,0c6.09,4.61,14.77,3.42,19.39-2.68
			l10.87-14.36c4.61-6.09,3.42-14.77-2.68-19.39l0,0C157.74,276.59,149.06,277.78,144.45,283.88z"/>
		<path class="st1" d="M167.14,299.75l-11.51,15.19c-4.61,6.09-3.42,14.77,2.68,19.39l0,0c6.09,4.61,14.77,3.42,19.39-2.68
			l11.51-15.19c4.61-6.09,3.42-14.77-2.68-19.39l0,0C180.44,292.46,171.76,293.66,167.14,299.75z"/>
		<path class="st1" d="M282.43,141.53l-35.04-19.72c-3.74-2.1-8.03-3.02-12.3-2.62l-55.33,5.12c-6.8,0.63-12.88,4.51-16.31,10.42
			l-39,67.12c-2.88,4.96-0.62,11.31,4.74,13.34l1.6,0.6c14.29,5.4,30.44,0.8,39.75-11.31l14.94-19.45c0,0,35.92,41.59,75.46-6.98"/>
	</g>
	<path class="st3" d="M379.63,262.2L361.3,113.32c-0.18-1.46-0.93-2.8-2.1-3.7c-1.16-0.91-2.64-1.32-4.1-1.14l-42.86,5.28
		c-11.13,1.37-19.07,11.54-17.7,22.67l14.72,119.55c1.27,10.29,10.06,17.86,20.17,17.86c0.82,0,1.66-0.05,2.5-0.15l42.86-5.28
		C377.83,268.02,380,265.25,379.63,262.2z"/>
	<path class="st3" d="M67.38,113.75l-42.86-5.28c-1.47-0.18-2.94,0.23-4.1,1.14s-1.92,2.24-2.1,3.7L0,262.2
		c-0.38,3.05,1.79,5.82,4.84,6.2l42.86,5.28c0.84,0.1,1.67,0.15,2.5,0.15c10.12,0,18.91-7.56,20.17-17.86l14.72-119.55
		C86.45,125.29,78.51,115.12,67.38,113.75z"/>
	<g>
		<circle class="st4" cx="344.07" cy="238.36" r="10.75"/>
		<circle class="st4" cx="34.95" cy="238.36" r="10.75"/>
	</g>
</g>
</svg>
