<?xml version="1.0" encoding="utf-8"?>
<!-- Generator: Adobe Illustrator 23.0.1, SVG Export Plug-In . SVG Version: 6.00 Build 0)  -->
<svg version="1.1" id="Layer_1" xmlns="http://www.w3.org/2000/svg" xmlns:xlink="http://www.w3.org/1999/xlink" x="0px" y="0px"
	 viewBox="0 0 380.39 371.48" style="enable-background:new 0 0 380.39 371.48;" xml:space="preserve">
<style type="text/css">
	.st0{fill:#3EB6AC;}
	.st1{fill:#20D0C2;}
	.st2{fill:#52385A;}
	.st3{fill:#FEDB41;}
</style>
<g>
	<path class="st0" d="M190.19,338.37c-54.64,0-128.19-13.26-163.05-38.62l-0.29-0.21l-0.16-0.32C6.99,259.81,0,204.34,0,168.82
		C0,119.49,10.23,68.39,26.69,35.46l0.2-0.39l0.38-0.22C62.62,14.23,131.14-0.74,190.19-0.74c51.68,0,129.5,14.31,162.97,35.62
		l0.34,0.22l0.18,0.37c18.44,36.88,26.69,93.55,26.69,133.35c0,35.53-6.99,91-26.69,130.4l-0.15,0.29l-0.25,0.2
		C324.39,322.84,245.63,338.37,190.19,338.37z M29.17,297.58c30.46,21.94,98.07,37.84,161.02,37.84
		c54.77,0,132.38-15.18,161.01-37.81c12.14-24.43,26.24-72.69,26.24-128.79c0-54.5-13.13-105.3-26.2-131.67
		C324.3,20.23,253.42,2.21,190.19,2.21c-58.38,0-126,14.69-161.06,34.96C13.22,69.26,2.95,120.86,2.95,168.82
		C2.95,203.92,9.82,258.65,29.17,297.58z"/>
	<g>
		<g>
			<path class="st1" d="M190.19,355.59c-69.62,0-126.27-56.64-126.27-126.27s56.64-126.27,126.27-126.27s126.27,56.64,126.27,126.27
				S259.82,355.59,190.19,355.59z"/>
		</g>
		<g>
			<path class="st2" d="M245.75,224.27h-36.07c-1.84-7.07-7.37-12.6-14.43-14.43v-51.22c0-2.79-2.26-5.05-5.05-5.05
				c-2.79,0-5.05,2.26-5.05,5.05v51.22c-8.69,2.26-15.15,10.1-15.15,19.49c0,11.14,9.06,20.2,20.2,20.2
				c9.38,0,17.23-6.46,19.49-15.15h36.07c2.79,0,5.05-2.26,5.05-5.05S248.54,224.27,245.75,224.27z M190.19,239.42
				c-5.57,0-10.1-4.53-10.1-10.1c0-5.57,4.53-10.1,10.1-10.1s10.1,4.53,10.1,10.1C200.29,234.89,195.76,239.42,190.19,239.42z"/>
			<path class="st2" d="M296.82,126.34l20.69,20.69c0.95,0.95,2.23,1.48,3.57,1.48s2.63-0.53,3.57-1.48c16-15.99,16-42.02,0-58.01
				c-15.99-15.99-42.02-15.99-58.01,0c-0.95,0.95-1.48,2.23-1.48,3.57c0,1.34,0.53,2.63,1.48,3.57l23.04,23.04l-8.58,8.58
				c-24.14-21.64-56.01-34.83-90.9-34.83s-66.76,13.19-90.9,34.83l-8.59-8.58l23.04-23.04c0.95-0.95,1.48-2.23,1.48-3.57
				s-0.53-2.63-1.48-3.57c-15.99-15.99-42.02-15.99-58.01,0c-16,15.99-16,42.02,0,58.01c0.95,0.95,2.23,1.48,3.57,1.48
				c1.34,0,2.63-0.53,3.57-1.48l20.69-20.69l8.47,8.47c-23.63,24.53-38.21,57.85-38.21,94.51c0,49.99,27.06,93.76,67.28,117.51
				l-15.29,15.29c-1.97,1.97-1.97,5.17,0,7.14c0.98,0.98,2.28,1.48,3.57,1.48s2.59-0.49,3.57-1.48l17.43-17.42
				c18.07,8.86,38.37,13.85,59.82,13.85s41.74-5,59.82-13.85l17.42,17.42c0.98,0.98,2.28,1.48,3.57,1.48s2.59-0.49,3.57-1.48
				c1.97-1.97,1.97-5.17,0-7.14l-15.29-15.29c40.22-23.74,67.28-67.51,67.28-117.51c0-36.67-14.58-69.98-38.21-94.51L296.82,126.34z
				 M317.51,96.17c10.84,10.84,11.93,27.79,3.28,39.87l-43.14-43.14C289.71,84.24,306.67,85.32,317.51,96.17z M59.6,136.03
				c-8.65-12.07-7.56-29.02,3.28-39.86s27.79-11.92,39.86-3.28L59.6,136.03z M190.19,355.59c-69.62,0-126.27-56.64-126.27-126.27
				s56.64-126.27,126.27-126.27s126.27,56.64,126.27,126.27S259.82,355.59,190.19,355.59z"/>
			<path class="st2" d="M290.61,171.02c-10.15-17.42-24.7-31.96-42.11-42.11c-0.08-0.06-0.13-0.14-0.22-0.19
				c-0.09-0.05-0.19-0.05-0.28-0.1c-17.04-9.82-36.77-15.47-57.81-15.47s-40.77,5.65-57.81,15.47c-0.09,0.05-0.19,0.04-0.28,0.1
				c-0.09,0.05-0.13,0.14-0.22,0.19c-17.42,10.15-31.96,24.69-42.11,42.11c-0.06,0.09-0.14,0.13-0.19,0.22
				c-0.05,0.09-0.05,0.19-0.09,0.28c-9.82,17.04-15.47,36.77-15.47,57.81c0,21.04,5.65,40.77,15.47,57.81
				c0.05,0.09,0.04,0.19,0.09,0.28c0.07,0.13,0.18,0.22,0.26,0.33c10.15,17.36,24.67,31.86,42.05,42c0.08,0.06,0.13,0.14,0.22,0.19
				c0.13,0.08,0.27,0.11,0.4,0.17c17.01,9.77,36.69,15.39,57.68,15.39s40.67-5.62,57.68-15.39c0.13-0.06,0.27-0.09,0.4-0.17
				c0.09-0.05,0.13-0.14,0.22-0.19c17.38-10.13,31.9-24.63,42.05-42c0.08-0.12,0.19-0.21,0.26-0.33c0.05-0.09,0.05-0.19,0.09-0.28
				c9.82-17.04,15.47-36.77,15.47-57.81s-5.65-40.77-15.47-57.81c-0.05-0.09-0.04-0.19-0.09-0.28
				C290.75,171.15,290.66,171.1,290.61,171.02z M247.48,318.45l-2.41-4.17c-1.4-2.41-4.49-3.25-6.9-1.85
				c-2.41,1.39-3.24,4.49-1.85,6.9l2.42,4.19c-13.15,6.8-27.88,10.87-43.5,11.62v-4.79c0-2.79-2.26-5.05-5.05-5.05
				c-2.79,0-5.05,2.26-5.05,5.05v4.79c-15.62-0.74-30.35-4.81-43.5-11.62l2.42-4.19c1.39-2.42,0.57-5.51-1.85-6.9
				c-2.43-1.39-5.51-0.56-6.9,1.85l-2.41,4.17c-12.75-8.22-23.61-19.09-31.83-31.83l4.17-2.41c2.41-1.39,3.24-4.49,1.85-6.9
				c-1.4-2.41-4.48-3.26-6.9-1.85l-4.19,2.42c-6.8-13.15-10.87-27.89-11.62-43.5h4.79c2.79,0,5.05-2.26,5.05-5.05
				s-2.26-5.05-5.05-5.05h-4.8c0.74-15.62,4.81-30.35,11.62-43.5l4.19,2.42c0.8,0.46,1.67,0.68,2.52,0.68
				c1.75,0,3.44-0.91,4.38-2.53c1.39-2.42,0.57-5.51-1.85-6.9l-4.17-2.42c8.22-12.75,19.09-23.61,31.83-31.83l2.41,4.17
				c0.94,1.62,2.63,2.53,4.38,2.53c0.85,0,1.72-0.22,2.52-0.68c2.41-1.39,3.24-4.49,1.85-6.9l-2.42-4.19
				c13.15-6.8,27.88-10.87,43.5-11.62v4.79c0,2.79,2.26,5.05,5.05,5.05s5.05-2.26,5.05-5.05v-4.79c15.62,0.74,30.35,4.81,43.5,11.62
				l-2.42,4.19c-1.39,2.42-0.57,5.51,1.85,6.9c0.8,0.46,1.67,0.68,2.52,0.68c1.75,0,3.44-0.91,4.38-2.53l2.41-4.17
				c12.75,8.22,23.61,19.09,31.83,31.83l-4.17,2.41c-2.41,1.39-3.24,4.49-1.85,6.9c0.94,1.62,2.63,2.53,4.38,2.53
				c0.85,0,1.72-0.22,2.52-0.68l4.19-2.42c6.8,13.15,10.87,27.89,11.62,43.5h-4.79c-2.79,0-5.05,2.26-5.05,5.05s2.26,5.05,5.05,5.05
				h4.79c-0.74,15.62-4.81,30.35-11.62,43.5l-4.19-2.42c-2.42-1.4-5.51-0.56-6.9,1.85c-1.39,2.42-0.57,5.51,1.85,6.9l4.17,2.41
				C271.09,299.36,260.24,310.22,247.48,318.45z"/>
		</g>
		<g>
			<path class="st3" d="M317.51,96.17c10.84,10.84,11.93,27.79,3.28,39.87l-43.14-43.14C289.71,84.24,306.67,85.32,317.51,96.17z
				 M59.6,136.03c-8.65-12.07-7.56-29.02,3.28-39.86s27.79-11.92,39.86-3.28L59.6,136.03z"/>
		</g>
	</g>
</g>
</svg>
