<?xml version="1.0" encoding="utf-8"?>
<!-- Generator: Adobe Illustrator 23.0.1, SVG Export Plug-In . SVG Version: 6.00 Build 0)  -->
<svg version="1.1" id="Layer_1" xmlns="http://www.w3.org/2000/svg" xmlns:xlink="http://www.w3.org/1999/xlink" x="0px" y="0px"
	 viewBox="0 0 194.94 261.63" style="enable-background:new 0 0 194.94 261.63;" xml:space="preserve">
<style type="text/css">
	.st0{fill:#3EB6AC;}
	.st1{fill:#FFFFFF;}
	.st2{fill:#52385A;}
</style>
<g>
	<path class="st0" d="M0,86.81c0,21.32,4.57,48.74,13.71,67.01c16.75,12.18,53.3,19.8,83.77,19.8c27.41,0,68.54-7.61,83.77-19.8
		c9.14-18.28,13.71-45.69,13.71-67.01c0-21.32-4.57-50.26-13.71-68.54C164.48,7.61,124.89,0,97.47,0C67.01,0,31.98,7.61,13.71,18.28
		C4.57,36.55,0,63.97,0,86.81"/>
	<path class="st1" d="M76.92,105.35c7.05,0,16.85,11.42,20.07,19.38l6.13,15.01c2.3,5.82,4.44,8.89,10.11,8.89
		c3.98,0,8.27-2.3,10.57-4.9c-3.37-2.3-5.36-6.74-7.35-11.95l-5.21-12.71c-3.22-7.81-7.66-12.1-14.09-13.79
		c1.84-1.53,3.52-3.52,5.06-5.97l16.7-26.5l-0.92-1.23c-2.91-0.15-5.21-0.15-8.43-0.15c-5.36,0-7.81,2.45-10.26,6.74L85.8,99.31
		C83.63,102.59,78.26,104.9,76.92,105.35"/>
	<path class="st1" d="M48.83,148.06c-0.78-41.03,20.95-96.21,64.01-122.29l6.82,11.26C102.27,47.56,87.45,64.44,76.8,85.86
		c-9.93,19.98-15.19,41.98-14.81,61.95L48.83,148.06z"/>
	<path class="st2" d="M134.82,50.9c0,2.15,0.46,4.9,1.38,6.74c1.68,1.23,5.36,1.99,8.42,1.99c2.76,0,6.89-0.77,8.43-1.99
		c0.92-1.84,1.38-4.6,1.38-6.74c0-2.14-0.46-5.05-1.38-6.89c-1.68-1.07-5.67-1.84-8.43-1.84c-3.06,0-6.59,0.77-8.42,1.84
		C135.28,45.84,134.82,48.6,134.82,50.9"/>
	<g>
		<path class="st0" d="M36.58,218.77c0.79,2.07,1.58,3.83,2.92,4.75c-0.91,1.03-2.62,1.95-4.2,1.95c-2.25,0-3.1-1.22-4.01-3.53
			l-2.43-5.96c-1.28-3.16-2.37-4.02-5.17-4.02c-0.91,0-1.83,0.06-2.8,0.12v12.96c-0.85,0.18-1.95,0.24-3.1,0.24
			c-1.09,0-2.13-0.06-3.04-0.24v-44.35l0.37-0.37h2.43c2.62,0,3.35,1.22,3.35,4.02v22.51l2.07-0.12c0.67,0,1.1-0.24,1.46-0.85
			l5.35-8.4c0.97-1.7,1.95-2.68,4.08-2.68c1.28,0,2.19,0,3.35,0.06l0.36,0.49l-6.63,10.53c-0.61,0.97-1.28,1.76-2.01,2.37
			c2.56,0.67,4.32,2.37,5.6,5.48L36.58,218.77z"/>
	</g>
	<g>
		<path class="st2" d="M52.04,225.03c-0.85,0.18-2.01,0.24-3.1,0.24c-1.16,0-2.31-0.06-3.16-0.24v-22.27c0-2.19-0.67-3.16-2.68-3.16
			h-0.67c-0.18-0.79-0.3-1.46-0.3-2.25c0-0.73,0.12-1.46,0.3-2.31c1.52-0.18,2.98-0.24,3.83-0.24h0.85c3.04,0,4.93,2.07,4.93,5.41
			V225.03z M44.43,183.91c0.73-0.43,2.13-0.73,3.35-0.73c1.09,0,2.68,0.3,3.35,0.73c0.37,0.73,0.55,1.89,0.55,2.74
			s-0.18,1.95-0.55,2.68c-0.61,0.49-2.25,0.79-3.35,0.79c-1.22,0-2.68-0.3-3.35-0.79c-0.37-0.73-0.55-1.83-0.55-2.68
			C43.88,185.73,44.07,184.64,44.43,183.91z"/>
		<path class="st2" d="M85.37,218.58c0,2.13,0.24,4.08,1.03,5.54c-0.91,0.73-2.43,1.34-3.95,1.34c-2.49,0-3.35-1.4-3.35-4.02v-15.45
			c0-4.08-0.85-5.84-3.77-5.84c-2.43,0-5.54,1.4-7.67,3.77v21.11c-0.85,0.18-2.01,0.24-3.1,0.24c-1.16,0-2.25-0.06-3.16-0.24V195.1
			l0.37-0.37h2.37c2.37,0,3.35,1.4,3.47,3.77c2.62-2.37,6.02-4.08,9.67-4.08c5.72,0,8.09,4.38,8.09,9.98V218.58z"/>
		<path class="st2" d="M99,212.01c0.24,5.05,1.89,8.7,7.06,8.7c3.04,0,5.9-0.97,8.46-2.31c1.03,0.97,1.76,2.74,2.01,4.01
			c-2.92,2.07-7.18,3.41-11.44,3.41c-9.61,0-12.53-7.54-12.53-15.76c0-9.06,4.26-15.88,12.71-15.88c7.85,0,12.05,5.78,12.05,13.02
			c0,1.95-0.12,3.1-0.43,4.81H99z M99,207.45h12.29v-0.79c0-4.26-1.7-7.79-6.08-7.79C101.32,198.87,99.31,202.1,99,207.45z
			 M109.59,180.08c1.83,0.61,3.77,2.37,4.44,4.14l-10.4,8.09c-1.16-0.3-2.31-1.4-2.8-2.56L109.59,180.08z"/>
		<path class="st2" d="M125.65,194.55c2.86,0.61,4.68,2.55,5.54,5.41c1.4-3.1,3.89-5.41,7.97-5.41c1.09,0,2.07,0.12,3.22,0.36
			c0,1.7-0.43,4.2-1.52,5.96c-0.79-0.24-1.64-0.24-2.49-0.3c-3.29,0-5.23,2.13-6.51,4.62v19.83c-0.85,0.18-2.01,0.24-3.1,0.24
			c-1.16,0-2.31-0.06-3.16-0.24v-20.87c0-3.22-1.22-5.29-2.25-6.27C123.64,196.74,124.62,195.22,125.65,194.55z"/>
		<path class="st2" d="M155.52,225.03c-0.85,0.18-2.01,0.24-3.1,0.24c-1.16,0-2.31-0.06-3.16-0.24v-22.27
			c0-2.19-0.67-3.16-2.68-3.16h-0.67c-0.18-0.79-0.3-1.46-0.3-2.25c0-0.73,0.12-1.46,0.3-2.31c1.52-0.18,2.98-0.24,3.83-0.24h0.85
			c3.04,0,4.93,2.07,4.93,5.41V225.03z M147.92,183.91c0.73-0.43,2.13-0.73,3.35-0.73c1.09,0,2.68,0.3,3.35,0.73
			c0.37,0.73,0.55,1.89,0.55,2.74s-0.18,1.95-0.55,2.68c-0.61,0.49-2.25,0.79-3.35,0.79c-1.22,0-2.68-0.3-3.35-0.79
			c-0.37-0.73-0.55-1.83-0.55-2.68C147.37,185.73,147.55,184.64,147.92,183.91z"/>
		<path class="st2" d="M164.1,218.4c2.56,1.4,5.72,2.68,8.52,2.68c3.35,0,5.41-1.52,5.48-3.77c0-1.7-1.34-3.22-3.83-4.14l-3.41-1.28
			c-4.26-1.58-7.73-4.08-7.73-8.7c0-5.6,4.62-9,10.71-9c3.29,0,7.42,1.03,9.98,2.19c0,1.58-0.73,3.65-1.89,4.62
			c-2.07-0.97-5.11-2.01-8.09-2.01c-2.68,0-4.38,1.46-4.38,3.53c0,1.76,1.22,2.74,3.77,3.71l3.65,1.4c4.5,1.7,7.73,4.44,7.73,9.13
			c0,5.66-4.81,9.06-11.62,9.06c-4.44,0-8.33-1.46-10.95-3.04C162.09,221.38,163.01,219.38,164.1,218.4z"/>
	</g>
	<g>
		<path class="st2" d="M23.01,248.75c-0.11,0.6-0.53,0.89-1.21,0.89h-5.27c-0.67,0-1.08-0.44-1.08-1.17v-10.85l0.12-0.11h7.13
			c0.05,0.28,0.05,0.53,0.05,0.75s-0.04,0.57-0.14,0.85h-4.2c-0.27,0-0.71,0.02-1.12,0c0,0.46,0.02,0.69,0.02,1.15v2.48
			c0.41,0,0.83-0.02,1.1-0.02h3.33c0.07,0.25,0.09,0.57,0.09,0.78s-0.02,0.53-0.09,0.78h-3.33c-0.27,0-0.69,0-1.1-0.02v2.91
			c0,0.32-0.02,0.57-0.02,0.9c0.35-0.04,0.71-0.05,1.17-0.05h4.59C23.06,248.18,23.06,248.5,23.01,248.75z M19.14,235.22l-2.04,1.47
			c-0.28-0.11-0.69-0.46-0.8-0.82l2.02-2c0.46-0.09,1.19-0.09,1.63,0l1.99,1.88c-0.12,0.41-0.53,0.71-0.8,0.8L19.14,235.22z"/>
		<path class="st2" d="M27.31,240.4c0-0.48,0.02-0.82,0.02-1.31h-0.02c-0.23,0-0.76,0.02-1.01,0.02h-2.11
			c-0.05-0.28-0.07-0.57-0.07-0.8s0.02-0.51,0.07-0.8h8.16c0.05,0.21,0.11,0.5,0.11,0.75c0,0.62-0.34,0.85-1.06,0.85h-1.15
			c-0.23,0-0.78-0.02-1.03-0.02v10.53c-0.3,0.05-0.66,0.07-0.94,0.07c-0.28,0-0.66-0.02-0.96-0.07V240.4z"/>
		<path class="st2" d="M39.9,244.3c0.58,0.21,1.01,0.82,1.26,1.51l0.78,2.08c0.18,0.48,0.39,0.96,0.8,1.28
			c-0.25,0.37-0.8,0.58-1.28,0.58c-0.71,0-0.96-0.39-1.24-1.15l-0.89-2.39c-0.3-0.82-0.69-1.45-1.79-1.45h-1.45v4.88
			c-0.28,0.05-0.64,0.07-0.94,0.07c-0.28,0-0.66-0.02-0.92-0.07v-12l0.11-0.12c1.33-0.02,2.61-0.05,3.81-0.05
			c2.46,0,4.02,1.28,4.02,3.63C42.17,242.7,41.19,243.89,39.9,244.3z M36.09,243.23c0.69-0.02,1.47-0.04,1.97-0.04
			c1.74,0,2.16-1.1,2.16-2.13c0-1.08-0.43-2.15-2.16-2.15c-0.51,0-1.37,0-1.97-0.02V243.23z"/>
		<path class="st2" d="M52.4,248.75c-0.11,0.6-0.53,0.89-1.21,0.89h-5.27c-0.67,0-1.08-0.44-1.08-1.17v-10.85l0.12-0.11h7.13
			c0.05,0.28,0.05,0.53,0.05,0.75s-0.04,0.57-0.14,0.85h-4.2c-0.27,0-0.71,0.02-1.12,0c0,0.46,0.02,0.69,0.02,1.15v2.48
			c0.41,0,0.83-0.02,1.1-0.02h3.33c0.07,0.25,0.09,0.57,0.09,0.78s-0.02,0.53-0.09,0.78H47.8c-0.27,0-0.69,0-1.1-0.02v2.91
			c0,0.32-0.02,0.57-0.02,0.9c0.35-0.04,0.71-0.05,1.17-0.05h4.59C52.45,248.18,52.45,248.5,52.4,248.75z"/>
		<path class="st2" d="M62.59,237.44c2.61,0,3.87,1.21,3.87,3.21c0,1.12-0.67,2.09-1.67,2.48c1.21,0.35,2.25,1.58,2.25,3.1
			c0,1.97-1.28,3.46-4.22,3.46c-1.44,0-2.59-0.04-3.92-0.05l-0.11-0.12v-11.9l0.11-0.12C60.19,237.47,61.42,237.44,62.59,237.44z
			 M60.65,242.52h1.86c1.67,0,2.04-0.99,2.04-1.83c0-0.87-0.34-1.83-2-1.83c-0.5,0-1.33,0-1.9-0.02V242.52z M60.65,243.98v4.29
			c0.74,0,1.49-0.02,2.15-0.02c1.91,0,2.3-1.22,2.3-2.13c0-0.89-0.51-2.15-2.41-2.15H60.65z"/>
		<path class="st2" d="M69.57,237.51c0.27-0.05,0.66-0.07,0.94-0.07c0.28,0,0.66,0.02,0.94,0.07v12.11
			c-0.28,0.05-0.66,0.07-0.94,0.07c-0.28,0-0.67-0.02-0.94-0.07V237.51z"/>
		<path class="st2" d="M82.26,248.75c-0.11,0.6-0.53,0.89-1.21,0.89h-5.27c-0.67,0-1.08-0.44-1.08-1.17v-10.85l0.12-0.11h7.13
			c0.05,0.28,0.05,0.53,0.05,0.75s-0.04,0.57-0.14,0.85h-4.2c-0.27,0-0.71,0.02-1.12,0c0,0.46,0.02,0.69,0.02,1.15v2.48
			c0.41,0,0.83-0.02,1.1-0.02H81c0.07,0.25,0.09,0.57,0.09,0.78s-0.02,0.53-0.09,0.78h-3.33c-0.27,0-0.69,0-1.1-0.02v2.91
			c0,0.32-0.02,0.57-0.02,0.9c0.35-0.04,0.71-0.05,1.17-0.05h4.59C82.32,248.18,82.32,248.5,82.26,248.75z"/>
		<path class="st2" d="M93.59,237.52v12.08c-0.3,0.05-0.9,0.09-1.13,0.09s-0.76-0.02-1.13-0.07l-3.78-7.43
			c-0.43-0.89-0.8-1.72-1.12-2.46l-0.07,0.02c0.07,1.22,0.16,3.01,0.16,4.34v5.53c-0.32,0.05-0.62,0.07-0.87,0.07
			s-0.58-0.02-0.89-0.07v-12.09c0.3-0.05,0.89-0.09,1.12-0.09c0.25,0,0.76,0.02,1.13,0.07l3.74,7.43c0.44,0.92,0.83,1.84,1.17,2.57
			l0.07-0.02c-0.09-1.42-0.14-3.24-0.14-4.47v-4.42c0-0.83,0.25-1.17,1.01-1.17h0.62L93.59,237.52z"/>
		<path class="st2" d="M102.18,246.67l-0.94,2.96c-0.23,0.05-0.53,0.07-0.82,0.07c-0.34,0-0.67-0.05-0.92-0.12l-0.05-0.09
			l4.01-11.99c0.28-0.05,0.78-0.07,1.08-0.07s0.8,0.02,1.06,0.07l3.97,11.99c-0.27,0.18-0.69,0.25-1.1,0.25
			c-0.59,0-0.89-0.21-1.12-0.99l-0.66-2.07c-0.3,0-0.92,0.02-1.06,0.02h-2.43C103.07,246.69,102.49,246.67,102.18,246.67z
			 M102.66,245.15c0.28,0,0.76-0.02,0.9-0.02h1.77c0.12,0,0.6,0.02,0.89,0.02l-0.82-2.57c-0.32-1.03-0.69-2.27-0.94-3.21h-0.09
			c-0.18,0.8-0.5,1.92-0.69,2.57L102.66,245.15z"/>
		<path class="st2" d="M120.02,245.36c0,2.94-1.77,4.49-4.49,4.49s-4.47-1.54-4.47-4.49v-7.82l0.11-0.11h0.73
			c0.76,0,1.05,0.37,1.05,1.21v6.72c0,1.95,0.9,2.96,2.59,2.96c1.7,0,2.59-1.01,2.59-2.96v-7.86c0.28-0.05,0.64-0.07,0.92-0.07
			c0.28,0,0.69,0.02,0.98,0.07V245.36z"/>
		<path class="st2" d="M128.79,240.4c0-0.48,0.02-0.82,0.02-1.31h-0.02c-0.23,0-0.76,0.02-1.01,0.02h-2.11
			c-0.05-0.28-0.07-0.57-0.07-0.8s0.02-0.51,0.07-0.8h8.16c0.05,0.21,0.11,0.5,0.11,0.75c0,0.62-0.34,0.85-1.06,0.85h-1.15
			c-0.23,0-0.78-0.02-1.03-0.02v10.53c-0.3,0.05-0.66,0.07-0.94,0.07c-0.28,0-0.66-0.02-0.96-0.07V240.4z"/>
		<path class="st2" d="M141.38,244.3c0.58,0.21,1.01,0.82,1.26,1.51l0.78,2.08c0.18,0.48,0.39,0.96,0.8,1.28
			c-0.25,0.37-0.8,0.58-1.28,0.58c-0.71,0-0.96-0.39-1.24-1.15l-0.89-2.39c-0.3-0.82-0.69-1.45-1.79-1.45h-1.45v4.88
			c-0.28,0.05-0.64,0.07-0.94,0.07c-0.28,0-0.66-0.02-0.92-0.07v-12l0.11-0.12c1.33-0.02,2.61-0.05,3.81-0.05
			c2.46,0,4.02,1.28,4.02,3.63C143.64,242.7,142.67,243.89,141.38,244.3z M137.56,243.23c0.69-0.02,1.47-0.04,1.97-0.04
			c1.74,0,2.16-1.1,2.16-2.13c0-1.08-0.43-2.15-2.16-2.15c-0.51,0-1.37,0-1.97-0.02V243.23z"/>
		<path class="st2" d="M147.81,246.67l-0.94,2.96c-0.23,0.05-0.53,0.07-0.82,0.07c-0.34,0-0.67-0.05-0.92-0.12l-0.05-0.09
			l4.01-11.99c0.28-0.05,0.78-0.07,1.08-0.07s0.8,0.02,1.06,0.07l3.97,11.99c-0.27,0.18-0.69,0.25-1.1,0.25
			c-0.58,0-0.89-0.21-1.12-0.99l-0.66-2.07c-0.3,0-0.92,0.02-1.06,0.02h-2.43C148.69,246.69,148.11,246.67,147.81,246.67z
			 M148.29,245.15c0.28,0,0.76-0.02,0.9-0.02h1.77c0.12,0,0.6,0.02,0.89,0.02l-0.82-2.57c-0.32-1.03-0.69-2.27-0.94-3.21h-0.09
			c-0.18,0.8-0.5,1.92-0.69,2.57L148.29,245.15z"/>
		<path class="st2" d="M162.81,237.51c0.25-0.05,0.51-0.07,0.82-0.07c0.27,0,0.62,0.04,0.85,0.11l0.09,0.14l-3.51,11.95
			c-0.46,0.04-0.97,0.07-1.45,0.07c-0.62,0-1.08-0.12-1.31-0.92l-3.26-11.12c0.35-0.16,0.76-0.28,1.17-0.28
			c0.51,0,0.83,0.25,1.03,0.92l1.83,6.4c0.25,0.87,0.57,2.11,0.78,3.05c0.04,0.14,0.07,0.18,0.16,0.18L162.81,237.51z"/>
		<path class="st2" d="M167.04,246.67l-0.94,2.96c-0.23,0.05-0.53,0.07-0.82,0.07c-0.34,0-0.67-0.05-0.92-0.12l-0.05-0.09
			l4.01-11.99c0.28-0.05,0.78-0.07,1.08-0.07s0.8,0.02,1.06,0.07l3.97,11.99c-0.27,0.18-0.69,0.25-1.1,0.25
			c-0.58,0-0.89-0.21-1.12-0.99l-0.66-2.07c-0.3,0-0.92,0.02-1.06,0.02h-2.43C167.93,246.69,167.34,246.67,167.04,246.67z
			 M167.52,245.15c0.28,0,0.76-0.02,0.9-0.02h1.77c0.12,0,0.6,0.02,0.89,0.02l-0.82-2.57c-0.32-1.03-0.69-2.27-0.94-3.21h-0.09
			c-0.18,0.8-0.5,1.92-0.69,2.57L167.52,245.15z"/>
		<path class="st2" d="M176.45,237.51c0.27-0.05,0.66-0.07,0.94-0.07c0.28,0,0.66,0.02,0.94,0.07v12.11
			c-0.28,0.05-0.66,0.07-0.94,0.07c-0.28,0-0.67-0.02-0.94-0.07V237.51z"/>
		<path class="st2" d="M188.6,247.99c0,0.19-0.02,0.51-0.05,0.74c-0.11,0.6-0.55,0.9-1.22,0.9h-4.63c-0.64,0-1.1-0.41-1.1-1.17
			v-10.92l0.12-0.11h0.71c0.78,0,1.06,0.37,1.06,1.21v9.42c0.55-0.05,1.1-0.07,1.58-0.07H188.6z"/>
	</g>
	<rect x="13.86" y="256.13" class="st2" width="173.42" height="1"/>
	
		<rect x="97.03" y="253.09" transform="matrix(0.7071 -0.7071 0.7071 0.7071 -152.007 146.2788)" class="st2" width="7.08" height="7.08"/>
</g>
</svg>
