<?xml version="1.0" encoding="utf-8"?>
<!-- Generator: Adobe Illustrator 23.0.1, SVG Export Plug-In . SVG Version: 6.00 Build 0)  -->
<svg version="1.1" id="Calque_1" xmlns="http://www.w3.org/2000/svg" xmlns:xlink="http://www.w3.org/1999/xlink" x="0px" y="0px"
	 viewBox="0 0 226.79 305.41" style="enable-background:new 0 0 226.79 305.41;" xml:space="preserve">
<style type="text/css">
	.st0{fill:#3C3C3B;}
	.st1{fill:#7D6883;}
	.st2{fill:#523859;}
</style>
<g>
	<path class="st0" d="M81.5,270.33c0,0,3.88,16.18,6.87,16.31c2.99,0.12,7.02-0.23,5.33-5.82c-1.69-5.58-4.68-23.19-3.79-24.05
		s2.33-6.97,2.33-6.97l-5.99-3.01l-8.56,5.48C77.7,252.26,76.3,265.56,81.5,270.33"/>
</g>
<polygon points="165.93,177.59 203.13,174.71 203.13,182.23 167.64,182.23 161.18,182.23 140.66,153.12 141.69,150.12 
	163.45,175.53 "/>
<polygon points="168.25,104.76 204.63,99.78 204.63,107.3 169.93,107.3 169.93,119.85 162.82,119.85 162.82,114.83 167.84,114.83 
	"/>
<polygon points="79.2,196.74 79.2,274.13 84.14,273.66 84.14,196.27 "/>
<g>
	<path class="st1" d="M75.02,182.23c0,0-8.03,0.67-9.2,2.34c-1.17,1.67-5.69,10.7,0.67,13.21c6.35,2.51,26.09,4.18,26.09,4.18
		l-4.85-18.56L75.02,182.23"/>
</g>
<polygon points="161.98,237.65 180.38,267.66 180.38,264.09 186.57,264.09 187.91,294.37 177.04,293.45 180.05,277.06 
	158.64,245.02 74.39,278.73 72.93,275.38 161.15,235.04 "/>
<g>
	<path class="st0" d="M15.64,200.96c0,0,0.84-30.94-4.18-37.63c-5.02-6.69-8.36-25.92,0-38.47c8.36-12.54,15.89-30.94,15.89-36.79
		c0-5.85,4.18-35.12,7.53-39.3s0.84-12.54,5.85-15.89c5.02-3.35,5.85-11.71,5.85-11.71l5.02-5.02l3.34-1.04l5.02-3.97
		c0,0-0.84-3.35,5.02-5.85c5.85-2.51,12.54-5.02,12.54-5.02s5.02-1.67,8.36,3.34c3.34,5.02,6.69,5.85,6.69,5.85s4.18,2.51,4.6,3.76
		c0.42,1.25,2.51,4.18,2.51,4.18s0.84,4.18-0.42,5.85c-1.25,1.67-3.76,6.69-3.76,6.69s-4.18,2.35-3.76,3.76
		c0.42,1.41,0.84,6.95,0.42,8.36c-0.42,1.41-2.09,0.42-2.09,0.42l-0.42,2.51l-2.51,0.84v2.93l-2.51,1.26c0,0-3.76-2.09-5.85-2.09
		c-2.09,0-5.44-1.67-5.44,0.84s2.51,8.36,2.51,8.36l0.84,5.02c0,0-2.93,19.65-2.93,20.9s-2.93,8.36-7.11,13.38
		c-4.18,5.02-6.69,24.67-15.05,35.54c0,0-2.09,6.2-2.09,18.57c0,12.37-10.03,61.71-10.87,65.47c-0.84,3.76-2.93,8.78-6.27,12.54
		c-3.34,3.76-2.93,6.69-2.93,7.53v33.03c0,0,7.94,0,10.45,4.6c2.51,4.6-0.42,6.69-0.42,6.69l-7.11,1.2l-0.84,3.4l5.02,4.18
		c0,0,3.76,1.13,7.11,1.13c3.34,0,6.69,1.48,6.69,1.48s2.82,1.15,2.82,3.24c0,2.09-1.56,5.85-1.56,5.85s0.42,2.51-6.69,2.51
		s-27.6-0.68-27.6-0.68l-0.84,2.15l-9.62,0.53l-3.76-4.1l-1.09-5.44H0.57c0,0-1.28-35.54,0-43.07
		C1.85,245.28,4.36,226.88,15.64,200.96"/>
	<path class="st2" d="M59.76,52.95c0,0-8.99,6.69,0.21,15.05c0,0,17.42,29.43,20.49,31.78c3.55,2.72,20.28,2.72,20.28,2.72h3.97
		c0,0,8.15-6.08,11.92-7.33c3.76-1.25,10.66-10.85,8.99-12.52c-1.67-1.67-4.6-1.51-4.6-1.51s-9.48,3.42-10.44,5.28
		c-0.6,1.17-7.33,5.23-7.33,5.23l-5.23-0.42c0,0-6.89-1.17-10.24-5.65c-1.44-1.92-11.28-26.68-20.28-32.79
		C63.1,49.79,59.76,52.95,59.76,52.95"/>
	<path class="st1" d="M170.96,88.24c0,0,25.92-4.18,36.38-2.09c0,0,15.05,5.85,1.67,14.84c0,0-34.47,4.29-36.38,3.71
		c-1.91-0.58-11.29,1.1-9.62-10.61C163.02,94.09,164.27,89.49,170.96,88.24"/>
	<path class="st1" d="M167.39,163.48c0,0,25.76-5.08,36.28-3.36c0,0,15.25,5.32,2.19,14.77c0,0-34.3,5.49-36.22,4.98
		c-1.93-0.51-11.24,1.49-9.98-10.27C159.65,169.61,160.74,164.97,167.39,163.48"/>
	<path class="st1" d="M114.23,168.95c0,0,11.44-23.63,19.15-31c0,0,13.43-8.97,13.12,7.14c0,0-16.25,30.7-17.82,31.93
		c-1.57,1.23-5.58,9.88-14.21,1.79C114.47,178.82,111.42,175.15,114.23,168.95"/>
	<path class="st1" d="M162.4,207.65c0,0,6.06,5.23,5.02,8.99c-1.05,3.76-3.97,7.11-3.97,8.15c0,1.04-2.09,6.69-1.04,8.99
		c1.04,2.3,0.23,2.98-1.77,4.18c-1.99,1.2-18.17,7.53-18.17,7.53l-36.92,17.14l-13.38,5.02c0,0-3.35,0.42-3.55-4.6
		c-0.21-5.02,2.44-10.45,5.85-10.87c3.41-0.42,57.49-23.88,57.49-24.72s0.42-8.73,0.42-8.73S150.9,207.39,162.4,207.65"/>
	<path class="st0" d="M69.51,247.31C76.94,247.53,88.4,240,88.4,240s14.47-14.38,16.31-15.89c0.61-0.5,8.4-3.92,5.87-6.85
		c-2.52-2.93-10.61-7.94-10.61-7.94l-20.34-15.05c0,0-27.18-22.32-10.45-46.83c0,0,28.01-56.86,76.1-64.39h12.12
		c2.51,0,5.85-8.78,5.85-8.78s-1.01-0.84,1.38-4.18c2.38-3.35,4.89-7.11,6.15-7.11c1.26,0,2.51-0.84,4.6-0.42
		c2.09,0.42,3.76-1.59,3.76-1.59l5.02-0.94l3.35,1.7l6.27,3.34c0,0,4.18,1.67,4.18,4.6c0,2.93,1.48,3.76,1.48,3.76l3.12,5.25
		l-2.09,4.78l1.67,2.93c0,0,0,2.51-4.6,2.51c-4.6,0-11.29-1.26-14.21-0.84c-2.93,0.42-9.2,0-9.62,0.84
		c-0.42,0.84-4.18,3.76-2.93,2.51l-6.27,8.78l-0.42,21.32c0,0,2.51,18.82,4.6,18.82c2.09,0,1.25,7.53,21.32,6.69l19.65,0.84
		c0,0,5.85-4.6,8.78-2.51c2.93,2.09,5.43,5.19,5.43,5.19s4.71,7.77,2.93,9.44c-1.78,1.67-3.76,6.27-3.76,6.27
		s-10.03,2.93-11.29,2.09c-1.25-0.84-5.43-4.18-5.43-4.18s-5.02-4.18-19.23-1.25c-14.22,2.93-19.65,4.18-19.65,4.18
		s-5.85,3.35-7.95,3.35c-2.09,0-6.69,0.07-16.72-17.73c-10.04-17.81-6.27-12.37-6.27-12.37s-2.93-1.85-5.43,4.18
		c-2.51,6.03-13.36,18.98-11.71,25.09c0.84,3.08,3.35,6.69,3.35,6.69c1.87,0.94,23.83,19.12,23.83,19.12s12.96,7.22,13.8,12.24
		c0.84,5.02-3.35,8.36-4.6,8.78c-1.25,0.42-2.09,4.6-2.09,4.6s0.84,4.6-1.25,8.36c-2.09,3.76-56.03,22.58-57.28,25.09
		c0,0-14.21,8.36-14.21,10.03c0,1.67-0.84,10.45,0.42,12.54c1.25,2.09,2.93,14.63,2.93,14.63c-0.75,1.31-3.35,4.54-7.53,1.23
		c-4.18-3.32-5.44-15.86-5.85-17.53c-0.42-1.67-3.76-9.78-6.19-10.7c-3.04-1.15-4.52-9.9-1.67-13.71c0.72-0.97,3.05-2.66,4.43-3.27"
		/>
</g>
</svg>
