<?xml version="1.0" encoding="utf-8"?>
<!-- Generator: Adobe Illustrator 23.0.1, SVG Export Plug-In . SVG Version: 6.00 Build 0)  -->
<svg version="1.1" id="Layer_1" xmlns="http://www.w3.org/2000/svg" xmlns:xlink="http://www.w3.org/1999/xlink" x="0px" y="0px"
	 viewBox="0 0 190.79 169.92" style="enable-background:new 0 0 190.79 169.92;" xml:space="preserve">
<style type="text/css">
	.st0{fill:#3EB6AC;}
	.st1{fill:#FFFFFF;}
</style>
<path class="st0" d="M0,84.96c0,20.87,4.47,47.7,13.41,65.58c16.4,11.92,52.17,19.38,81.98,19.38c26.83,0,67.07-7.45,81.98-19.38
	c8.94-17.89,13.41-44.72,13.41-65.58c0-20.87-4.47-49.19-13.41-67.07C160.98,7.45,122.22,0,95.39,0C65.58,0,31.3,7.45,13.41,17.89
	C4.47,35.77,0,62.6,0,84.96"/>
<path class="st0" d="M95.39,84.96"/>
<g>
	<path class="st1" d="M62.83,92.71c0,3.06-0.32,5.53-0.96,7.4c-0.64,1.87-1.83,3.7-3.56,5.48c-2.79,2.79-6.56,4.18-11.31,4.18
		c-4.89,0-8.75-1.42-11.58-4.25c-1.1-1.1-1.97-2.33-2.6-3.7c-0.64-1.37-1.04-2.56-1.2-3.56c-0.16-1-0.31-2.26-0.45-3.77h11.24
		c0.37,3.43,1.9,5.14,4.59,5.14c1.28,0,2.33-0.41,3.15-1.23c0.96-0.96,1.44-2.86,1.44-5.69c0-2.56-0.39-4.35-1.17-5.38
		c-0.78-1.03-1.92-1.54-3.43-1.54c-0.78,0-1.45,0.11-2.02,0.34c-0.57,0.23-1.03,0.55-1.37,0.96s-0.58,0.77-0.72,1.06
		c-0.14,0.3-0.3,0.67-0.48,1.13H32.05V60.56H61.8V70.7H42.27v7.54c1.65-1.28,3.84-1.92,6.58-1.92c4.02,0,7.17,1.14,9.46,3.43
		c1.83,1.83,3.04,3.77,3.63,5.83C62.53,87.63,62.83,90.01,62.83,92.71z"/>
	<path class="st1" d="M100.6,94.56c0,4.8-1.53,8.53-4.59,11.21c-3.06,2.67-6.76,4.01-11.1,4.01c-4.34,0-8.04-1.34-11.11-4.01
		c-3.06-2.67-4.59-6.41-4.59-11.21V75.36c0-4.8,1.53-8.53,4.59-11.21c3.06-2.67,6.76-4.01,11.11-4.01c4.34,0,8.04,1.34,11.1,4.01
		c3.06,2.67,4.59,6.41,4.59,11.21V94.56z M89.36,94.63V75.36c0-1.65-0.42-2.9-1.27-3.77c-0.85-0.87-1.91-1.3-3.19-1.3
		c-1.28,0-2.34,0.44-3.19,1.3c-0.85,0.87-1.27,2.12-1.27,3.77v19.26c0,1.65,0.42,2.89,1.27,3.74c0.85,0.85,1.91,1.27,3.19,1.27
		c1.28,0,2.34-0.42,3.19-1.27C88.94,97.52,89.36,96.27,89.36,94.63z"/>
	<path class="st1" d="M127.75,76.19c0,3.06-0.99,5.42-2.98,7.06c-1.99,1.65-4.44,2.47-7.37,2.47c-2.93,0-5.38-0.82-7.37-2.47
		c-1.99-1.65-2.98-4-2.98-7.06v-6.51c0-3.06,0.99-5.42,2.98-7.06c1.99-1.65,4.44-2.47,7.37-2.47c2.92,0,5.38,0.82,7.37,2.47
		c1.99,1.65,2.98,4,2.98,7.06V76.19z M119.8,75.91v-5.96c0-1.78-0.8-2.67-2.4-2.67c-1.6,0-2.4,0.89-2.4,2.67v5.96
		c0,1.78,0.8,2.67,2.4,2.67C119,78.58,119.8,77.69,119.8,75.91z M149.27,60.56l-23.24,48.81h-8.64l23.24-48.81H149.27z
		 M159.63,100.25c0,3.06-0.99,5.42-2.98,7.06c-1.99,1.65-4.44,2.47-7.37,2.47c-2.93,0-5.38-0.82-7.37-2.47
		c-1.99-1.65-2.98-4-2.98-7.06v-6.51c0-3.06,0.99-5.42,2.98-7.06c1.99-1.65,4.44-2.47,7.37-2.47c2.92,0,5.38,0.82,7.37,2.47
		c1.99,1.65,2.98,4,2.98,7.06V100.25z M151.67,99.97v-5.96c0-1.78-0.8-2.67-2.4-2.67c-1.6,0-2.4,0.89-2.4,2.67v5.96
		c0,1.78,0.8,2.67,2.4,2.67C150.87,102.65,151.67,101.75,151.67,99.97z"/>
</g>
</svg>
