<?xml version="1.0" encoding="utf-8"?>
<!-- Generator: Adobe Illustrator 23.0.1, SVG Export Plug-In . SVG Version: 6.00 Build 0)  -->
<svg version="1.1" id="Layer_1" xmlns="http://www.w3.org/2000/svg" xmlns:xlink="http://www.w3.org/1999/xlink" x="0px" y="0px"
	 viewBox="0 0 190.79 169.92" style="enable-background:new 0 0 190.79 169.92;" xml:space="preserve">
<style type="text/css">
	.st0{fill:#3EB6AC;}
	.st1{fill:#FFFFFF;}
</style>
<g>
	<path class="st0" d="M0,84.96c0,20.87,4.47,47.7,13.41,65.58c16.4,11.92,52.17,19.38,81.98,19.38c26.83,0,67.07-7.45,81.98-19.38
		c8.94-17.89,13.41-44.72,13.41-65.58c0-20.87-4.47-49.19-13.41-67.07C160.98,7.45,122.22,0,95.39,0C65.58,0,31.3,7.45,13.41,17.89
		C4.47,35.77,0,62.6,0,84.96"/>
	<g>
		<path class="st1" d="M75.58,106.16H64.34V69.35L53.92,78.4v-12l10.42-9.05h11.24V106.16z"/>
		<path class="st1" d="M120.96,89.5c0,3.06-0.32,5.53-0.96,7.4c-0.64,1.87-1.83,3.7-3.56,5.48c-2.79,2.79-6.56,4.18-11.31,4.18
			c-4.89,0-8.75-1.42-11.58-4.25c-1.1-1.1-1.97-2.33-2.6-3.7c-0.64-1.37-1.04-2.56-1.2-3.56c-0.16-1-0.31-2.26-0.45-3.77h11.24
			c0.37,3.43,1.9,5.14,4.59,5.14c1.28,0,2.33-0.41,3.15-1.23c0.96-0.96,1.44-2.86,1.44-5.69c0-2.56-0.39-4.35-1.17-5.38
			c-0.78-1.03-1.92-1.54-3.43-1.54c-0.78,0-1.45,0.11-2.02,0.34c-0.57,0.23-1.03,0.55-1.37,0.96s-0.58,0.77-0.72,1.06
			c-0.14,0.3-0.3,0.67-0.48,1.13H90.18V57.35h29.75V67.5H100.4v7.54c1.65-1.28,3.84-1.92,6.58-1.92c4.02,0,7.17,1.14,9.46,3.43
			c1.83,1.83,3.04,3.77,3.63,5.83C120.67,84.43,120.96,86.81,120.96,89.5z"/>
		<path class="st1" d="M139.13,67.43l-11.24,8.09V57.35h11.24V67.43z"/>
	</g>
</g>
</svg>
