<?xml version="1.0" encoding="utf-8"?>
<!-- Generator: Adobe Illustrator 23.0.1, SVG Export Plug-In . SVG Version: 6.00 Build 0)  -->
<svg version="1.1" id="Layer_1" xmlns="http://www.w3.org/2000/svg" xmlns:xlink="http://www.w3.org/1999/xlink" x="0px" y="0px"
	 viewBox="0 0 380.39 371.48" style="enable-background:new 0 0 380.39 371.48;" xml:space="preserve">
<style type="text/css">
	.st0{fill:#3EB6AC;}
	.st1{fill:#52385A;}
	.st2{fill:#FEDB41;}
	.st3{fill:#20D0C2;}
</style>
<g>
	<path class="st0" d="M190.19,367.28c-53.86,0-126.37-13.08-160.74-38.07l-0.29-0.21l-0.16-0.32
		C9.59,289.84,2.69,235.16,2.69,200.13c0-48.62,10.08-99,26.32-131.46l0.19-0.39l0.37-0.22c34.85-20.33,102.4-35.08,160.62-35.08
		c50.95,0,127.66,14.11,160.67,35.11l0.34,0.22l0.18,0.36c18.18,36.36,26.32,92.23,26.32,131.46c0,35.02-6.89,89.71-26.32,128.56
		l-0.14,0.29l-0.25,0.2C322.49,351.97,244.84,367.28,190.19,367.28z M31.45,327.07c30.03,21.63,96.68,37.3,158.74,37.3
		c54,0,130.51-14.97,158.73-37.27c11.97-24.09,25.87-71.66,25.87-126.97c0-53.73-12.94-103.8-25.83-129.8
		c-32.76-20.61-108.4-34.44-158.76-34.44c-57.56,0-124.21,14.48-158.78,34.47C15.73,101.99,5.6,152.86,5.6,200.13
		C5.6,234.75,12.38,288.7,31.45,327.07z"/>
	<g>
		<g id="surface1_1_">
			<path class="st1" d="M251.05,132.73c-0.01-4.7-3.82-8.51-8.53-8.53H110.35v42.63c0,4.71-3.82,8.53-8.53,8.53h-46.9v187.59
				c0.01,4.7,3.82,8.51,8.53,8.53h179.06c4.7-0.01,8.51-3.82,8.53-8.53V132.73z"/>
			<path class="st2" d="M110.35,166.84V124.2l-55.42,51.16h46.9C106.53,175.36,110.35,171.55,110.35,166.84z"/>
			<path class="st2" d="M174.3,239.31H84.77c-2.35,0-4.26-1.91-4.26-4.26c0-2.35,1.91-4.26,4.26-4.26h89.53
				c2.35,0,4.26,1.91,4.26,4.26C178.57,237.41,176.66,239.31,174.3,239.31z"/>
			<path class="st2" d="M148.72,264.89H84.77c-2.35,0-4.26-1.91-4.26-4.26s1.91-4.26,4.26-4.26h63.95c2.35,0,4.26,1.91,4.26,4.26
				S151.08,264.89,148.72,264.89z"/>
			<path class="st2" d="M123.14,290.48H84.77c-2.35,0-4.26-1.91-4.26-4.26s1.91-4.26,4.26-4.26h38.37c2.35,0,4.26,1.91,4.26,4.26
				S125.5,290.48,123.14,290.48z"/>
			<path class="st2" d="M199.88,213.73h-81c-2.35,0-4.26-1.91-4.26-4.26c0-2.35,1.91-4.26,4.26-4.26h81c2.35,0,4.26,1.91,4.26,4.26
				C204.15,211.82,202.24,213.73,199.88,213.73z"/>
			<path class="st2" d="M101.83,213.73H84.77c-2.35,0-4.26-1.91-4.26-4.26c0-2.35,1.91-4.26,4.26-4.26h17.05
				c2.35,0,4.26,1.91,4.26,4.26C106.09,211.82,104.18,213.73,101.83,213.73z"/>
		</g>
	</g>
	<g>
		<g>
			<path class="st3" d="M271,202.63c-50.64,0-91.85-41.2-91.85-91.85s41.2-91.85,91.85-91.85s91.85,41.2,91.85,91.85
				S321.65,202.63,271,202.63z"/>
		</g>
		<g>
			<path class="st1" d="M311.42,107.1h-26.24c-1.34-5.14-5.36-9.16-10.5-10.5V59.34c0-2.03-1.65-3.67-3.67-3.67
				c-2.03,0-3.67,1.64-3.67,3.67V96.6c-6.32,1.64-11.02,7.34-11.02,14.17c0,8.1,6.59,14.7,14.7,14.7c6.83,0,12.53-4.7,14.17-11.02
				h26.24c2.03,0,3.67-1.64,3.67-3.67C315.09,108.75,313.45,107.1,311.42,107.1z M271,118.13c-4.05,0-7.35-3.3-7.35-7.35
				c0-4.05,3.3-7.35,7.35-7.35s7.35,3.3,7.35,7.35C278.35,114.83,275.06,118.13,271,118.13z"/>
			<path class="st1" d="M348.57,35.87l15.05,15.05c0.69,0.69,1.62,1.08,2.6,1.08c0.97,0,1.91-0.39,2.6-1.08
				c11.64-11.63,11.64-30.56,0-42.19c-11.63-11.63-30.56-11.63-42.19,0c-0.69,0.69-1.08,1.62-1.08,2.6s0.39,1.91,1.08,2.6
				l16.76,16.76l-6.24,6.24c-17.56-15.74-40.74-25.34-66.12-25.34c-25.38,0-48.56,9.6-66.12,25.34l-6.25-6.24l16.76-16.76
				c0.69-0.69,1.08-1.62,1.08-2.6s-0.39-1.91-1.08-2.6c-11.63-11.63-30.56-11.63-42.19,0c-11.64,11.63-11.64,30.56,0,42.19
				c0.69,0.69,1.62,1.08,2.6,1.08c0.97,0,1.91-0.39,2.6-1.08l15.05-15.05l6.16,6.16c-17.19,17.84-27.79,42.08-27.79,68.75
				c0,36.36,19.68,68.2,48.94,85.47l-11.12,11.12c-1.44,1.44-1.44,3.76,0,5.19c0.72,0.72,1.66,1.08,2.6,1.08s1.88-0.36,2.6-1.08
				l12.68-12.68c13.15,6.44,27.91,10.08,43.51,10.08s30.36-3.63,43.51-10.08l12.68,12.68c0.72,0.72,1.66,1.08,2.6,1.08
				s1.88-0.36,2.6-1.08c1.44-1.44,1.44-3.76,0-5.19l-11.12-11.12c29.26-17.27,48.94-49.11,48.94-85.47
				c0-26.67-10.6-50.91-27.79-68.75L348.57,35.87z M363.61,13.92c7.88,7.88,8.68,20.21,2.38,29l-31.38-31.38
				C343.39,5.24,355.73,6.03,363.61,13.92z M176.01,42.91c-6.29-8.78-5.5-21.11,2.38-28.99c7.88-7.88,20.22-8.67,28.99-2.38
				L176.01,42.91z M271,202.63c-50.64,0-91.85-41.2-91.85-91.85s41.2-91.85,91.85-91.85s91.85,41.2,91.85,91.85
				S321.65,202.63,271,202.63z"/>
			<path class="st1" d="M344.05,68.37c-7.38-12.67-17.97-23.25-30.63-30.63c-0.06-0.04-0.1-0.1-0.16-0.14
				c-0.07-0.04-0.14-0.04-0.2-0.07c-12.39-7.14-26.75-11.25-42.05-11.25s-29.66,4.11-42.05,11.25c-0.07,0.03-0.14,0.03-0.2,0.07
				c-0.06,0.04-0.1,0.1-0.16,0.14c-12.67,7.38-23.25,17.96-30.63,30.63c-0.04,0.06-0.1,0.1-0.14,0.16c-0.04,0.06-0.04,0.14-0.07,0.2
				c-7.14,12.4-11.25,26.75-11.25,42.05s4.11,29.66,11.25,42.05c0.03,0.07,0.03,0.14,0.07,0.2c0.05,0.09,0.13,0.16,0.19,0.24
				c7.38,12.63,17.94,23.18,30.59,30.55c0.06,0.04,0.1,0.1,0.16,0.14c0.1,0.06,0.2,0.08,0.29,0.12c12.37,7.11,26.69,11.2,41.96,11.2
				s29.58-4.09,41.96-11.2c0.1-0.04,0.2-0.07,0.29-0.12c0.06-0.04,0.1-0.1,0.16-0.14c12.64-7.37,23.2-17.91,30.59-30.55
				c0.06-0.08,0.14-0.15,0.19-0.24c0.04-0.06,0.04-0.14,0.07-0.2c7.14-12.4,11.25-26.75,11.25-42.05s-4.11-29.66-11.25-42.05
				c-0.03-0.07-0.03-0.14-0.07-0.2C344.15,68.47,344.08,68.43,344.05,68.37z M312.68,175.61l-1.75-3.03
				c-1.02-1.76-3.26-2.36-5.02-1.34c-1.76,1.01-2.36,3.26-1.34,5.02l1.76,3.05c-9.56,4.95-20.28,7.91-31.64,8.45v-3.49
				c0-2.03-1.65-3.67-3.67-3.67c-2.03,0-3.67,1.64-3.67,3.67v3.49c-11.36-0.54-22.08-3.5-31.64-8.45l1.76-3.05
				c1.01-1.76,0.41-4-1.34-5.02c-1.77-1.01-4-0.41-5.02,1.34l-1.75,3.03c-9.28-5.98-17.18-13.88-23.16-23.16l3.03-1.75
				c1.76-1.01,2.36-3.26,1.34-5.02c-1.02-1.76-3.26-2.37-5.02-1.34l-3.05,1.76c-4.95-9.56-7.91-20.28-8.45-31.64h3.49
				c2.03,0,3.67-1.64,3.67-3.67c0-2.03-1.65-3.67-3.67-3.67h-3.49c0.54-11.36,3.5-22.08,8.45-31.64l3.05,1.76
				c0.58,0.33,1.21,0.49,1.83,0.49c1.27,0,2.51-0.66,3.19-1.84c1.01-1.76,0.41-4-1.34-5.02l-3.03-1.76
				c5.98-9.27,13.88-17.18,23.16-23.16l1.75,3.03c0.68,1.18,1.91,1.84,3.19,1.84c0.62,0,1.25-0.16,1.83-0.49
				c1.76-1.01,2.36-3.26,1.34-5.02l-1.76-3.05c9.56-4.95,20.28-7.91,31.64-8.45v3.49c0,2.03,1.65,3.67,3.67,3.67
				c2.03,0,3.67-1.64,3.67-3.67v-3.49c11.36,0.54,22.08,3.5,31.64,8.45l-1.76,3.05c-1.01,1.76-0.41,4,1.34,5.02
				c0.58,0.33,1.21,0.49,1.83,0.49c1.27,0,2.51-0.66,3.19-1.84l1.75-3.03c9.28,5.98,17.18,13.88,23.16,23.16l-3.03,1.75
				c-1.76,1.01-2.36,3.26-1.34,5.02c0.68,1.18,1.91,1.84,3.19,1.84c0.62,0,1.25-0.16,1.83-0.49l3.05-1.76
				c4.95,9.56,7.91,20.28,8.45,31.64h-3.49c-2.03,0-3.67,1.64-3.67,3.67c0,2.03,1.65,3.67,3.67,3.67h3.49
				c-0.54,11.36-3.5,22.08-8.45,31.64l-3.05-1.76c-1.76-1.02-4-0.41-5.02,1.34c-1.01,1.76-0.41,4,1.34,5.02l3.03,1.75
				C329.85,161.72,321.95,169.62,312.68,175.61z"/>
		</g>
		<g>
			<path class="st2" d="M363.61,13.92c7.88,7.88,8.68,20.21,2.38,29l-31.38-31.38C343.39,5.24,355.73,6.03,363.61,13.92z
				 M176.01,42.91c-6.29-8.78-5.5-21.11,2.38-28.99c7.88-7.88,20.22-8.67,28.99-2.38L176.01,42.91z"/>
		</g>
	</g>
</g>
</svg>
