<?xml version="1.0" encoding="utf-8"?>
<!-- Generator: Adobe Illustrator 23.0.1, SVG Export Plug-In . SVG Version: 6.00 Build 0)  -->
<svg version="1.1" id="Layer_1" xmlns="http://www.w3.org/2000/svg" xmlns:xlink="http://www.w3.org/1999/xlink" x="0px" y="0px"
	 viewBox="0 0 462.53 369.99" style="enable-background:new 0 0 462.53 369.99;" xml:space="preserve">
<style type="text/css">
	.st0{fill:#52385A;}
	.st1{fill:#20D0C2;}
	.st2{fill:#FCFCFD;}
	.st3{fill:#F0BA7A;}
	.st4{fill:#4F5565;}
	.st5{fill:#47ADA9;}
	.st6{fill:#F1F3F7;}
	.st7{fill:#F7CFA2;}
</style>
<g>
	<path class="st0" d="M0,185c0,45.44,9.74,103.86,29.21,142.81C64.91,353.77,142.81,370,207.72,370
		c58.42,0,146.05-16.23,178.51-42.19c19.47-38.95,29.21-97.37,29.21-142.81c0-45.44-9.74-107.1-29.21-146.05
		C350.52,16.23,266.14,0,207.72,0C142.81,0,68.16,16.23,29.21,38.95C9.74,77.89,0,136.31,0,185"/>
	<rect x="10.21" y="31.47" class="st1" width="395.02" height="38.99"/>
	<path class="st2" d="M36.66,70.46v214.29c0,8.48,6.78,15.26,15.6,15.26h310.93c8.48,0,15.6-6.78,15.6-15.26V70.46H36.66z"/>
	<rect x="330.63" y="254.24" class="st3" width="44.42" height="32.55"/>
	<circle class="st4" cx="352.67" cy="204.06" r="50.18"/>
	<polygon class="st0" points="323.85,275.26 352.67,276.96 381.49,275.26 375.05,369.19 330.63,369.19 	"/>
	<path class="st1" d="M323.85,275.26c-2.03,0.68-65.44,29.16-65.44,29.16l-15.26,64.76h109.86L323.85,275.26z"/>
	<polygon class="st5" points="323.85,275.26 310.97,281.03 291.64,310.87 309.95,316.63 293.67,335.62 330.63,369.19 352.67,369.19 
			"/>
	<path class="st1" d="M381.83,275.26c2.03,0.68,65.44,29.16,65.44,29.16l15.26,64.76H352.67L381.83,275.26z"/>
	<polygon class="st5" points="381.83,275.26 394.38,281.03 414.04,310.87 395.73,316.63 412.01,335.62 375.05,369.19 352.67,369.19 
			"/>
	<g>
		<polygon class="st6" points="323.85,275.26 329.95,264.41 352.67,276.96 336.06,299 		"/>
		<polygon class="st6" points="381.49,275.26 375.39,264.41 352.67,276.96 369.29,299 		"/>
	</g>
	<path class="st4" d="M318.76,202.7c0,0,35.26,2.03,50.18-19.67c0,0,4.41,12.88,16.61,17.63v17.63h6.1c0-1.7,0.34-3.39,0.34-5.09
		c0-28.48-17.29-51.2-38.65-51.2s-38.65,23.06-38.65,51.2c0,1.7,0,3.39,0.34,5.09h4.41v-15.6L318.76,202.7L318.76,202.7z"/>
	<path class="st7" d="M385.22,218.3v-17.63c-12.21-5.09-16.61-17.63-16.61-17.63c-14.92,21.7-50.18,19.67-50.18,19.67v15.6h-4.41
		c2.03,26.11,18.31,46.11,38.65,46.11c20.01,0,36.62-20.34,38.65-46.11L385.22,218.3L385.22,218.3z"/>
	<polygon class="st0" points="293.42,248.81 293.42,200.32 280.87,200.32 280.87,227.45 221.2,167.77 200.18,188.8 150.33,138.95 
		109.64,179.64 59.8,129.8 50.64,138.61 109.64,197.27 150.33,156.58 200.18,206.43 221.2,185.4 272.06,236.27 244.93,236.27 
		244.93,248.81 	"/>
</g>
</svg>
