<?xml version="1.0" encoding="utf-8"?>
<!-- Generator: Adobe Illustrator 23.0.1, SVG Export Plug-In . SVG Version: 6.00 Build 0)  -->
<svg version="1.1" id="Calque_1" xmlns="http://www.w3.org/2000/svg" xmlns:xlink="http://www.w3.org/1999/xlink" x="0px" y="0px"
	 viewBox="0 0 388.54 173.62" style="enable-background:new 0 0 388.54 173.62;" xml:space="preserve">
<style type="text/css">
	.st0{fill:#37BDAF;}
	.st1{fill:#FFFFFF;}
	.st2{fill:#4B3659;}
	.st3{fill:#3EB6AC;}
	.st4{fill:#52395A;}
</style>
<g>
	<g>
		<path class="st0" d="M0,86.81c0,21.32,4.57,48.74,13.71,67.01c16.75,12.18,53.3,19.8,83.77,19.8c27.41,0,68.54-7.61,83.77-19.8
			c9.14-18.28,13.71-45.69,13.71-67.01c0-21.32-4.57-50.26-13.71-68.54C164.48,7.62,124.89,0,97.47,0
			C67.01,0,31.98,7.62,13.71,18.28C4.57,36.55,0,63.97,0,86.81"/>
		<path class="st1" d="M76.92,105.35c7.05,0,16.85,11.42,20.07,19.38l6.13,15.01c2.3,5.82,4.44,8.89,10.11,8.89
			c3.98,0,8.27-2.3,10.57-4.9c-3.37-2.3-5.36-6.74-7.35-11.95l-5.21-12.71c-3.22-7.81-7.66-12.1-14.09-13.79
			c1.84-1.53,3.52-3.52,5.06-5.97l16.7-26.5l-0.92-1.23c-2.91-0.15-5.21-0.15-8.43-0.15c-5.36,0-7.81,2.45-10.26,6.74L85.8,99.31
			C83.63,102.59,78.26,104.9,76.92,105.35"/>
		<path class="st1" d="M48.83,148.06c-0.78-41.03,20.95-96.21,64.01-122.29l6.82,11.26C102.27,47.56,87.45,64.44,76.8,85.86
			c-9.93,19.98-15.19,41.98-14.81,61.95L48.83,148.06z"/>
		<path class="st2" d="M134.82,50.9c0,2.15,0.46,4.9,1.38,6.74c1.68,1.23,5.36,1.99,8.42,1.99c2.76,0,6.89-0.77,8.43-1.99
			c0.92-1.84,1.38-4.6,1.38-6.74c0-2.14-0.46-5.05-1.38-6.89c-1.68-1.07-5.67-1.84-8.43-1.84c-3.06,0-6.59,0.77-8.42,1.84
			C135.28,45.84,134.82,48.6,134.82,50.9"/>
	</g>
	<g>
		<g>
			<path class="st3" d="M240.52,102.63c0.79,2.07,1.58,3.83,2.92,4.75c-0.91,1.03-2.62,1.95-4.2,1.95c-2.25,0-3.1-1.22-4.01-3.53
				l-2.43-5.96c-1.28-3.16-2.37-4.02-5.17-4.02c-0.91,0-1.83,0.06-2.8,0.12v12.96c-0.85,0.18-1.95,0.24-3.1,0.24
				c-1.09,0-2.13-0.06-3.04-0.24V64.54l0.37-0.37h2.43c2.62,0,3.35,1.22,3.35,4.02V90.7l2.07-0.12c0.67,0,1.1-0.24,1.46-0.85
				l5.35-8.4c0.97-1.7,1.95-2.68,4.08-2.68c1.28,0,2.19,0,3.35,0.06l0.36,0.49l-6.63,10.53c-0.61,0.97-1.28,1.76-2.01,2.37
				c2.56,0.67,4.32,2.37,5.6,5.48L240.52,102.63z"/>
		</g>
		<g>
			<path class="st4" d="M255.98,108.89c-0.85,0.18-2.01,0.24-3.1,0.24c-1.16,0-2.31-0.06-3.16-0.24V86.63
				c0-2.19-0.67-3.16-2.68-3.16h-0.67c-0.18-0.79-0.3-1.46-0.3-2.25c0-0.73,0.12-1.46,0.3-2.31c1.52-0.18,2.98-0.24,3.83-0.24h0.85
				c3.04,0,4.93,2.07,4.93,5.41V108.89z M248.37,67.77c0.73-0.43,2.13-0.73,3.35-0.73c1.09,0,2.68,0.3,3.35,0.73
				c0.37,0.73,0.55,1.89,0.55,2.74s-0.18,1.95-0.55,2.68c-0.61,0.49-2.25,0.79-3.35,0.79c-1.22,0-2.68-0.3-3.35-0.79
				c-0.37-0.73-0.55-1.83-0.55-2.68C247.82,69.59,248.01,68.5,248.37,67.77z"/>
			<path class="st4" d="M289.32,102.45c0,2.13,0.24,4.08,1.03,5.54c-0.91,0.73-2.43,1.34-3.95,1.34c-2.49,0-3.35-1.4-3.35-4.02
				V89.85c0-4.08-0.85-5.84-3.77-5.84c-2.43,0-5.54,1.4-7.67,3.77v21.11c-0.85,0.18-2.01,0.24-3.1,0.24c-1.16,0-2.25-0.06-3.16-0.24
				V78.96l0.37-0.37h2.37c2.37,0,3.35,1.4,3.47,3.77c2.62-2.37,6.02-4.08,9.67-4.08c5.72,0,8.09,4.38,8.09,9.98V102.45z"/>
			<path class="st4" d="M302.95,95.88c0.24,5.05,1.89,8.7,7.06,8.7c3.04,0,5.9-0.97,8.46-2.31c1.03,0.97,1.76,2.74,2.01,4.01
				c-2.92,2.07-7.18,3.41-11.44,3.41c-9.61,0-12.53-7.54-12.53-15.76c0-9.06,4.26-15.88,12.71-15.88c7.85,0,12.05,5.78,12.05,13.02
				c0,1.95-0.12,3.1-0.43,4.81H302.95z M302.95,91.31h12.29v-0.79c0-4.26-1.7-7.79-6.08-7.79
				C305.26,82.74,303.25,85.96,302.95,91.31z M313.53,63.94c1.83,0.61,3.77,2.37,4.44,4.14l-10.4,8.09c-1.16-0.3-2.31-1.4-2.8-2.56
				L313.53,63.94z"/>
			<path class="st4" d="M329.59,78.42c2.86,0.61,4.68,2.55,5.54,5.41c1.4-3.1,3.89-5.41,7.97-5.41c1.09,0,2.07,0.12,3.22,0.36
				c0,1.7-0.43,4.2-1.52,5.96c-0.79-0.24-1.64-0.24-2.49-0.3c-3.29,0-5.23,2.13-6.51,4.62v19.83c-0.85,0.18-2.01,0.24-3.1,0.24
				c-1.16,0-2.31-0.06-3.16-0.24V88.03c0-3.22-1.22-5.29-2.25-6.27C327.59,80.61,328.56,79.08,329.59,78.42z"/>
			<path class="st4" d="M359.47,108.89c-0.85,0.18-2.01,0.24-3.1,0.24c-1.16,0-2.31-0.06-3.16-0.24V86.63
				c0-2.19-0.67-3.16-2.68-3.16h-0.67c-0.18-0.79-0.3-1.46-0.3-2.25c0-0.73,0.12-1.46,0.3-2.31c1.52-0.18,2.98-0.24,3.83-0.24h0.85
				c3.04,0,4.93,2.07,4.93,5.41V108.89z M351.86,67.77c0.73-0.43,2.13-0.73,3.35-0.73c1.09,0,2.68,0.3,3.35,0.73
				c0.37,0.73,0.55,1.89,0.55,2.74s-0.18,1.95-0.55,2.68c-0.61,0.49-2.25,0.79-3.35,0.79c-1.22,0-2.68-0.3-3.35-0.79
				c-0.37-0.73-0.55-1.83-0.55-2.68C351.31,69.59,351.5,68.5,351.86,67.77z"/>
			<path class="st4" d="M368.04,102.26c2.56,1.4,5.72,2.68,8.52,2.68c3.35,0,5.41-1.52,5.48-3.77c0-1.7-1.34-3.22-3.83-4.14
				l-3.41-1.28c-4.26-1.58-7.73-4.08-7.73-8.7c0-5.6,4.62-9,10.71-9c3.29,0,7.42,1.03,9.98,2.19c0,1.58-0.73,3.65-1.89,4.62
				c-2.07-0.97-5.11-2.01-8.09-2.01c-2.68,0-4.38,1.46-4.38,3.53c0,1.76,1.22,2.74,3.77,3.71l3.65,1.4c4.5,1.7,7.73,4.44,7.73,9.13
				c0,5.66-4.81,9.06-11.62,9.06c-4.44,0-8.33-1.46-10.95-3.04C366.04,105.24,366.95,103.24,368.04,102.26z"/>
		</g>
	</g>
</g>
</svg>
