<?xml version="1.0" encoding="utf-8"?>
<!-- Generator: Adobe Illustrator 23.0.1, SVG Export Plug-In . SVG Version: 6.00 Build 0)  -->
<svg version="1.1" id="Layer_1" xmlns="http://www.w3.org/2000/svg" xmlns:xlink="http://www.w3.org/1999/xlink" x="0px" y="0px"
	 viewBox="0 0 384.48 370.01" style="enable-background:new 0 0 384.48 370.01;" xml:space="preserve">
<style type="text/css">
	.st0{fill:#20D0C2;}
	.st1{fill:#4B3756;}
	.st2{fill:#302338;}
	.st3{fill:#FEFEFE;}
</style>
<g>
	<path class="st0" d="M0,194.31c0,41.87,9.01,95.71,27.03,131.6c33.04,23.93,105.13,38.88,165.21,38.88
		c54.07,0,135.17-14.96,165.21-38.88c18.02-35.89,27.03-89.73,27.03-131.6c0-41.87-9.01-98.7-27.03-134.6
		c-33.04-20.94-111.14-35.89-165.21-35.89c-60.07,0-129.16,14.96-165.21,35.89C9.01,95.6,0,149.44,0,194.31"/>
	<g>
		<path class="st1" d="M145.09,287.34c0,0-14.52,38.61-15.12,72.56c22.05,8.77,46.11,10.1,71.31,10.1
			c21.49,0,41.78-5.61,61.07-12.09c-0.26-1.54-0.15-0.81-0.39-1.96c-4.54-21.46-6.81-33.88-6.81-33.88s3.02-19.96,1.7-29.55
			c-1.32-9.6-1.13-33.32,3.02-44.24c4.16-10.92,10.21-41.41,12.48-64.75c2.27-23.34,7.94-39.15,14.37-48.57
			c6.43-9.41-40.96-25.01-47-23.5c-6.05,1.5-18.42-4.46-18.42-4.46l-6.75-5.21l-7.25-23.27c0,0,3.43-4.4,6.24-10.88
			c0,0,3.84-0.54,5.25-2.7c1.42-2.17,4.82-15.44,4.25-19.76c-0.28-2.18-2.84-1.93-5.31-1.14c0.07-12.84-2.66-34.1-20.43-41.02
			c-26.09-10.16-39.8,8.6-39.8,8.6s-7.66,10.64-6.33,23.44c1.32,12.8,1.7,16.56,1.7,16.56s-5.57-3.25-6.04,2.4s6.77,17.16,7.34,18.1
			c0.57,0.94,3.83-0.61,3.83-0.61s2.7,8.09,4.21,9.98c1.51,1.88,2.32,2.26,2.32,2.26s5.77,20.19,5.77,22.26
			c0,2.07-21.55,16-26.09,17.13c-2.23,0.56-10.79,0.57-20.94,3.1c-10.15,2.54-4.51,12.52-4.51,12.52s3.73,26.07,8.08,36.05
			c4.35,9.98,15.69,36.52,24.38,47.25c8.69,10.73,4.64,31.38,4.64,31.38L145.09,287.34L145.09,287.34z"/>
		<g>
			<path class="st2" d="M194.71,369.9l0.07,0c-7.5-6.69-6.26-26.86-4.51-31.14c-4.55,8.86-4.01,20.73-0.31,28.25
				c0.41,0.84-0.38,1.87-1.25,2.59C190.7,369.73,192.7,369.83,194.71,369.9z"/>
			<path class="st2" d="M186.75,151.14c0,0-7.19-3.73-9.46-2.18c-2.27,1.55-0.75,3.83,2.28,4.92c3.03,1.09,4.21,1.95,7.33,3.77
				c1.86,1.08,5.15,0.81,7.01-0.28c3.11-1.83,3.26-2.47,6.28-3.57c3.02-1.1,4.53-3.38,2.26-4.93c-2.27-1.55-9.12,1.93-9.12,1.93
				C191.46,151.59,188.64,151.81,186.75,151.14z M178.12,107.82c-1.71,1.28-0.21,3.03,2.24,3.6c2.45,0.57,3.45,1.13,6.04,2.25
				c1.54,0.67,3.43,1.13,4.76,0.12c2.23-1.7,3.94-1.91,6.17-3.04c2.31-1.16,2.27-2.26,1.47-2.98c-0.82-0.73-2.49-1.04-6.33,1.52
				C187.81,112.46,180.35,106.14,178.12,107.82L178.12,107.82z M185.89,117.99c0,0-6.53-3.3-8.56-1.88
				c-2.03,1.42-0.64,3.47,2.1,4.43c2.75,0.96,3.82,1.73,6.66,3.34c1.69,0.96,4.66,0.68,6.33-0.32c2.8-1.68,2.92-2.26,5.64-3.28
				c2.72-1.02,4.06-3.09,1.99-4.47c-2.07-1.38-8.22,1.83-8.22,1.83C190.15,118.35,187.6,118.58,185.89,117.99L185.89,117.99z
				 M186.37,128.16c0,0-7.19-3.73-9.45-2.17c-2.26,1.55-0.75,3.83,2.28,4.92c3.02,1.09,4.21,1.96,7.33,3.78
				c1.86,1.08,5.16,0.81,7.01-0.29c3.12-1.83,3.26-2.46,6.28-3.56c3.02-1.1,4.53-3.38,2.26-4.93c-2.27-1.55-9.12,1.93-9.12,1.93
				C191.08,128.61,188.26,128.83,186.37,128.16L186.37,128.16z M186.94,140.2c0,0-7.19-3.73-9.45-2.17
				c-2.27,1.55-0.75,3.83,2.28,4.92c3.03,1.09,4.21,1.96,7.33,3.77c1.86,1.08,5.15,0.81,7.01-0.29c3.12-1.83,3.26-2.47,6.28-3.57
				c3.02-1.1,4.53-3.38,2.26-4.93c-2.27-1.55-9.12,1.93-9.12,1.93C191.64,140.65,188.83,140.87,186.94,140.2z M201.59,265.81
				c0,0-6.99-4.07-9.33-2.63c-2.34,1.44-0.95,3.79,2.02,5.03c8.78,3.65,9.54,5.14,10.55,5.01c0.94-0.12,2.08-1.63,10.06-4.09
				c3.08-0.95,4.7-3.16,2.51-4.81c-2.19-1.66-9.2,1.49-9.2,1.49C206.27,266.49,203.44,266.57,201.59,265.81L201.59,265.81z
				 M201.69,255.32c0,0-6.99-4.07-9.33-2.63c-2.35,1.44-0.95,3.79,2.02,5.03c2.96,1.24,4.1,2.16,7.13,4.12
				c1.8,1.17,5.11,1.05,7.02,0.05c3.21-1.67,3.38-2.31,6.46-3.26c3.08-0.95,4.7-3.16,2.51-4.81c-2.19-1.65-9.21,1.49-9.21,1.49
				C206.36,256,203.54,256.08,201.69,255.32L201.69,255.32z M201.99,243.72c0,0-7.74-2.49-9.7-0.59c-1.96,1.9-0.06,3.9,3.11,4.47
				c3.17,0.58,4.49,1.23,7.89,2.51c2.03,0.76,5.22-0.05,6.86-1.44c2.75-2.31,2.77-2.97,5.56-4.55c2.78-1.58,3.87-4.08,1.35-5.23
				c-2.51-1.15-8.64,3.4-8.64,3.4C206.7,243.39,203.97,244.07,201.99,243.72z M199.04,231.59c0,0-7.19-3.73-9.46-2.18
				c-2.27,1.56-0.75,3.83,2.28,4.92c3.03,1.09,4.21,1.95,7.33,3.77c1.86,1.09,5.15,0.81,7.01-0.28c3.12-1.83,3.26-2.47,6.28-3.57
				c3.02-1.1,4.53-3.38,2.26-4.93c-2.27-1.55-9.12,1.93-9.12,1.93C203.74,232.04,200.92,232.25,199.04,231.59L199.04,231.59z
				 M195.64,220.37c0,0-7.19-3.73-9.45-2.18c-2.27,1.55-0.75,3.83,2.28,4.92c3.03,1.09,4.21,1.96,7.33,3.77
				c1.86,1.08,5.15,0.81,7.01-0.29c3.12-1.83,3.26-2.47,6.28-3.57c3.02-1.1,4.53-3.38,2.26-4.93c-2.27-1.55-9.11,1.93-9.11,1.93
				C200.34,220.82,197.52,221.04,195.64,220.37L195.64,220.37z M193.08,208.33c0,0-7.19-3.73-9.45-2.17
				c-2.27,1.56-0.75,3.83,2.28,4.92c3.02,1.09,4.21,1.95,7.33,3.77c1.86,1.08,5.15,0.81,7.01-0.29c3.12-1.83,3.26-2.47,6.28-3.57
				c3.02-1.1,4.53-3.38,2.26-4.93c-2.27-1.55-9.12,1.93-9.12,1.93C197.79,208.78,194.97,208.99,193.08,208.33L193.08,208.33z
				 M191.29,196.29c0,0-7.19-3.73-9.46-2.18c-2.27,1.56-0.75,3.83,2.28,4.92c3.03,1.09,4.21,1.95,7.33,3.77
				c1.86,1.08,5.16,0.81,7.01-0.28c3.12-1.83,3.26-2.47,6.28-3.57c3.02-1.1,4.53-3.38,2.26-4.93c-2.27-1.55-9.12,1.93-9.12,1.93
				C195.99,196.74,193.18,196.96,191.29,196.29L191.29,196.29z M189.59,184.62c0,0-7.19-3.73-9.46-2.17
				c-2.26,1.55-0.75,3.83,2.28,4.92c3.03,1.09,4.21,1.95,7.33,3.77c1.86,1.08,5.16,0.81,7.01-0.28c3.12-1.83,3.26-2.47,6.28-3.57
				c3.02-1.1,4.53-3.38,2.26-4.93c-2.27-1.55-9.12,1.93-9.12,1.93C194.29,185.07,191.47,185.28,189.59,184.62L189.59,184.62z
				 M189.02,173.49c0,0-7.19-3.73-9.45-2.17c-2.27,1.55-0.75,3.83,2.28,4.92c3.03,1.09,4.21,1.95,7.33,3.77
				c1.86,1.08,5.15,0.8,7.01-0.29c3.12-1.83,3.26-2.47,6.28-3.57c3.02-1.1,4.53-3.38,2.26-4.93c-2.27-1.55-9.12,1.93-9.12,1.93
				C193.73,173.94,190.91,174.16,189.02,173.49z M187.22,162.36c0,0-7.19-3.73-9.45-2.18c-2.27,1.55-0.75,3.83,2.28,4.92
				c3.03,1.09,4.21,1.95,7.33,3.77c1.86,1.08,5.16,0.81,7.01-0.28c3.12-1.83,3.26-2.47,6.28-3.57c3.02-1.1,4.53-3.38,2.26-4.93
				c-2.27-1.55-9.12,1.93-9.12,1.93C191.93,162.81,189.11,163.03,187.22,162.36L187.22,162.36z"/>
			<path class="st2" d="M146.61,288.73l19.85,11.48l23.63,5.65c0,0,0-2.82-1.51-4.42c-1.51-1.6-19-9.22-19-9.22l-5.39-3.76
				l13.89,5.08l23.73,2.54c0,0,1.7-1.88,0.47-3.86c-1.23-1.97-18.24-5.08-18.24-5.08l-15.88-6.12l-1.8-2.26l15.97,5.37
				c0,0,14.93,1.97,16.35,1.41c1.42-0.56,0.19-3.86,0.19-3.86l-17.49-6.4l-12.81-4.85v-1.84l7.33,2.59l16.59,2.26
				c0,0,2.74-0.94,0.75-3.58c-1.98-2.64-17.82-6.68-17.82-6.68s-1.99-1.79-12.38-7.15c-2.22-1.14-4.68-1.99-7.18-2.61L146.61,288.73
				L146.61,288.73z"/>
		</g>
		<g>
			<path class="st1" d="M122.71,126.37c-10.4,2.68-22.36,8.05-30.87,19.34c0,0-30.24,17.69-43.48,41.03
				c-13.23,23.34-21.55,30.87-12.85,42.16c8.69,11.3,80.34,33.51,84.87,36.14c3.95,2.3,10.31,8.92,11.88,10.58l14.35,13.1
				l9.26-35.31c-9.23-2.29-19-1.53-19-1.53s-2.46,0.38-11.72-6.97c-9.26-7.34-55.58-33.32-55.58-33.32s9.26-4.33,18.34-9.79
				c9.07-5.46,38.93-27.02,38.93-27.02s5.88-10.81,11.55-25.68C144.06,134.24,122.71,126.37,122.71,126.37L122.71,126.37z"/>
			<path class="st1" d="M274.89,166.27c2.86-14.14,7.14-24.42,11.84-31.29c6.43-9.41,42.53-38.78,47.82-57.22
				c5.29-18.44,14.56-31.62,16.82-38.21c2.27-6.59,2.65-23.53-12.47-23.91c-15.12-0.38-99.62,31.06-99.62,31.06l-11.91,3.01
				c0,0-6.66,0.87-9.59,3.69l-0.71,0.83l-11.26,12.7L190.87,75c0,0-8.32,0.58-7.94,3.4c0.38,2.82,9.39,1.42,9.39,1.42l12.78-4.3
				l-11.75,5.86c0,0-13.15,2.01-13.53,3.04c-0.38,1.03-0.18,4.24,1.81,4.05s18.32-2.17,18.32-2.17l10.11-2.82l-12.1,6.12
				c0,0-19.57,2.17-20.04,4.24c-0.47,2.07,0,4.05,1.32,4.52c1.32,0.47,20.98-1.04,20.98-1.04l15.12-6.02l-12.77,7.59l-17.76,3.23
				c0,0-0.79,4.31,2.23,4.87c3.02,0.56,18.96-1.45,18.96-1.45l18.75-7.99c0,0,12.5-13.86,13.54-19.22c1.04-5.36,2.04-6.47,4.59-8.73
				c2.55-2.26,3.07-1.08,3.07-1.08l49.62-11.39c0,0-5.77,6.21-8.51,11.67c-2.74,5.46-29.68,13.93-34.97,25.97
				c-9.24,21.04-15.35,17.89-30.81,12.24c0,0-12.69,10.76-12.8,15c-0.55,21.63,10.47,79.35,11.51,79.98
				C221.26,202.73,254.68,215.07,274.89,166.27L274.89,166.27z"/>
		</g>
		<path class="st2" d="M222.67,50.79c-1.78,0.58-3.66,1.41-4.9,2.6l-0.71,0.83l-11.26,12.7l-13.72,7.42
			c-1.18,0.64-8.1,0.83-9.68,2.3c-4.47,4.18,8.99,3.49,10.38,3.02l12.31-4.14l-11.75,5.86c0,0-13.59,2.49-13.97,3.53
			c-0.38,1.03-0.48,3.64,1.5,3.45c1.99-0.19,15.07-0.5,15.07-0.5l13-4.07l-1.64-5.27c0,0,3.43-4.4,6.24-10.88
			c0,0,3.84-0.54,5.25-2.7C219.8,63.42,221.79,56.34,222.67,50.79L222.67,50.79z M209.01,84.02l-12.91,6.46
			c0,0-17.71,1.29-18.18,3.36c-0.47,2.07,0.59,3.08,1.91,3.55c1.32,0.47,18.88-0.31,18.88-0.31l13.01-4.34L209.01,84.02
			L209.01,84.02z M211.92,93.34l-9.33,5.55l-16.63,3.02c-0.72,0.13-1.24,0.75-1.23,1.48c0.01,1.32,0.38,3.23,2.33,3.59
			c3.02,0.56,18.24-2.24,18.24-2.24l9.34-2.88l-0.09-0.07L211.92,93.34z"/>
		<path class="st3" d="M169.08,101.03c7.01,0,12.7,5.66,12.7,12.64c0,6.98-5.69,12.64-12.7,12.64c-7.01,0-12.7-5.66-12.7-12.64
			C156.38,106.69,162.06,101.03,169.08,101.03z M169.08,89.83c6.61,0,12.59,2.67,16.92,6.98l0.01,0.01
			c4.33,4.31,7.01,10.27,7.01,16.85c0,6.58-2.68,12.53-7.01,16.85l-0.01,0.01c-4.33,4.31-10.31,6.98-16.92,6.98
			c-6.6,0-12.59-2.67-16.92-6.98l-0.01-0.01c-4.33-4.31-7.01-10.27-7.01-16.85c0-6.58,2.68-12.53,7.01-16.85l0.01-0.01
			C156.49,92.5,162.47,89.83,169.08,89.83z M183.4,99.41c-3.66-3.65-8.73-5.9-14.32-5.9c-5.59,0-10.66,2.26-14.32,5.9
			c-3.66,3.65-5.93,8.69-5.93,14.26c0,5.57,2.27,10.61,5.93,14.26c3.66,3.65,8.73,5.9,14.32,5.9c5.6,0,10.66-2.26,14.32-5.9
			c3.66-3.65,5.93-8.69,5.93-14.26C189.32,108.1,187.06,103.06,183.4,99.41z"/>
		<path class="st2" d="M124.14,160.48c-0.5,4.06,0.77,14.19-0.99,16.97c4.49,6.57,9.73,11.33,14.15,20.48
			C132.55,187.55,127.85,176.86,124.14,160.48z"/>
		<path class="st3" d="M217.06,278.4c6.73,0,12.19,5.43,12.19,12.14c0,6.7-5.46,12.14-12.19,12.14c-6.73,0-12.19-5.43-12.19-12.14
			C204.88,283.83,210.33,278.4,217.06,278.4z M217.06,267.66c6.34,0,12.08,2.56,16.24,6.7c4.32,4.31,6.74,10.09,6.74,16.18
			c0,6.31-2.57,12.03-6.73,16.17c-4.33,4.31-10.13,6.71-16.25,6.71c-6.34,0-12.08-2.56-16.24-6.7c-4.33-4.31-6.74-10.09-6.74-16.18
			c0-6.31,2.57-12.03,6.73-16.17C205.14,270.06,210.95,267.66,217.06,267.66z M230.81,276.85c-3.52-3.5-8.38-5.66-13.75-5.66
			c-5.37,0-10.23,2.17-13.75,5.66c-3.51,3.5-5.69,8.34-5.69,13.69c0,5.35,2.17,10.19,5.69,13.69c3.52,3.5,8.38,5.66,13.75,5.66
			c5.37,0,10.23-2.17,13.75-5.66c3.51-3.5,5.69-8.34,5.69-13.69C236.5,285.19,234.33,280.35,230.81,276.85z"/>
		<path class="st2" d="M295.6,57.13c2.64,0.14,14.26-2.39,21.41-7.33l7.03-4.86c-9.24,9.68-17.29,13.67-31.23,15.43
			C294.38,58.43,295.6,57.13,295.6,57.13z"/>
	</g>
</g>
</svg>
