<?xml version="1.0" encoding="utf-8"?>
<!-- Generator: Adobe Illustrator 23.0.1, SVG Export Plug-In . SVG Version: 6.00 Build 0)  -->
<svg version="1.1" id="Layer_1" xmlns="http://www.w3.org/2000/svg" xmlns:xlink="http://www.w3.org/1999/xlink" x="0px" y="0px"
	 viewBox="0 0 462.53 369.99" style="enable-background:new 0 0 462.53 369.99;" xml:space="preserve">
<style type="text/css">
	.st0{fill:#52385A;}
	.st1{fill:#F0B97D;}
	.st2{fill:#15BDB1;}
	.st3{fill:#F1F1F1;}
	.st4{fill:#20D0C2;}
	.st5{fill:#FED198;}
	.st6{fill:#666666;}
	.st7{fill:#FFFFFF;}
	.st8{fill:#ECF0F1;}
	.st9{fill:#377BB9;}
	.st10{fill:#FBB429;}
	.st11{fill:#333333;}
	.st12{fill:#C8CACC;}
</style>
<g>
	<path class="st0" d="M0,185c0,45.44,9.74,103.86,29.21,142.81C64.91,353.77,142.81,370,207.72,370
		c58.42,0,146.05-16.23,178.51-42.19c19.47-38.95,29.21-97.37,29.21-142.81S405.7,77.9,386.23,38.95C350.52,16.23,266.14,0,207.72,0
		C142.81,0,68.16,16.23,29.21,38.95C9.74,77.89,0,136.31,0,185"/>
</g>
<g>
	<path class="st1" d="M285.11,117.68h7.25h22h7.25l2.96,31.03l5.25,4.25l11.08,7.11l-37.54,89.42l-37.54-89.42l11.08-7.11l5.25-4.25
		L285.11,117.68L285.11,117.68z"/>
	<path class="st2" d="M273.59,155.09l-53.52,17.23c0,0-5.21,2.73-7.95,10.67c-15.94,17.23-67,73.52-67,87.81
		c0,16.94,43.58,57.73,43.58,57.73h20.69v14.62h93.98h93.98v-14.62h20.69c0,0,43.58-40.79,43.58-57.73
		c0-14.3-51.07-70.59-67.01-87.82c-2.75-7.93-7.95-10.66-7.95-10.66l-53.15-16.99L329,168.66l-25.63-1.25l-25.26,1.24L273.59,155.09
		L273.59,155.09z M209.38,253.77L209.38,253.77l6.63,26.68l-1.17,28.19l-5.46-6.3l-19.05-27.44L209.38,253.77L209.38,253.77z
		 M397.34,302.35L397.34,302.35l-5.46,5.96l-1.18-32.75l6.63-21.79l19.05,21.14L397.34,302.35z"/>
	<path class="st3" d="M273.07,155.26l-7.2,2.32l37.49,91.92l37.83-91.72l-7.69-2.46l-18.82,11.73h-22.57L273.07,155.26
		L273.07,155.26z"/>
	<path class="st4" d="M273.59,155.09l-11.54,3.72l-2.22,29.54c0,0,0.61,2.43,2.44,2.21l10.42,3.95c0,0,0.68,0.69,0.07,1.56
		l-8.92,6.16l30.81,58.55c2.88,0.17,5.79,0.25,8.71,0.25c2.93,0,5.83-0.08,8.72-0.25l30.81-58.55l-8.92-6.16
		c-0.61-0.87,0.07-1.56,0.07-1.56l10.42-3.95c1.83,0.22,2.44-2.21,2.44-2.21l-2.21-29.44l-11.19-3.58l-30.14,89.15L273.59,155.09
		L273.59,155.09z"/>
	<path class="st5" d="M345.88,54.58c0,2.88,1.04,5.71,0.97,8.47c9.78-1.83,5.06,27.47-0.48,31.5c-0.44,0.32-1.52-0.39-2.43-0.98
		c-1.92,10.78-18.3,39.58-28.72,51.7c-2.89,3.37-20.58,3.31-23.45,0.13c-10.67-11.85-27.03-40.99-28.96-51.83
		c-0.91,0.59-2,1.3-2.43,0.98c-5.53-4.03-10.26-33.33-0.48-31.5c-0.08-2.77,0.96-5.59,0.96-8.47c0.54-22.75,20.98-34.11,42.51-34.21
		C324.89,20.47,345.34,31.83,345.88,54.58L345.88,54.58z"/>
	<path class="st6" d="M332.77,25.42c3.08-0.36,14.23,3.08,15.56,14.97c1.34,11.89,0.7,22.85,0.7,22.85s-6.53,1.66-7.35,8.41
		c-0.82,6.75-0.24,6.75-0.24,6.75l-2.36-0.53l-1.68-11.57c-9.77-6.17,0.07-15.31-9.7-17.46c-26.38,18.96-49.66,15.72-60.16,6.8
		c0,0,2.45,9.33,0.56,12.66c-1.89,3.33-0.76,8.57-0.76,8.57l-2.45-0.12c0,0,0.44-13.74-5-13.68
		C239.19,28.59,304.71-14.22,332.77,25.42L332.77,25.42z"/>
	<g>
		<path class="st7" d="M281.9,144.28c0.77,0.05-8.93,11.01-8.93,11.01l8.26,28.3l22.14-16.54
			C291.18,161.07,283.92,153.33,281.9,144.28L281.9,144.28z"/>
		<path class="st7" d="M324.83,144.28c-0.77,0.05,8.93,11.01,8.93,11.01l-8.26,28.3l-22.14-16.54
			C315.54,161.07,322.81,153.33,324.83,144.28L324.83,144.28z"/>
	</g>
	<path class="st8" d="M207.47,312.06c12.48,0,22.6,6.33,22.6,14.15c0,7.81-10.12,14.15-22.6,14.15s-22.6-6.34-22.6-14.15
		C184.88,318.39,194.99,312.06,207.47,312.06z M207.47,315.8L207.47,315.8c-9.71,0-17.59,4.66-17.59,10.41
		c0,5.75,7.87,10.41,17.59,10.41s17.59-4.66,17.59-10.41C225.06,320.46,217.19,315.8,207.47,315.8z"/>
	<path class="st9" d="M207.47,336.62c9.69,0,17.59-4.68,17.59-10.41c0-5.73-7.9-10.41-17.59-10.41s-17.59,4.68-17.59,10.41
		C189.89,331.94,197.79,336.62,207.47,336.62z"/>
	<path class="st10" d="M200.32,332.15v11.4c0,1.41-1.14,2.57-2.55,2.57h-4.49c-1.4,0-2.55-1.16-2.55-2.57v-17.64
		c0-0.27,0.04-0.53,0.12-0.77v-3.88c0-3.3,2.68-6,5.95-6h36.8c3.27,0,5.95,2.7,5.95,6v3.88c0.08,0.25,0.12,0.51,0.12,0.78v17.64
		c0,1.41-1.15,2.57-2.55,2.57h-4.49c-1.4,0-2.55-1.16-2.55-2.57v-11.4h-3.52v11.4c0,1.41-1.14,2.57-2.55,2.57h-4.49
		c-1.4,0-2.55-1.16-2.55-2.57v-11.4h-3.52v11.4c0,1.41-1.15,2.57-2.55,2.57h-4.49c-1.4,0-2.55-1.16-2.55-2.57v-11.4L200.32,332.15
		L200.32,332.15z"/>
	<path class="st8" d="M399.26,312.06c-12.48,0-22.6,6.33-22.6,14.15c0,7.81,10.12,14.15,22.6,14.15c12.48,0,22.6-6.34,22.6-14.15
		C421.86,318.39,411.74,312.06,399.26,312.06z M399.26,315.8L399.26,315.8c9.71,0,17.59,4.66,17.59,10.41
		c0,5.75-7.87,10.41-17.59,10.41c-9.71,0-17.58-4.66-17.58-10.41C381.67,320.46,389.54,315.8,399.26,315.8z"/>
	<path class="st11" d="M399.26,336.62c9.69,0,17.59-4.68,17.59-10.41c0-5.73-7.9-10.41-17.59-10.41c-9.69,0-17.59,4.68-17.59,10.41
		C381.67,331.94,389.57,336.62,399.26,336.62z"/>
	<path class="st10" d="M406.42,332.15v11.4c0,1.41,1.14,2.57,2.55,2.57h4.49c1.4,0,2.55-1.16,2.55-2.57v-17.64
		c0-0.27-0.04-0.53-0.12-0.77v-3.88c0-3.3-2.68-6-5.95-6h-36.8c-3.27,0-5.95,2.7-5.95,6v3.88c-0.08,0.25-0.12,0.51-0.12,0.78v17.64
		c0,1.41,1.14,2.57,2.55,2.57h4.5c1.4,0,2.55-1.16,2.55-2.57v-11.4h3.52v11.4c0,1.41,1.15,2.57,2.55,2.57h4.49
		c1.4,0,2.55-1.16,2.55-2.57v-11.4h3.52v11.4c0,1.41,1.15,2.57,2.55,2.57h4.49c1.4,0,2.55-1.16,2.55-2.57v-11.4L406.42,332.15
		L406.42,332.15z"/>
	<path class="st7" d="M202.56,202.11h201.61c6.44,0,11.71,5.31,11.71,11.8v112.38c0,6.49-5.27,11.81-11.71,11.81H202.56
		c-6.44,0-11.71-5.31-11.71-11.81V213.92C190.85,207.42,196.12,202.11,202.56,202.11z"/>
	<path class="st12" d="M195.29,343.89h216.14c2.44,0,4.44,2.02,4.44,4.48v8.64c0,2.47-2,4.48-4.44,4.48H195.29
		c-2.44,0-4.44-2.01-4.44-4.48v-8.64C190.85,345.9,192.85,343.89,195.29,343.89z"/>
	<g>
		<path class="st8" d="M223.9,335.39h19.1v13.14h-19.1V335.39z M363.72,335.39L363.72,335.39h19.1v13.14h-19.1V335.39z"/>
		<path class="st8" d="M282.17,253.09h42.39c0.57,0,1.03,0.47,1.03,1.04v9.68c0,0.57-0.46,1.04-1.03,1.04h-42.39
			c-0.57,0-1.03-0.47-1.03-1.04v-9.68C281.14,253.56,281.6,253.09,282.17,253.09z"/>
	</g>
</g>
</svg>
