<?xml version="1.0" encoding="utf-8"?>
<!-- Generator: Adobe Illustrator 23.0.1, SVG Export Plug-In . SVG Version: 6.00 Build 0)  -->
<svg version="1.1" id="Calque_1" xmlns="http://www.w3.org/2000/svg" xmlns:xlink="http://www.w3.org/1999/xlink" x="0px" y="0px"
	 viewBox="0 0 459.8 454.7" style="enable-background:new 0 0 459.8 454.7;" xml:space="preserve">
<style type="text/css">
	.st0{fill:#939598;}
	.st1{fill:none;stroke:#000000;}
	.st2{fill:none;stroke:#000000;stroke-linecap:round;stroke-linejoin:round;}
	.st3{fill:#FFFFFF;}
	.st4{fill:#73627D;}
	.st5{fill:none;stroke:#000000;stroke-width:2;}
	.st6{fill:#4B3659;}
	.st7{fill:none;stroke:#000000;stroke-width:0.5;}
	.st8{font-family:'Signika-Regular';}
	.st9{font-size:12px;}
	.st10{fill:none;stroke:#FFFFFF;stroke-width:1.5;}
	.st11{fill:none;stroke:#000000;stroke-dasharray:5.017,5.017;}
	.st12{fill:none;stroke:#000000;stroke-dasharray:4.978,4.978;}
	.st13{fill:none;stroke:#000000;stroke-dasharray:4.868,4.868;}
	.st14{fill:none;stroke:#FFFFFF;}
	.st15{fill:none;stroke:#000000;stroke-dasharray:4.825,4.825;}
	.st16{fill:none;stroke:#000000;stroke-dasharray:5.109,5.109;}
</style>
<g>
	<path class="st0" d="M214.9,379.9h-5c0,0-5,0-10.3,2l-36.3,13.4v2.5c0,0,0,2-2,2h-4.8c0,0-5.7,0-5.7-4.4c0,0-3.7,0.4-1.8-2
		c0,0,1.8-2.4,7.1-4.5l47.4-18.6c0,0,3.5-1.8,9.2-1.6h5.5h5.5c5.7-0.3,9.2,1.6,9.2,1.6l48.1,18.9c0,0,4.6,1.8,6.5,4.2
		c1.8,2.4,0,4.4,0,4.4s-1.8,2-6.8,2h-7.5v-2.3c0,0,0-2.3-5.3-4.2l-33.5-12.3c0,0-2.8-1-5.8-1h-6.8"/>
	<path class="st1" d="M214.9,379.9h-5c0,0-5,0-10.3,2l-36.3,13.4v2.5c0,0,0,2-2,2h-4.8c0,0-5.7,0-5.7-4.4c0,0-3.7,0.4-1.8-2
		c0,0,1.8-2.4,7.1-4.5l47.4-18.6c0,0,3.5-1.8,9.2-1.6h5.5h5.5c5.7-0.3,9.2,1.6,9.2,1.6l48.1,18.9c0,0,4.6,1.8,6.5,4.2
		c1.8,2.4,0,4.4,0,4.4s-1.8,2-6.8,2h-7.5v-2.3c0,0,0-2.3-5.3-4.2l-33.5-12.3c0,0-2.8-1-5.8-1h-6.8"/>
	<path class="st1" d="M159.4,402.4c0,2.8,1.1,11.9-3.2,11.9s-3.2-9.1-3.2-11.9s3.2-2.6,3.2-2.6S159.4,399.6,159.4,402.4z"/>
	<path class="st1" d="M277.3,402.4c0,2.8-1.1,11.9,3.2,11.9s3.2-9.1,3.2-11.9s-3.2-2.6-3.2-2.6S277.3,399.6,277.3,402.4z"/>
	<path class="st0" d="M222.3,400.6c0.3,0,3.6-0.1,3.5-3.8c-0.1-3.7-2-4.4-2-4.4s-1.9-0.7-1.9-6.4c0,0-0.1,2.8,0-5.7
		c0.1-7.3-2.7-7.6-3.5-7.5c-0.9,0-3.6,0.4-3.4,7.5c0.1,8.5,0.1,9.9,0.1,9.9s-0.1,1.4-2.1,4c0,0-1.9-1.1-2,2.5
		c-0.1,3.7,3.3,3.8,3.5,3.8h3.9L222.3,400.6L222.3,400.6z"/>
	<path class="st1" d="M222.3,400.6c0.3,0,3.6-0.1,3.5-3.8c-0.1-3.7-2-4.4-2-4.4s-1.9-0.7-1.9-6.4c0,0-0.1,2.8,0-5.7
		c0.1-7.3-2.7-7.6-3.5-7.5c-0.9,0-3.6,0.4-3.4,7.5c0.1,8.5,0.1,9.9,0.1,9.9s-0.1,1.4-2.1,4c0,0-1.9-1.1-2,2.5
		c-0.1,3.7,3.3,3.8,3.5,3.8h3.9L222.3,400.6L222.3,400.6z"/>
	<path class="st1" d="M215.7,400.8c-0.3,0.4-0.5,0.9-0.5,1.6c0,2.8-1.1,11.9,3.2,11.9s3.2-9.1,3.2-11.9c0-0.6-0.2-1.1-0.4-1.5"/>
	<path class="st0" d="M211.7,322.9v45.7h14.4l0.1-45.7C226.1,322.9,217.9,324.7,211.7,322.9"/>
	<path class="st1" d="M211.7,322.9v45.7h14.4l0.1-45.7C226.1,322.9,217.9,324.7,211.7,322.9z"/>
	<path d="M226.1,322c0,0-8.2,2.3-14.5,0C217.9,319.7,226.1,322,226.1,322"/>
	<path class="st2" d="M226.1,322c0,0-8.2,2.3-14.5,0C217.9,319.7,226.1,322,226.1,322z"/>
</g>
<rect x="214.9" y="311.2" class="st3" width="7.9" height="11.2"/>
<rect x="214.9" y="311.2" class="st1" width="7.9" height="11.2"/>
<g>
	<path class="st1" d="M178.9,297.9c0,0-34.2-13.4-19-68.1l4-15.6l-3-14.8c0,0-16.6,34.6-14.9,66.1s27.5,40.4,27.5,40.4
		S181.5,307.3,178.9,297.9z"/>
	<path class="st3" d="M161.4,229.5c-0.4,4.3-2,11.9-7.8,22.9c0,0-3,7.9,6.4,9.6c0,0,7.6,1.7,11.3-11.3c0,0,10.8-18.1,2.3-52.2
		c0,0-7.9-27.8-6.5-32.3c0,0,0.3-9.9-12.5-5.7c0,0-7.4,5.1-0.6,18.1c0,0,7.4,22.1,7.6,33.7c0.1,2.7,0.1,4.8,0.1,6.5
		C161.7,224.6,161.4,229.5,161.4,229.5"/>
	<path class="st1" d="M161.4,229.5c-0.4,4.3-2,11.9-7.8,22.9c0,0-3,7.9,6.4,9.6c0,0,7.6,1.7,11.3-11.3c0,0,10.8-18.1,2.3-52.2
		c0,0-7.9-27.8-6.5-32.3c0,0,0.3-9.9-12.5-5.7c0,0-7.4,5.1-0.6,18.1c0,0,7.4,22.1,7.6,33.7c0.1,2.7,0.1,4.8,0.1,6.5
		C161.7,224.6,161.4,229.5,161.4,229.5z"/>
	<path class="st3" d="M267.6,317.2"/>
</g>
<path class="st1" d="M267.6,317.2"/>
<g>
	<path class="st3" d="M179.2,146.9l-0.6-6.5c0,0-12.2-48.2,25.8-46.2l3.7,8.8c0,0,10.2,1.1,10.2,13c0,0-1.7,4.8-1.6,5.8
		s0.8,1.6,4.5,4.1c2.4,1.6,1.1,3.5,0,3.7s-1.6,2.7-1.6,2.7s1.6,1.6,1,2.1c-0.6,0.6-1.1,0.9-1.1,0.9s1.1,2.1,0.1,2.4
		s-1.6,1.8-1.6,1.8s-0.1,4.8-4.4,4.8s-10.5-1.1-12.8-0.4c-2.3,0.7-3.7,0.1-3.5,3s0.3,14.9,1.6,16.9c1.3,2-10.9-9.2-10.9-9.2
		L179.2,146.9z"/>
	<path class="st1" d="M179.2,146.9l-0.6-6.5c0,0-12.2-48.2,25.8-46.2l3.7,8.8c0,0,10.2,1.1,10.2,13c0,0-1.7,4.8-1.6,5.8
		s0.8,1.6,4.5,4.1c2.4,1.6,1.1,3.5,0,3.7s-1.6,2.7-1.6,2.7s1.6,1.6,1,2.1c-0.6,0.6-1.1,0.9-1.1,0.9s1.1,2.1,0.1,2.4
		s-1.6,1.8-1.6,1.8s-0.1,4.8-4.4,4.8s-10.5-1.1-12.8-0.4c-2.3,0.7-3.7,0.1-3.5,3s0.3,14.9,1.6,16.9c1.3,2-10.9-9.2-10.9-9.2
		L179.2,146.9z"/>
	<path d="M132.7,148.6c0,0,6.2-1.5,6.5-11.9c0.3-10.4-3.4-31.5,6.8-34s17.9,1.1,17.9,1.1s2.1-0.2,3.1-1.1
		c0.9-0.9,3.7-21.5,19.6-16.2c0,0,22.5-6.2,28.6,4.8c10.4,18.8,4.3,22.7,6.1,25.1c0,0-2.8-0.1-3.7-1.6c-1.4-2.3-1.5-8.2-10.1-9.6
		c0,0-2,4.5-11.6,6.5c0,0,1.1,11.1-4.5,11.9s-4.2-6.8-8.2-6.5c-4,0.3-7.1,6.5,0.3,11.1c0,0-1.4,9.4-4.3,12.5c0,0-13.9-4.8-13.3-22.1
		l-0.9-0.6C165,117.9,164,144.3,132.7,148.6"/>
	<path class="st4" d="M167.9,118.5c0,0,2.3-15.6,0-16.7s-3.8,2-3.5,2.8s0,13.9,0,13.9S166.7,121.9,167.9,118.5"/>
	<path class="st0" d="M232.8,238.4c0,0-2,0-2,2v3.8c0,0,0,2,2,2h212.9c0,0,2,0,2-2v-3.8c0,0,0-2-2-2H232.8z"/>
	<path class="st1" d="M232.8,238.4c0,0-2,0-2,2v3.8c0,0,0,2,2,2h212.9c0,0,2,0,2-2v-3.8c0,0,0-2-2-2H232.8z"/>
</g>
<rect x="401.1" y="247.1" class="st0" width="7.8" height="166.7"/>
<rect x="401.1" y="247.1" class="st1" width="7.8" height="166.7"/>
<line class="st5" x1="0" y1="414.3" x2="459.8" y2="414.3"/>
<polyline class="st1" points="250.6,237.9 250.6,232.8 309,225.9 309,238.4 "/>
<polyline class="st1" points="304.2,415.3 304.2,411.1 375.2,399.6 375.2,415.3 "/>
<g>
	<path d="M168.1,259.5c0,0,41.8-4.1,48.5-2.6c6.7,1.5,53.8,1.4,82.6,18.4c0,0,9.3,2.3,10.1,19.6c0,0,19.3,90.4,15.9,94.4l-17.3,7.6
		c0,0-27.4-66.3-27.4-94.1c0,0-2.4-4.2-8.3-4.5c-6-0.3-77.9-1.7-77.9-1.7S166.5,297.4,168.1,259.5"/>
	<path class="st4" d="M218.1,179.3c3.4,5.3,5.7,10.3,1.5,19.9c0,0-5.1,13.1-5.1,14.9s-2.1,36.4,2.1,42.4l-48.7,3
		c0,0,16.9-31,3.3-67.8l-4.8-22.4c0,0-1.6-9.6,12.5-22.4c0,0,5.3,0,14.6,8.8c0,0,7.4,10.8,18.4,18.7"/>
	<path class="st3" d="M179.9,191.9c0,0,8,44.5,15.3,48.8c7.2,4.2,40.7-4.2,50-3.3c6.9,0.7,8-7.6,13.5-8.1c3.6-0.3,8.5-0.7,9.9-0.6
		c1.4,0.1,10,1,10.1-1c0,0-0.4-3.3-18.4-4.9c-6.4-0.6-11.1,5.6-16,5.7c-15.8,0.1-27.1-3.3-37-2l-7.8-33.9L179.9,191.9z"/>
	<path class="st1" d="M179.9,191.9c0,0,8,44.5,15.3,48.8c7.2,4.2,40.7-4.2,50-3.3c6.9,0.7,8-7.6,13.5-8.1c3.6-0.3,8.5-0.7,9.9-0.6
		c1.4,0.1,10,1,10.1-1c0,0-0.4-3.3-18.4-4.9c-6.4-0.6-11.1,5.6-16,5.7c-15.8,0.1-27.1-3.3-37-2l-7.8-33.9L179.9,191.9z"/>
	<path class="st6" d="M178.4,198.7c0,0-4.6-32-2.8-34.6c0,0,3.4-7.1,9.9-7.1s10.5,4.5,12.8,7.6c2.3,3.1,4.2,30.9,4.2,30.9
		L178.4,198.7z"/>
	<path class="st4" d="M307.6,396.9c0,0-0.6,8.3,2,9.2c0,0,15-3.2,18.4-2.7c3.4,0.6,8.9,4.4,32.9-3.2c0,0,1.1-6.7-5.7-5
		c-6.8,1.7-26.4-7.9-29.6-6.5C322.4,390.1,307.6,396.9,307.6,396.9"/>
	<path class="st1" d="M307.6,396.9c0,0-0.6,8.3,2,9.2c0,0,15-3.2,18.4-2.7c3.4,0.6,8.9,4.4,32.9-3.2c0,0,1.1-6.7-5.7-5
		c-6.8,1.7-26.4-7.9-29.6-6.5C322.4,390.1,307.6,396.9,307.6,396.9z"/>
	<path class="st0" d="M310.5,406.1l1,3.4l14.9-2.5l-1-3.3C325.3,403.7,309.5,406.1,310.5,406.1"/>
	<path class="st1" d="M310.5,406.1l1,3.4l14.9-2.5l-1-3.3C325.3,403.7,309.5,406.1,310.5,406.1z"/>
</g>
<rect x="354.9" y="168.2" transform="matrix(0.6293 -0.7771 0.7771 0.6293 -14.1791 346.772)" class="st1" width="3.1" height="40"/>
<g>
	<path class="st3" d="M338.4,177.7c2.4,0,4.4-2,4.4-4.4c0-2.4-2-4.4-4.4-4.4c-2.4,0-4.4,2-4.4,4.4C334,175.7,336,177.7,338.4,177.7"
		/>
	<path class="st1" d="M338.4,177.7c2.4,0,4.4-2,4.4-4.4c0-2.4-2-4.4-4.4-4.4c-2.4,0-4.4,2-4.4,4.4C334,175.7,336,177.7,338.4,177.7z
		"/>
</g>
<rect x="372.5" y="183.8" transform="matrix(0.788 -0.6157 0.6157 0.788 -30.0834 283.3978)" class="st1" width="47.9" height="3.1"/>
<rect x="414.1" y="174" class="st1" width="5.8" height="37.4"/>
<g>
	<path class="st1" d="M415.6,211.5c0,0-4,0-4,4V229h10.6v-13.5c0,0,0-4-4-4H415.6z"/>
	<path class="st1" d="M410.9,229c0,0-3,0-3,3v6.3h18.2V232c0,0,0-3-3-3H410.9z"/>
	<path class="st3" d="M417,174.7c2.4,0,4.4-2,4.4-4.4c0-2.4-2-4.4-4.4-4.4c-2.4,0-4.4,2-4.4,4.4C412.6,172.7,414.5,174.7,417,174.7"
		/>
	<path class="st1" d="M417,174.7c2.4,0,4.4-2,4.4-4.4c0-2.4-2-4.4-4.4-4.4c-2.4,0-4.4,2-4.4,4.4C412.6,172.7,414.5,174.7,417,174.7z
		"/>
	<path class="st3" d="M374.4,206.4c2.4,0,4.4-2,4.4-4.4c0-2.4-2-4.4-4.4-4.4c-2.4,0-4.4,2-4.4,4.4S372,206.4,374.4,206.4"/>
	<path class="st1" d="M374.4,206.4c2.4,0,4.4-2,4.4-4.4c0-2.4-2-4.4-4.4-4.4c-2.4,0-4.4,2-4.4,4.4S372,206.4,374.4,206.4z"/>
	<path class="st0" d="M338.1,120.4c-0.6,2.3-25.4,102-26,104.2c-0.6,2.2,7.1,4.4,7.8,1.9c0.7-2.4,25.4-101.7,26-104.2
		C346.5,119.8,338.7,118.2,338.1,120.4"/>
	<path class="st1" d="M338.1,120.4c-0.6,2.3-25.4,102-26,104.2c-0.6,2.2,7.1,4.4,7.8,1.9c0.7-2.4,25.4-101.7,26-104.2
		C346.5,119.8,338.7,118.2,338.1,120.4z"/>
</g>
<rect x="309.1" y="174" transform="matrix(0.2419 -0.9703 0.9703 0.2419 82.6033 456.5554)" width="48.7" height="2.8"/>
<g>
	<path class="st7" d="M219.5,135.1c0,0-2.2-0.3-2.4-0.8"/>
</g>
<text transform="matrix(1 0 0 1 176.7977 360.5067)" class="st8 st9"> </text>
<g>
	<path class="st3" d="M234.1,317.1"/>
</g>
<path class="st1" d="M234.1,317.1"/>
<g>
	<path class="st3" d="M201,296.2h-8.5c0,0-3.2-0.1-7.1-0.1c-6.3,0-14.2,2.3-11.9,14.6c0,0,0.9,5.1,8.9,6.5h71.8c0,0,2.8,0,6.7,0
		c6.3,0,14.2-2.3,11.9-14.6c0,0-0.9-4.4-9.6-5.7C261,296.9,219.3,296.2,201,296.2"/>
	<path class="st1" d="M201,296.2h-8.5c0,0-3.2-0.1-7.1-0.1c-6.3,0-14.2,2.3-11.9,14.6c0,0,0.9,5.1,8.9,6.5h71.8c0,0,2.8,0,6.7,0
		c6.3,0,14.2-2.3,11.9-14.6c0,0-0.9-4.4-9.6-5.7C261,296.9,219.3,296.2,201,296.2z"/>
	<ellipse class="st1" cx="337.5" cy="69.6" rx="8.7" ry="5.1"/>
	<path class="st0" d="M296.3,68.2h82c0-9.7-18.2-17.6-40.8-17.6s-40.8,7.9-40.8,17.6"/>
	<path class="st1" d="M296.3,68.2h82c0-9.7-18.2-17.6-40.8-17.6s-40.8,7.9-40.8,17.6"/>
</g>
<line class="st1" x1="337.5" y1="50.2" x2="337.5" y2="0"/>
<polyline class="st10" points="188.8,177.9 188.8,220.2 225.7,220.2 "/>
<polyline class="st10" points="227.3,281.7 291.5,281.7 291.5,322.6 "/>
<line class="st11" x1="241.6" y1="238.1" x2="76.1" y2="238.1"/>
<line class="st12" x1="448.1" y1="250.6" x2="448.1" y2="454.7"/>
<line class="st12" x1="230.8" y1="250.6" x2="230.8" y2="454.7"/>
<line class="st13" x1="173.6" y1="297.4" x2="76.1" y2="297.4"/>
<g>
	<path class="st3" d="M76.6,242.2l-2.6,7c0,0,2.6-1.6,5.1,0L76.6,242.2"/>
</g>
<g>
	<path class="st3" d="M112.9,301.6l-2.6,7c0,0,2.6-1.5,5.1,0L112.9,301.6"/>
</g>
<g>
	<path class="st3" d="M444.1,433.3l-7-2.5c0,0,1.5,2.5,0,5.1L444.1,433.3"/>
	<path class="st3" d="M234.8,433.3l7,2.5c0,0-1.6-2.5,0-5.1L234.8,433.3"/>
</g>
<line class="st14" x1="331.1" y1="111.3" x2="233.4" y2="111.3"/>
<g>
	<path class="st3" d="M336.6,111.3l-7-2.6c0,0,1.5,2.6,0,5.1L336.6,111.3"/>
	<path class="st3" d="M228,111.3l7,2.6c0,0-1.6-2.6,0-5.1L228,111.3"/>
</g>
<line class="st15" x1="312.8" y1="196.8" x2="224.5" y2="129.5"/>
<g>
	<path class="st3" d="M76.6,409.8l2.6-7c0,0-2.6,1.5-5.1,0L76.6,409.8"/>
</g>
<line class="st14" x1="112.9" y1="366.3" x2="112.9" y2="404.2"/>
<g>
	<path class="st3" d="M112.9,409.6l2.6-7c0,0-2.6,1.5-5.1,0L112.9,409.6"/>
</g>
<line class="st16" x1="219.8" y1="120.1" x2="329.6" y2="120.1"/>
<path class="st1" d="M332.1,120.1h2.5 M214.9,122.2l-2.8-2.2h2.6"/>
</svg>
