<?xml version="1.0" encoding="utf-8"?>
<!-- Generator: Adobe Illustrator 23.0.1, SVG Export Plug-In . SVG Version: 6.00 Build 0)  -->
<svg version="1.1" id="Calque_1" xmlns="http://www.w3.org/2000/svg" xmlns:xlink="http://www.w3.org/1999/xlink" x="0px" y="0px"
	 viewBox="0 0 459.84 454.71" style="enable-background:new 0 0 459.84 454.71;" xml:space="preserve">
<style type="text/css">
	.st0{fill:#939598;}
	.st1{fill:none;stroke:#000000;}
	.st2{fill:none;stroke:#000000;stroke-linecap:round;stroke-linejoin:round;}
	.st3{fill:#FFFFFF;}
	.st4{fill:#73627D;}
	.st5{fill:none;stroke:#000000;stroke-width:2;}
	.st6{fill:#4B3659;}
	.st7{fill:none;stroke:#000000;stroke-width:0.5;}
	.st8{font-family:'Signika-Regular';}
	.st9{font-size:12px;}
	.st10{fill:none;stroke:#FFFFFF;stroke-width:1.5;}
	.st11{fill:none;stroke:#000000;stroke-dasharray:5.017,5.017;}
	.st12{fill:none;stroke:#000000;stroke-dasharray:4.978,4.978;}
	.st13{fill:none;stroke:#000000;stroke-dasharray:4.868,4.868;}
	.st14{fill:none;stroke:#FFFFFF;}
	.st15{fill:none;stroke:#000000;stroke-dasharray:4.825,4.825;}
	.st16{fill:none;stroke:#000000;stroke-dasharray:5.109,5.109;}
</style>
<g>
	<path class="st0" d="M214.93,379.88h-4.96c0,0-4.96,0-10.28,1.95l-36.35,13.35v2.54c0,0,0,2-2,2h-4.8c0,0-5.67,0-5.67-4.39
		c0,0-3.68,0.42-1.84-1.98c0,0,1.84-2.41,7.12-4.48l47.45-18.62c0,0,3.54-1.84,9.21-1.56h5.53h5.53c5.67-0.28,9.21,1.56,9.21,1.56
		l48.07,18.87c0,0,4.65,1.83,6.5,4.24c1.84,2.41,0,4.39,0,4.39s-1.84,1.98-6.84,1.98h-7.47v-2.27c0,0,0-2.27-5.32-4.22l-33.53-12.32
		c0,0-2.82-1.03-5.82-1.03h-6.81"/>
	<path class="st1" d="M214.93,379.88h-4.96c0,0-4.96,0-10.28,1.95l-36.35,13.35v2.54c0,0,0,2-2,2h-4.8c0,0-5.67,0-5.67-4.39
		c0,0-3.68,0.42-1.84-1.98c0,0,1.84-2.41,7.12-4.48l47.45-18.62c0,0,3.54-1.84,9.21-1.56h5.53h5.53c5.67-0.28,9.21,1.56,9.21,1.56
		l48.07,18.87c0,0,4.65,1.83,6.5,4.24c1.84,2.41,0,4.39,0,4.39s-1.84,1.98-6.84,1.98h-7.47v-2.27c0,0,0-2.27-5.32-4.22l-33.53-12.32
		c0,0-2.82-1.03-5.82-1.03h-6.81"/>
	<path class="st1" d="M159.37,402.41c0,2.83,1.13,11.91-3.22,11.91c-4.35,0-3.22-9.07-3.22-11.91s3.22-2.62,3.22-2.62
		S159.37,399.58,159.37,402.41z"/>
	<path class="st1" d="M277.29,402.41c0,2.83-1.13,11.91,3.22,11.91c4.35,0,3.22-9.07,3.22-11.91s-3.22-2.62-3.22-2.62
		S277.29,399.58,277.29,402.41z"/>
	<path class="st0" d="M222.3,400.64c0.28,0,3.61-0.07,3.54-3.76c-0.07-3.68-2.02-4.39-2.02-4.39s-1.95-0.71-1.95-6.38
		c0,0-0.14,2.83,0-5.67c0.12-7.31-2.69-7.6-3.48-7.54c-0.87-0.04-3.55,0.4-3.43,7.54c0.14,8.5,0.07,9.92,0.07,9.92
		s-0.07,1.42-2.05,3.97c0,0-1.91-1.13-1.98,2.55c-0.07,3.68,3.26,3.76,3.54,3.76h3.88H222.3z"/>
	<path class="st1" d="M222.3,400.64c0.28,0,3.61-0.07,3.54-3.76c-0.07-3.68-2.02-4.39-2.02-4.39s-1.95-0.71-1.95-6.38
		c0,0-0.14,2.83,0-5.67c0.12-7.31-2.69-7.6-3.48-7.54c-0.87-0.04-3.55,0.4-3.43,7.54c0.14,8.5,0.07,9.92,0.07,9.92
		s-0.07,1.42-2.05,3.97c0,0-1.91-1.13-1.98,2.55c-0.07,3.68,3.26,3.76,3.54,3.76h3.88H222.3z"/>
	<path class="st1" d="M215.69,400.82c-0.3,0.38-0.49,0.89-0.49,1.59c0,2.83-1.13,11.91,3.22,11.91c4.35,0,3.22-9.07,3.22-11.91
		c0-0.62-0.16-1.1-0.4-1.46"/>
	<path class="st0" d="M211.69,322.9v45.71h14.36l0.05-45.71C226.1,322.9,217.93,324.73,211.69,322.9"/>
	<path class="st1" d="M211.69,322.9v45.71h14.36l0.05-45.71C226.1,322.9,217.93,324.73,211.69,322.9z"/>
	<path d="M226.13,322.05c0,0-8.22,2.33-14.46,0C217.91,319.72,226.13,322.05,226.13,322.05"/>
	<path class="st2" d="M226.13,322.05c0,0-8.22,2.33-14.46,0C217.91,319.72,226.13,322.05,226.13,322.05z"/>
</g>
<rect x="214.93" y="311.21" class="st3" width="7.94" height="11.19"/>
<rect x="214.93" y="311.21" class="st1" width="7.94" height="11.19"/>
<g>
	<path class="st1" d="M178.93,297.91c0,0-34.17-13.42-18.99-68.07l4.02-15.62L161,199.44c0,0-16.64,34.64-14.88,66.06
		c1.76,31.42,27.49,40.39,27.49,40.39S181.54,307.31,178.93,297.91z"/>
	<path class="st3" d="M161.39,229.47c-0.37,4.27-1.99,11.89-7.83,22.92c0,0-2.98,7.87,6.38,9.57c0,0,7.65,1.71,11.34-11.34
		c0,0,10.77-18.14,2.27-52.16c0,0-7.94-27.78-6.52-32.32c0,0,0.28-9.92-12.47-5.67c0,0-7.37,5.1-0.57,18.14
		c0,0,7.37,22.11,7.65,33.73c0.06,2.67,0.08,4.81,0.08,6.51C161.69,224.55,161.39,229.47,161.39,229.47"/>
	<path class="st1" d="M161.39,229.47c-0.37,4.27-1.99,11.89-7.83,22.92c0,0-2.98,7.87,6.38,9.57c0,0,7.65,1.71,11.34-11.34
		c0,0,10.77-18.14,2.27-52.16c0,0-7.94-27.78-6.52-32.32c0,0,0.28-9.92-12.47-5.67c0,0-7.37,5.1-0.57,18.14
		c0,0,7.37,22.11,7.65,33.73c0.06,2.67,0.08,4.81,0.08,6.51C161.69,224.55,161.39,229.47,161.39,229.47z"/>
	<path class="st3" d="M267.65,317.23"/>
</g>
<path class="st1" d="M267.65,317.23"/>
<g>
	<path class="st3" d="M179.21,146.87l-0.57-6.52c0,0-12.19-48.19,25.79-46.2l3.68,8.79c0,0,10.2,1.13,10.2,13.04
		c0,0-1.7,4.82-1.56,5.81c0.14,0.99,0.8,1.56,4.54,4.11c2.37,1.62,1.13,3.54,0,3.68c-1.13,0.14-1.56,2.69-1.56,2.69
		s1.56,1.56,0.99,2.13c-0.57,0.57-1.13,0.85-1.13,0.85s1.13,2.13,0.14,2.41c-0.99,0.28-1.56,1.84-1.56,1.84s-0.14,4.82-4.39,4.82
		c-4.25,0-10.49-1.13-12.76-0.42c-2.27,0.71-3.68,0.14-3.54,2.98c0.14,2.84,0.28,14.88,1.56,16.87c1.27,1.98-10.91-9.21-10.91-9.21
		L179.21,146.87z"/>
	<path class="st1" d="M179.21,146.87l-0.57-6.52c0,0-12.19-48.19,25.79-46.2l3.68,8.79c0,0,10.2,1.13,10.2,13.04
		c0,0-1.7,4.82-1.56,5.81c0.14,0.99,0.8,1.56,4.54,4.11c2.37,1.62,1.13,3.54,0,3.68c-1.13,0.14-1.56,2.69-1.56,2.69
		s1.56,1.56,0.99,2.13c-0.57,0.57-1.13,0.85-1.13,0.85s1.13,2.13,0.14,2.41c-0.99,0.28-1.56,1.84-1.56,1.84s-0.14,4.82-4.39,4.82
		c-4.25,0-10.49-1.13-12.76-0.42c-2.27,0.71-3.68,0.14-3.54,2.98c0.14,2.84,0.28,14.88,1.56,16.87c1.27,1.98-10.91-9.21-10.91-9.21
		L179.21,146.87z"/>
	<path d="M132.72,148.57c0,0,6.24-1.53,6.52-11.91c0.28-10.37-3.4-31.46,6.8-34.02s17.91,1.13,17.91,1.13s2.15-0.23,3.07-1.13
		c0.92-0.9,3.68-21.54,19.56-16.16c0,0,22.54-6.24,28.63,4.82c10.38,18.83,4.32,22.72,6.1,25.09c0,0-2.83-0.14-3.68-1.56
		c-1.4-2.34-1.49-8.17-10.06-9.59c0,0-1.98,4.48-11.62,6.47c0,0,1.13,11.05-4.54,11.9c-5.67,0.85-4.23-6.8-8.22-6.52
		c-3.99,0.28-7.09,6.52,0.28,11.06c0,0-1.37,9.35-4.27,12.47c0,0-13.87-4.82-13.3-22.11l-0.85-0.57
		C165.04,117.95,163.96,144.32,132.72,148.57"/>
	<path class="st4" d="M167.94,118.52c0,0,2.33-15.59,0-16.72c-2.33-1.13-3.75,1.98-3.47,2.83c0.28,0.85-0.04,13.89-0.04,13.89
		S166.71,121.92,167.94,118.52"/>
	<path class="st0" d="M232.8,238.36c0,0-2,0-2,2v3.79c0,0,0,2,2,2h212.85c0,0,2,0,2-2v-3.79c0,0,0-2-2-2H232.8z"/>
	<path class="st1" d="M232.8,238.36c0,0-2,0-2,2v3.79c0,0,0,2,2,2h212.85c0,0,2,0,2-2v-3.79c0,0,0-2-2-2H232.8z"/>
</g>
<rect x="401.1" y="247.15" class="st0" width="7.79" height="166.67"/>
<rect x="401.1" y="247.15" class="st1" width="7.79" height="166.67"/>
<line class="st5" x1="0" y1="414.32" x2="459.84" y2="414.32"/>
<polyline class="st1" points="250.64,237.86 250.64,232.76 309.04,225.95 309.04,238.43 "/>
<polyline class="st1" points="304.22,415.32 304.22,411.06 375.23,399.58 375.23,415.32 "/>
<g>
	<path d="M168.09,259.47c0,0,41.81-4.15,48.54-2.62c6.74,1.53,53.75,1.42,82.58,18.42c0,0,9.26,2.27,10.11,19.56
		c0,0,19.28,90.43,15.87,94.39l-17.29,7.63c0,0-27.4-66.3-27.4-94.08c0,0-2.37-4.25-8.32-4.54c-5.95-0.28-77.95-1.7-77.95-1.7
		S166.46,297.41,168.09,259.47"/>
	<path class="st4" d="M218.12,179.32c3.43,5.33,5.73,10.27,1.49,19.91c0,0-5.1,13.11-5.1,14.88c0,1.77-2.13,36.38,2.13,42.39
		l-48.69,2.96c0,0,16.94-30.97,3.34-67.82l-4.75-22.39c0,0-1.62-9.64,12.46-22.39c0,0,5.33,0,14.62,8.79c0,0,7.44,10.8,18.44,18.68"
		/>
	<path class="st3" d="M179.92,191.94c0,0,8.03,44.5,15.26,48.76c7.23,4.25,40.72-4.25,50-3.26c6.9,0.74,8.01-7.6,13.46-8.08
		c3.65-0.32,8.52-0.7,9.94-0.57c1.42,0.14,9.99,0.99,10.06-1c0,0-0.4-3.26-18.36-4.9c-6.35-0.58-11.14,5.63-16.01,5.67
		c-15.79,0.13-27.09-3.34-37.03-2.04l-7.76-33.87L179.92,191.94z"/>
	<path class="st1" d="M179.92,191.94c0,0,8.03,44.5,15.26,48.76c7.23,4.25,40.72-4.25,50-3.26c6.9,0.74,8.01-7.6,13.46-8.08
		c3.65-0.32,8.52-0.7,9.94-0.57c1.42,0.14,9.99,0.99,10.06-1c0,0-0.4-3.26-18.36-4.9c-6.35-0.58-11.14,5.63-16.01,5.67
		c-15.79,0.13-27.09-3.34-37.03-2.04l-7.76-33.87L179.92,191.94z"/>
	<path class="st6" d="M178.36,198.74c0,0-4.62-32.03-2.84-34.58c0,0,3.4-7.09,9.92-7.09c6.52,0,10.49,4.54,12.76,7.65
		c2.27,3.12,4.25,30.9,4.25,30.9L178.36,198.74z"/>
	<path class="st4" d="M307.62,396.86c0,0-0.57,8.26,1.98,9.23c0,0,15.02-3.25,18.43-2.68c3.4,0.57,8.85,4.4,32.88-3.18
		c0,0,1.13-6.71-5.67-5.04c-6.8,1.68-26.41-7.94-29.64-6.52C322.36,390.08,307.62,396.86,307.62,396.86"/>
	<path class="st1" d="M307.62,396.86c0,0-0.57,8.26,1.98,9.23c0,0,15.02-3.25,18.43-2.68c3.4,0.57,8.85,4.4,32.88-3.18
		c0,0,1.13-6.71-5.67-5.04c-6.8,1.68-26.41-7.94-29.64-6.52C322.36,390.08,307.62,396.86,307.62,396.86z"/>
	<path class="st0" d="M310.46,406.09l0.99,3.41l14.86-2.55l-0.97-3.26C325.34,403.69,309.46,406.09,310.46,406.09"/>
	<path class="st1" d="M310.46,406.09l0.99,3.41l14.86-2.55l-0.97-3.26C325.34,403.69,309.46,406.09,310.46,406.09z"/>
</g>
<rect x="354.91" y="168.23" transform="matrix(0.6293 -0.7771 0.7771 0.6293 -14.1643 346.7838)" class="st1" width="3.07" height="40.02"/>
<g>
	<path class="st3" d="M338.38,177.69c2.43,0,4.39-1.97,4.39-4.39c0-2.43-1.97-4.39-4.39-4.39c-2.43,0-4.39,1.97-4.39,4.39
		C333.99,175.73,335.95,177.69,338.38,177.69"/>
	<path class="st1" d="M338.38,177.69c2.43,0,4.39-1.97,4.39-4.39c0-2.43-1.97-4.39-4.39-4.39c-2.43,0-4.39,1.97-4.39,4.39
		C333.99,175.73,335.95,177.69,338.38,177.69z"/>
</g>
<rect x="372.51" y="183.83" transform="matrix(0.788 -0.6157 0.6157 0.788 -30.0708 283.4041)" class="st1" width="47.87" height="3.07"/>
<rect x="414.06" y="174.01" class="st1" width="5.8" height="37.38"/>
<g>
	<path class="st1" d="M415.64,211.49c0,0-4,0-4,4v13.46h10.64v-13.46c0,0,0-4-4-4H415.64z"/>
	<path class="st1" d="M410.88,229.04c0,0-3,0-3,3v6.26h18.17v-6.26c0,0,0-3-3-3H410.88z"/>
	<path class="st3" d="M416.96,174.69c2.43,0,4.39-1.97,4.39-4.39c0-2.43-1.97-4.39-4.39-4.39c-2.43,0-4.39,1.97-4.39,4.39
		C412.57,172.72,414.53,174.69,416.96,174.69"/>
	<path class="st1" d="M416.96,174.69c2.43,0,4.39-1.97,4.39-4.39c0-2.43-1.97-4.39-4.39-4.39c-2.43,0-4.39,1.97-4.39,4.39
		C412.57,172.72,414.53,174.69,416.96,174.69z"/>
	<path class="st3" d="M374.42,206.41c2.43,0,4.39-1.97,4.39-4.39c0-2.43-1.97-4.39-4.39-4.39c-2.43,0-4.39,1.97-4.39,4.39
		C370.03,204.44,371.99,206.41,374.42,206.41"/>
	<path class="st1" d="M374.42,206.41c2.43,0,4.39-1.97,4.39-4.39c0-2.43-1.97-4.39-4.39-4.39c-2.43,0-4.39,1.97-4.39,4.39
		C370.03,204.44,371.99,206.41,374.42,206.41z"/>
	<path class="st0" d="M338.11,120.42c-0.59,2.28-25.41,102.01-25.99,104.23c-0.57,2.22,7.13,4.38,7.83,1.95
		c0.7-2.42,25.38-101.67,25.99-104.23C346.54,119.82,338.7,118.15,338.11,120.42"/>
	<path class="st1" d="M338.11,120.42c-0.59,2.28-25.41,102.01-25.99,104.23c-0.57,2.22,7.13,4.38,7.83,1.95
		c0.7-2.42,25.38-101.67,25.99-104.23C346.54,119.82,338.7,118.15,338.11,120.42z"/>
</g>
<rect x="309.15" y="174.03" transform="matrix(0.2419 -0.9703 0.9703 0.2419 82.5958 456.5664)" width="48.68" height="2.78"/>
<g>
	<path class="st7" d="M219.48,135.14c0,0-2.2-0.29-2.38-0.83"/>
</g>
<text transform="matrix(1 0 0 1 92.6293 346.1072)"><tspan x="0" y="0" class="st8 st9">as</tspan><tspan x="11.34" y="0" class="st8 st9">s</tspan><tspan x="16.62" y="0" class="st8 st9">ise</tspan></text>
<text transform="matrix(1 0 0 1 92.6293 360.5067)"><tspan x="0" y="0" class="st8 st9">r</tspan><tspan x="4.2" y="0" class="st8 st9">églab</tspan><tspan x="32.48" y="0" class="st8 st9">l</tspan><tspan x="35.9" y="0" class="st8 st9">e</tspan></text>
<text transform="matrix(1 0 0 1 134.5097 360.5067)" class="st8 st9"> </text>
<text transform="matrix(1 0 0 1 136.0097 360.5067)" class="st8 st9">: 38 - 53</text>
<text transform="matrix(1 0 0 1 176.7977 360.5067)" class="st8 st9"> </text>
<text transform="matrix(1 0 0 1 178.2977 360.5067)" class="st8 st9">cm</text>
<text transform="matrix(1 0 0 1 300.7899 449.2449)" class="st8 st9">minimun 80</text>
<text transform="matrix(1 0 0 1 361.4491 449.2449)" class="st8 st9"> </text>
<text transform="matrix(1 0 0 1 362.9491 449.2449)" class="st8 st9">cm</text>
<text transform="matrix(1 0 0 1 352.9794 137.0721)"><tspan x="0" y="0" class="st8 st9">Hau</tspan><tspan x="20.75" y="0" class="st8 st9">t</tspan><tspan x="24.85" y="0" class="st8 st9">eur des </tspan><tspan x="64.73" y="0" class="st8 st9">y</tspan><tspan x="70.2" y="0" class="st8 st9">eux </tspan></text>
<text transform="matrix(1 0 0 1 352.9794 151.472)"><tspan x="0" y="0" class="st8 st9">au dessus de </tspan><tspan x="67.62" y="0" class="st8 st9">l</tspan><tspan x="71.09" y="0" class="st8 st9">’</tspan><tspan x="73.46" y="0" class="st8 st9">éc</tspan><tspan x="85.12" y="0" class="st8 st9">r</tspan><tspan x="89.45" y="0" class="st8 st9">an</tspan></text>
<text transform="matrix(1 0 0 1 28.9271 275.0926)"><tspan x="0" y="0" class="st8 st9">plan de t</tspan><tspan x="44.36" y="0" class="st8 st9">r</tspan><tspan x="48.69" y="0" class="st8 st9">a</tspan><tspan x="54.61" y="0" class="st8 st9">v</tspan><tspan x="60.06" y="0" class="st8 st9">ail</tspan></text>
<text transform="matrix(1 0 0 1 3.2225 289.493)"><tspan x="0" y="0" class="st8 st9">r</tspan><tspan x="4.2" y="0" class="st8 st9">églab</tspan><tspan x="32.48" y="0" class="st8 st9">l</tspan><tspan x="35.9" y="0" class="st8 st9">e</tspan></text>
<text transform="matrix(1 0 0 1 45.1029 289.493)" class="st8 st9"> </text>
<text transform="matrix(1 0 0 1 46.6029 289.493)" class="st8 st9">: 65</text>
<text transform="matrix(1 0 0 1 65.1908 289.493)" class="st8 st9"> </text>
<text transform="matrix(1 0 0 1 66.6908 289.493)" class="st8 st9">-</text>
<text transform="matrix(1 0 0 1 70.891 289.493)" class="st8 st9"> </text>
<text transform="matrix(1 0 0 1 72.391 289.493)" class="st8 st9">75</text>
<text transform="matrix(1 0 0 1 85.1107 289.493)" class="st8 st9"> </text>
<text transform="matrix(1 0 0 1 86.6107 289.493)" class="st8 st9">cm</text>
<text transform="matrix(1 0 0 1 46.0145 303.8934)"><tspan x="0" y="0" class="st8 st9">f</tspan><tspan x="4.54" y="0" class="st8 st9">i</tspan><tspan x="7.73" y="0" class="st8 st9">x</tspan><tspan x="13.03" y="0" class="st8 st9">e</tspan></text>
<text transform="matrix(1 0 0 1 65.0224 303.8934)" class="st8 st9"> </text>
<text transform="matrix(1 0 0 1 66.5224 303.8934)" class="st8 st9">: 72</text>
<text transform="matrix(1 0 0 1 85.1102 303.8934)" class="st8 st9"> </text>
<text transform="matrix(1 0 0 1 86.6102 303.8934)" class="st8 st9">cm</text>
<text transform="matrix(1 0 0 1 255.5067 105.2498)" class="st8 st9">50 à 70</text>
<text transform="matrix(1 0 0 1 292.3104 105.2498)" class="st8 st9"> </text>
<text transform="matrix(1 0 0 1 293.8104 105.2498)" class="st8 st9">cm</text>
<g>
	<path class="st3" d="M234.14,317.09"/>
</g>
<path class="st1" d="M234.14,317.09"/>
<g>
	<path class="st3" d="M200.99,296.21h-8.46c0,0-3.23-0.14-7.05-0.14c-6.29,0.01-14.18,2.34-11.88,14.64c0,0,0.85,5.1,8.9,6.52h71.81
		c0,0,2.84,0,6.66,0c6.29-0.01,14.18-2.34,11.88-14.64c0,0-0.85-4.39-9.6-5.74C261.04,296.92,219.29,296.21,200.99,296.21"/>
	<path class="st1" d="M200.99,296.21h-8.46c0,0-3.23-0.14-7.05-0.14c-6.29,0.01-14.18,2.34-11.88,14.64c0,0,0.85,5.1,8.9,6.52h71.81
		c0,0,2.84,0,6.66,0c6.29-0.01,14.18-2.34,11.88-14.64c0,0-0.85-4.39-9.6-5.74C261.04,296.92,219.29,296.21,200.99,296.21z"/>
	<ellipse class="st1" cx="337.53" cy="69.56" rx="8.72" ry="5.13"/>
	<path class="st0" d="M296.34,68.24h81.96c0-9.71-18.25-17.59-40.76-17.59c-22.51,0-40.76,7.88-40.76,17.59"/>
	<path class="st1" d="M296.34,68.24h81.96c0-9.71-18.25-17.59-40.76-17.59c-22.51,0-40.76,7.88-40.76,17.59"/>
</g>
<line class="st1" x1="337.53" y1="50.15" x2="337.53" y2="0"/>
<polyline class="st10" points="188.79,177.91 188.79,220.21 225.66,220.21 "/>
<polyline class="st10" points="227.33,281.66 291.48,281.66 291.48,322.64 "/>
<line class="st11" x1="241.64" y1="238.07" x2="76.08" y2="238.07"/>
<line class="st12" x1="448.15" y1="250.62" x2="448.15" y2="454.71"/>
<line class="st12" x1="230.8" y1="250.62" x2="230.8" y2="454.71"/>
<line class="st13" x1="173.61" y1="297.41" x2="110.33" y2="297.41"/>
<line class="st14" x1="76.6" y1="247.72" x2="76.6" y2="259.68"/>
<g>
	<path class="st3" d="M76.6,242.25l-2.55,7.01c0,0,2.55-1.55,5.1,0L76.6,242.25"/>
</g>
<line class="st14" x1="112.88" y1="307.07" x2="112.88" y2="333.32"/>
<g>
	<path class="st3" d="M112.88,301.61l-2.55,7.01c0,0,2.55-1.55,5.1,0L112.88,301.61"/>
</g>
<line class="st14" x1="438.69" y1="433.29" x2="240.26" y2="433.29"/>
<g>
	<path class="st3" d="M444.15,433.29l-7.01-2.55c0,0,1.55,2.55,0,5.1L444.15,433.29"/>
	<path class="st3" d="M234.8,433.29l7.01,2.55c0,0-1.55-2.55,0-5.1L234.8,433.29"/>
</g>
<line class="st14" x1="331.1" y1="111.35" x2="233.43" y2="111.35"/>
<g>
	<path class="st3" d="M336.56,111.35l-7.01-2.55c0,0,1.55,2.55,0,5.1L336.56,111.35"/>
	<path class="st3" d="M227.97,111.35l7.01,2.55c0,0-1.55-2.55,0-5.1L227.97,111.35"/>
</g>
<line class="st15" x1="312.79" y1="196.77" x2="224.51" y2="129.52"/>
<line class="st14" x1="76.6" y1="312.51" x2="76.6" y2="404.33"/>
<g>
	<path class="st3" d="M76.6,409.79l2.55-7.01c0,0-2.55,1.55-5.1,0L76.6,409.79"/>
</g>
<line class="st14" x1="112.88" y1="366.27" x2="112.88" y2="404.16"/>
<g>
	<path class="st3" d="M112.88,409.62l2.55-7.01c0,0-2.55,1.55-5.1,0L112.88,409.62"/>
</g>
<line class="st16" x1="219.76" y1="120.05" x2="329.59" y2="120.05"/>
<path class="st1" d="M332.15,120.05h2.55 M214.94,122.22l-2.84-2.17h2.55"/>
</svg>
