<?xml version="1.0" encoding="utf-8"?>
<!-- Generator: Adobe Illustrator 23.0.1, SVG Export Plug-In . SVG Version: 6.00 Build 0)  -->
<svg version="1.1" id="Layer_1" xmlns="http://www.w3.org/2000/svg" xmlns:xlink="http://www.w3.org/1999/xlink" x="0px" y="0px"
	 viewBox="0 0 380.4 338.6" style="enable-background:new 0 0 380.4 338.6;" xml:space="preserve">
<style type="text/css">
	.st0{fill:#3EB6AC;}
	.st1{fill:#FEDB41;}
	.st2{fill:#FEFEFE;}
	.st3{fill:#FFFFFF;}
	.st4{fill:#20D0C2;}
</style>
<g>
	<path class="st0" d="M190.2,338.6c-54.6,0-128-13.2-162.8-38.6l-0.3-0.2l-0.2-0.3C7.2,260.2,0.3,204.8,0.3,169.3
		C0.3,120.1,10.5,69,26.9,36.1l0.2-0.4l0.4-0.2C62.8,14.9,131.2,0,190.2,0c51.6,0,129.3,14.3,162.7,35.6l0.3,0.2l0.2,0.4
		c18.4,36.8,26.7,93.4,26.7,133.2c0,35.5-7,90.9-26.7,130.2l-0.1,0.3l-0.2,0.2C324.2,323.1,245.5,338.6,190.2,338.6z M29.4,297.9
		c30.4,21.9,97.9,37.8,160.8,37.8c54.7,0,132.2-15.2,160.8-37.8c12.1-24.4,26.2-72.6,26.2-128.6c0-54.4-13.1-105.1-26.2-131.5
		C317.8,17,241.2,2.9,190.2,2.9c-58.3,0-125.8,14.7-160.8,34.9C13.5,69.9,3.2,121.4,3.2,169.3C3.2,204.4,10.1,259,29.4,297.9z"/>
</g>
<g>
	<path class="st1" d="M159.9,29c25,0,45.3,14.5,45.3,40.5c0-26,20.3-40.5,45.3-40.5s45.3,21.1,45.3,47c0,33.6-68.1,95.7-90.7,121.5
		c-22.6-25.8-90.7-87.9-90.7-121.5C114.6,50.1,134.9,29,159.9,29z"/>
	<path class="st2" d="M98.7,106.9c-0.9,0-1.6-0.7-1.6-1.6c0-0.9,0.7-1.6,1.6-1.6h56.1l10.2-24.6c0.3-0.8,1.3-1.2,2.1-0.9
		c0.4,0.2,0.7,0.5,0.9,0.9l0,0l15.5,39.1l13.6-23c0.4-0.8,1.4-1,2.2-0.6c0.2,0.2,0.4,0.3,0.6,0.6l8,12.3l11.4-12.2
		c0.6-0.6,1.6-0.7,2.2-0.1c0.1,0.1,0.2,0.2,0.3,0.4l0,0l4.6,8.1h80.3c0.9,0,1.6,0.7,1.6,1.6c0,0.9-0.7,1.6-1.6,1.6h-81.3l0,0
		c-0.6,0-1.1-0.3-1.4-0.8l-4-7.1l-11.3,12l0,0c-0.1,0.1-0.2,0.2-0.3,0.2c-0.7,0.5-1.7,0.3-2.2-0.5L198.4,99l-13.9,23.6
		c-0.2,0.3-0.4,0.6-0.8,0.7c-0.8,0.3-1.7-0.1-2.1-0.9l-15.2-38.4l-9,21.9c-0.2,0.6-0.8,1.1-1.5,1.1L98.7,106.9L98.7,106.9z
		 M199.7,95.2c0.3,0.5,0.3,1.1,0,1.6"/>
	<path class="st2" d="M192.4,184.6c20.8,6,59.1,12.3,59.1,12.3s-2.2,13.8-13.8,16.4c-11.6,2.6-42.6-3.4-42.6-3.4s-5.7,5.6,4.3,7.4
		c10,1.9,58.9,0.8,58.9,0.8s50.2-23.8,58.8-27c8.6-3.2,13.8,4.8,13.8,4.8s-57.7,45.7-63.1,49.7c-5.4,4-95.3,11.7-95.3,11.7
		l-26.6,2.7l-10.5,11.3l-4.7,6.9l-48-39.5l38.3-27.2C136,186.2,171.6,178.6,192.4,184.6L192.4,184.6z"/>
	<g>
		<path class="st3" d="M236,195.9l-1.1,5.1l11.9,0.7c0.9-1,1.5-2.2,1.1-4.2L236,195.9L236,195.9z"/>
		<path class="st3" d="M321.6,199.7l1.5,1.5l6.4-4.6c0.4-0.9-1.6-1.2-1.6-1.2L321.6,199.7z"/>
		<path class="st4" d="M86.4,222.5l47.6,60.4l-10.5,10.9L72.8,231L86.4,222.5L86.4,222.5z"/>
	</g>
	<path class="st4" d="M49.6,250l23.2-19l56.6,68.3l-10.8,10.2C90.7,296.2,66.8,275.5,49.6,250L49.6,250L49.6,250z"/>
</g>
</svg>
