<?xml version="1.0" encoding="utf-8"?>
<!-- Generator: Adobe Illustrator 23.0.1, SVG Export Plug-In . SVG Version: 6.00 Build 0)  -->
<svg version="1.1" id="Layer_1" xmlns="http://www.w3.org/2000/svg" xmlns:xlink="http://www.w3.org/1999/xlink" x="0px" y="0px"
	 viewBox="0 0 380.4 338.6" style="enable-background:new 0 0 380.4 338.6;" xml:space="preserve">
<style type="text/css">
	.st0{fill:#3EB6AC;}
	.st1{fill:#FFFFFF;}
	.st2{fill:#FEDB41;}
	.st3{fill:#20D0C2;}
	.st4{fill:#EBEEF2;}
</style>
<g>
	<path class="st0" d="M190.2,338.6c-54.6,0-128-13.2-162.8-38.6l-0.3-0.2l-0.2-0.3C7.2,260.2,0.3,204.8,0.3,169.3
		C0.3,120.1,10.5,69,26.9,36.1l0.2-0.4l0.4-0.2C62.8,14.9,131.2,0,190.2,0c51.6,0,129.3,14.3,162.7,35.6l0.3,0.2l0.2,0.4
		c18.4,36.8,26.7,93.4,26.7,133.2c0,35.5-7,90.9-26.7,130.2l-0.1,0.3l-0.2,0.2C324.2,323.1,245.5,338.6,190.2,338.6z M29.4,297.9
		c30.4,21.9,97.9,37.8,160.8,37.8c54.7,0,132.2-15.2,160.8-37.8c12.1-24.4,26.2-72.6,26.2-128.6c0-54.4-13.1-105.1-26.2-131.5
		C317.8,17,241.2,2.9,190.2,2.9c-58.3,0-125.8,14.7-160.8,34.9C13.5,69.9,3.2,121.4,3.2,169.3C3.2,204.4,10.1,259,29.4,297.9z"/>
</g>
<g>
	<path class="st1" d="M299,164.7l-8.7-70.8l-16.3,2l0,0L242.2,78c-3.4-1.9-7.3-2.7-11.1-2.4l-50,4.6c-6.1,0.6-11.6,4.1-14.7,9.4
		l-35.3,60.7c-2.6,4.5-0.6,10.2,4.3,12.1l1.4,0.5c2.8,1,5.6,1.7,8.5,1.9l-4.5,3.9l-8.9,7.8l-25.4,21.7c-4.5,3.9-5,10.8-1.1,15.3
		l2.6,3c5.1,5.8,13.9,6.4,19.7,1.3l9.7,11.1c3.2,3.6,7.8,5.2,12.2,4.7c2.7-0.3,5.3-1.4,7.5-3.3l9.7,11.1c3.2,3.6,7.8,5.2,12.2,4.7
		c2.7-0.3,5.3-1.4,7.5-3.3l5.3,4.6c5.1,5.8,13.9,6.4,19.7,1.4l7.2-6.3l60.3-46.9l0.1-0.1l23.8,0L299,164.7z"/>
	<path class="st2" d="M284.1,207.9L251.8,180l-9-7.7l-6.4-5.5L208.8,143l3.2-27.2c1.1-9.2-4.7-17.8-13.6-20.2l-60.2-16.7
		c-6.4-1.8-13.1,1.2-16.1,7.1l-7.6,14.8l-32.5-2.2l-8.3,70.9L70,200.2l31.6,2.1l0.1,0.1l66.1,57l7.2,6.2c5.8,5,14.7,4.4,19.7-1.5
		l9.6-11.2c2.2,1.9,4.8,3,7.5,3.3c4.4,0.5,9.1-1.1,12.2-4.8l9.6-11.2c2.2,1.9,4.8,3,7.5,3.3c4.4,0.5,9.1-1.1,12.2-4.8l9.7-11.2
		c5.8,5,14.7,4.4,19.7-1.5l2.6-3C289.2,218.7,288.7,211.8,284.1,207.9z"/>
	<g>
		<path class="st1" d="M103.3,202.2l-3.8,5.1c-4.2,5.5-3.1,13.4,2.4,17.5l0,0c5.5,4.2,13.4,3.1,17.5-2.4l3.8-5.1
			c4.2-5.5,3.1-13.4-2.4-17.5l0,0C115.3,195.7,107.5,196.7,103.3,202.2z"/>
		<path class="st1" d="M126.6,212.9l-7.2,9.5c-4.2,5.5-3.1,13.4,2.4,17.5l0,0c5.5,4.2,13.4,3.1,17.5-2.4l7.2-9.5
			c4.2-5.5,3.1-13.4-2.4-17.5l0,0C138.6,206.3,130.8,207.4,126.6,212.9z"/>
		<path class="st1" d="M149.2,224.5l-9.8,13c-4.2,5.5-3.1,13.4,2.4,17.5l0,0c5.5,4.2,13.4,3.1,17.5-2.4l9.8-13
			c4.2-5.5,3.1-13.4-2.4-17.5l0,0C161.2,218,153.3,219,149.2,224.5z"/>
		<path class="st1" d="M169.7,238.9l-10.4,13.7c-4.2,5.5-3.1,13.4,2.4,17.5l0,0c5.5,4.2,13.4,3.1,17.5-2.4l10.4-13.7
			c4.2-5.5,3.1-13.4-2.4-17.5l0,0C181.7,232.3,173.9,233.4,169.7,238.9z"/>
		<path class="st1" d="M273.9,95.9L242.2,78c-3.4-1.9-7.3-2.7-11.1-2.4l-50,4.6c-6.1,0.6-11.6,4.1-14.7,9.4l-35.3,60.7
			c-2.6,4.5-0.6,10.2,4.3,12.1l1.4,0.5c12.9,4.9,27.5,0.7,35.9-10.2l13.5-17.6c0,0,32.5,37.6,68.2-6.3"/>
	</g>
	<path class="st3" d="M361.8,204.9L345.2,70.4c-0.2-1.3-0.8-2.5-1.9-3.3c-1-0.8-2.4-1.2-3.7-1l-38.7,4.8
		c-10.1,1.2-17.2,10.4-16,20.5l13.3,108.1c1.1,9.3,9.1,16.1,18.2,16.1c0.7,0,1.5,0,2.3-0.1l38.7-4.8
		C360.2,210.2,362.1,207.7,361.8,204.9z"/>
	<path class="st3" d="M79.5,70.7L40.8,66c-1.3-0.2-2.7,0.2-3.7,1c-1,0.8-1.7,2-1.9,3.3L18.6,204.9c-0.3,2.8,1.6,5.3,4.4,5.6
		l38.7,4.8c0.8,0.1,1.5,0.1,2.3,0.1c9.1,0,17.1-6.8,18.2-16.1L95.5,91.2C96.8,81.2,89.6,72,79.5,70.7z"/>
	<g>
		<circle class="st4" cx="329.6" cy="183.4" r="9.7"/>
		<circle class="st4" cx="50.2" cy="183.4" r="9.7"/>
	</g>
</g>
</svg>
