<?xml version="1.0" encoding="utf-8"?>
<!-- Generator: Adobe Illustrator 23.0.1, SVG Export Plug-In . SVG Version: 6.00 Build 0)  -->
<svg version="1.1" id="Layer_1" xmlns="http://www.w3.org/2000/svg" xmlns:xlink="http://www.w3.org/1999/xlink" x="0px" y="0px"
	 viewBox="0 0 380.38 338.63" style="enable-background:new 0 0 380.38 338.63;" xml:space="preserve">
<style type="text/css">
	.st0{fill:#3EB6AC;}
	.st1{fill:#FEDB41;}
	.st2{fill:#FEFEFE;}
	.st3{fill:#FFFFFF;}
	.st4{fill:#20D0C2;}
</style>
<g>
	<path class="st0" d="M190.19,295.01c-47.53,0-111.52-11.54-141.84-33.59l-0.25-0.18l-0.14-0.28
		c-17.14-34.28-23.22-82.54-23.22-113.45c0-42.91,8.9-87.36,23.22-116.01l0.17-0.34l0.33-0.19C79.2,13.02,138.81,0,190.19,0
		c44.96,0,112.66,12.45,141.78,30.98l0.3,0.19l0.16,0.32c16.04,32.08,23.22,81.38,23.22,116.01c0,30.91-6.08,79.16-23.22,113.45
		l-0.13,0.25l-0.22,0.18C306.94,281.49,238.41,295.01,190.19,295.01z M50.11,259.52c26.5,19.09,85.31,32.92,140.08,32.92
		c47.65,0,115.17-13.21,140.07-32.89c10.56-21.26,22.83-63.23,22.83-112.04c0-47.42-11.42-91.6-22.79-114.54
		c-28.91-18.19-95.66-30.39-140.1-30.39c-50.79,0-109.61,12.78-140.11,30.42C36.23,60.89,27.3,105.78,27.3,147.5
		C27.3,178.05,33.27,225.66,50.11,259.52z"/>
	<g>
		<path class="st1" d="M168.75,58.08c25.04,0,45.34,14.49,45.34,40.47c0-25.98,20.3-40.47,45.34-40.47s45.34,21.06,45.34,47.04
			c0,33.62-68.11,95.72-90.68,121.48c-22.57-25.76-90.68-87.86-90.68-121.48C123.41,79.14,143.71,58.08,168.75,58.08z"/>
		<path class="st2" d="M107.56,135.93c-0.88,0-1.59-0.71-1.59-1.59c0-0.88,0.71-1.59,1.59-1.59h56.06l10.16-24.62
			c0.33-0.81,1.26-1.2,2.07-0.86c0.41,0.17,0.72,0.5,0.87,0.88l0,0l15.47,39.06l13.6-23.02c0.45-0.76,1.42-1,2.18-0.56
			c0.25,0.15,0.44,0.35,0.57,0.58l7.99,12.26l11.43-12.15c0.6-0.64,1.6-0.67,2.24-0.07c0.12,0.11,0.22,0.24,0.3,0.38l0,0l4.56,8.14
			h80.34c0.88,0,1.59,0.71,1.59,1.59c0,0.88-0.71,1.59-1.59,1.59h-81.27v0c-0.55,0-1.1-0.29-1.38-0.81l-3.96-7.07l-11.32,12.04l0,0
			c-0.09,0.09-0.18,0.17-0.29,0.24c-0.73,0.48-1.72,0.27-2.19-0.47L207.23,128l-13.92,23.57c-0.17,0.32-0.45,0.58-0.81,0.72
			c-0.82,0.32-1.74-0.08-2.06-0.9l-15.22-38.43l-9.02,21.86c-0.21,0.64-0.81,1.11-1.52,1.11L107.56,135.93L107.56,135.93z
			 M208.54,124.21c0.27,0.48,0.29,1.09-0.01,1.59"/>
		<path class="st2" d="M201.2,213.64c20.79,6.03,59.12,12.34,59.12,12.34s-2.17,13.78-13.77,16.43c-11.6,2.65-42.64-3.44-42.64-3.44
			s-5.66,5.56,4.32,7.42c9.98,1.86,58.85,0.8,58.85,0.8s50.17-23.77,58.81-26.96c8.64-3.18,13.77,4.77,13.77,4.77
			s-57.73,45.71-63.13,49.69c-5.4,3.98-95.25,11.72-95.25,11.72l-26.62,2.71l-10.53,11.26l-4.72,6.85l-48.02-39.47l38.31-27.2
			C144.8,215.23,180.41,207.61,201.2,213.64L201.2,213.64z"/>
		<g>
			<path class="st3" d="M244.81,224.9l-1.06,5.13l11.95,0.71c0.88-1,1.51-2.19,1.12-4.18L244.81,224.9L244.81,224.9z"/>
			<path class="st3" d="M330.48,228.78l1.47,1.55l6.41-4.58c0.43-0.91-1.57-1.19-1.57-1.19L330.48,228.78z"/>
			<path class="st4" d="M95.23,251.55l47.6,60.39l-10.5,10.92l-50.69-62.79L95.23,251.55L95.23,251.55z"/>
		</g>
		<path class="st4" d="M58.41,279.07l23.23-19.02l56.64,68.32l-10.79,10.25C99.52,325.2,75.68,304.54,58.41,279.07L58.41,279.07
			L58.41,279.07z"/>
	</g>
</g>
</svg>
