<?xml version="1.0" encoding="utf-8"?>
<!-- Generator: Adobe Illustrator 24.2.3, SVG Export Plug-In . SVG Version: 6.00 Build 0)  -->
<svg version="1.1" id="Layer_1" xmlns="http://www.w3.org/2000/svg" xmlns:xlink="http://www.w3.org/1999/xlink" x="0px" y="0px"
	 width="194.9px" height="241.6px" viewBox="0 0 194.9 241.6" style="enable-background:new 0 0 194.9 241.6;" xml:space="preserve"
	>
<style type="text/css">
	.st0{fill:#3EB6AC;}
	.st1{fill:#FFFFFF;}
	.st2{fill:#52385A;}
</style>
<g>
	<path class="st0" d="M0,86.8c0,21.3,4.6,48.7,13.7,67C30.5,166,67,173.6,97.5,173.6c27.4,0,68.5-7.6,83.8-19.8
		c9.1-18.3,13.7-45.7,13.7-67s-4.6-50.3-13.7-68.5C164.5,7.6,124.9,0,97.5,0C67,0,32,7.6,13.7,18.3C4.6,36.6,0,64,0,86.8"/>
	<path class="st1" d="M76.9,105.4c7.1,0,16.8,11.4,20.1,19.4l6.1,15c2.3,5.8,4.4,8.9,10.1,8.9c4,0,8.3-2.3,10.6-4.9
		c-3.4-2.3-5.4-6.7-7.3-11.9l-5.2-12.7c-3.2-7.8-7.7-12.1-14.1-13.8c1.8-1.5,3.5-3.5,5.1-6l16.7-26.5l-0.9-1.2
		c-2.9-0.2-5.2-0.2-8.4-0.2c-5.4,0-7.8,2.4-10.3,6.7L85.8,99.3C83.6,102.6,78.3,104.9,76.9,105.4"/>
	<path class="st1" d="M48.8,148.1c-0.8-41,20.9-96.2,64-122.3l6.8,11.3c-17.4,10.5-32.2,27.4-42.9,48.8c-9.9,20-15.2,42-14.8,61.9
		L48.8,148.1z"/>
	<path class="st2" d="M134.8,50.9c0,2.2,0.5,4.9,1.4,6.7c1.7,1.2,5.4,2,8.4,2c2.8,0,6.9-0.8,8.4-2c0.9-1.8,1.4-4.6,1.4-6.7
		s-0.5-5-1.4-6.9c-1.7-1.1-5.7-1.8-8.4-1.8c-3.1,0-6.6,0.8-8.4,1.8C135.3,45.8,134.8,48.6,134.8,50.9"/>
	<g>
		<path class="st0" d="M36.6,218.8c0.8,2.1,1.6,3.8,2.9,4.8c-0.9,1-2.6,1.9-4.2,1.9c-2.2,0-3.1-1.2-4-3.5l-2.4-6
			c-1.3-3.2-2.4-4-5.2-4c-0.9,0-1.8,0.1-2.8,0.1v13c-0.9,0.2-2,0.2-3.1,0.2c-1.1,0-2.1-0.1-3-0.2v-44.3l0.4-0.4h2.4
			c2.6,0,3.4,1.2,3.4,4v22.5l2.1-0.1c0.7,0,1.1-0.2,1.5-0.9l5.4-8.4c1-1.7,2-2.7,4.1-2.7c1.3,0,2.2,0,3.3,0.1l0.4,0.5l-6.6,10.5
			c-0.6,1-1.3,1.8-2,2.4c2.6,0.7,4.3,2.4,5.6,5.5L36.6,218.8z"/>
	</g>
	<g>
		<path class="st2" d="M52,225c-0.8,0.2-2,0.2-3.1,0.2c-1.2,0-2.3-0.1-3.2-0.2v-22.3c0-2.2-0.7-3.2-2.7-3.2h-0.7
			c-0.2-0.8-0.3-1.5-0.3-2.2c0-0.7,0.1-1.5,0.3-2.3c1.5-0.2,3-0.2,3.8-0.2h0.8c3,0,4.9,2.1,4.9,5.4V225z M44.4,183.9
			c0.7-0.4,2.1-0.7,3.3-0.7c1.1,0,2.7,0.3,3.3,0.7c0.4,0.7,0.5,1.9,0.5,2.7s-0.2,1.9-0.5,2.7c-0.6,0.5-2.2,0.8-3.3,0.8
			c-1.2,0-2.7-0.3-3.3-0.8c-0.4-0.7-0.5-1.8-0.5-2.7C43.9,185.7,44.1,184.6,44.4,183.9z"/>
		<path class="st2" d="M85.4,218.6c0,2.1,0.2,4.1,1,5.5c-0.9,0.7-2.4,1.3-3.9,1.3c-2.5,0-3.3-1.4-3.3-4V206c0-4.1-0.8-5.8-3.8-5.8
			c-2.4,0-5.5,1.4-7.7,3.8V225c-0.8,0.2-2,0.2-3.1,0.2c-1.2,0-2.2-0.1-3.2-0.2v-29.9l0.4-0.4h2.4c2.4,0,3.3,1.4,3.5,3.8
			c2.6-2.4,6-4.1,9.7-4.1c5.7,0,8.1,4.4,8.1,10C85.4,204.4,85.4,218.6,85.4,218.6z"/>
		<path class="st2" d="M99,212c0.2,5.1,1.9,8.7,7.1,8.7c3,0,5.9-1,8.5-2.3c1,1,1.8,2.7,2,4c-2.9,2.1-7.2,3.4-11.4,3.4
			c-9.6,0-12.5-7.5-12.5-15.8c0-9.1,4.3-15.9,12.7-15.9c7.8,0,12.1,5.8,12.1,13c0,1.9-0.1,3.1-0.4,4.8H99z M99,207.5h12.3v-0.8
			c0-4.3-1.7-7.8-6.1-7.8C101.3,198.9,99.3,202.1,99,207.5z M109.6,180.1c1.8,0.6,3.8,2.4,4.4,4.1l-10.4,8.1
			c-1.2-0.3-2.3-1.4-2.8-2.6L109.6,180.1z"/>
		<path class="st2" d="M125.7,194.6c2.9,0.6,4.7,2.6,5.5,5.4c1.4-3.1,3.9-5.4,8-5.4c1.1,0,2.1,0.1,3.2,0.4c0,1.7-0.4,4.2-1.5,6
			c-0.8-0.2-1.6-0.2-2.5-0.3c-3.3,0-5.2,2.1-6.5,4.6V225c-0.9,0.2-2,0.2-3.1,0.2c-1.2,0-2.3-0.1-3.2-0.2v-20.9
			c0-3.2-1.2-5.3-2.2-6.3C123.6,196.7,124.6,195.2,125.7,194.6z"/>
		<path class="st2" d="M155.5,225c-0.9,0.2-2,0.2-3.1,0.2c-1.2,0-2.3-0.1-3.2-0.2v-22.3c0-2.2-0.7-3.2-2.7-3.2h-0.7
			c-0.2-0.8-0.3-1.5-0.3-2.2c0-0.7,0.1-1.5,0.3-2.3c1.5-0.2,3-0.2,3.8-0.2h0.9c3,0,4.9,2.1,4.9,5.4V225z M147.9,183.9
			c0.7-0.4,2.1-0.7,3.4-0.7c1.1,0,2.7,0.3,3.4,0.7c0.4,0.7,0.6,1.9,0.6,2.7s-0.2,1.9-0.6,2.7c-0.6,0.5-2.2,0.8-3.4,0.8
			c-1.2,0-2.7-0.3-3.4-0.8c-0.4-0.7-0.6-1.8-0.6-2.7C147.4,185.7,147.6,184.6,147.9,183.9z"/>
		<path class="st2" d="M164.1,218.4c2.6,1.4,5.7,2.7,8.5,2.7c3.4,0,5.4-1.5,5.5-3.8c0-1.7-1.3-3.2-3.8-4.1l-3.4-1.3
			c-4.3-1.6-7.7-4.1-7.7-8.7c0-5.6,4.6-9,10.7-9c3.3,0,7.4,1,10,2.2c0,1.6-0.7,3.6-1.9,4.6c-2.1-1-5.1-2-8.1-2
			c-2.7,0-4.4,1.5-4.4,3.5c0,1.8,1.2,2.7,3.8,3.7l3.6,1.4c4.5,1.7,7.7,4.4,7.7,9.1c0,5.7-4.8,9.1-11.6,9.1c-4.4,0-8.3-1.5-10.9-3
			C162.1,221.4,163,219.4,164.1,218.4z"/>
	</g>
	<rect x="13.9" y="236.1" class="st2" width="173.4" height="1"/>
	
		<rect x="97" y="233.1" transform="matrix(0.7071 -0.7071 0.7071 0.7071 -137.8604 140.4178)" class="st2" width="7.1" height="7.1"/>
</g>
</svg>
