<?xml version="1.0" encoding="utf-8"?>
<!-- Generator: Adobe Illustrator 25.0.1, SVG Export Plug-In . SVG Version: 6.00 Build 0)  -->
<svg version="1.1" id="Capa_1" xmlns="http://www.w3.org/2000/svg" xmlns:xlink="http://www.w3.org/1999/xlink" x="0px" y="0px"
	 width="512px" height="494.7px" viewBox="0 0 512 494.7" style="enable-background:new 0 0 512 494.7;" xml:space="preserve">
<style type="text/css">
	.st0{fill-rule:evenodd;clip-rule:evenodd;fill:#FFFFFF;}
	.st1{fill-rule:evenodd;clip-rule:evenodd;fill:#C3DDFF;}
	.st2{fill:#DBEAFF;}
	.st3{fill-rule:evenodd;clip-rule:evenodd;fill:#7E707D;}
	.st4{fill-rule:evenodd;clip-rule:evenodd;fill:#FFEEE6;}
	.st5{fill-rule:evenodd;clip-rule:evenodd;fill:#DBEAFF;}
	.st6{fill-rule:evenodd;clip-rule:evenodd;fill:#FFDFCF;}
	.st7{fill-rule:evenodd;clip-rule:evenodd;fill:#675475;}
	.st8{fill-rule:evenodd;clip-rule:evenodd;fill:#E29D7B;}
	.st9{fill-rule:evenodd;clip-rule:evenodd;fill:#FFCEBF;}
	.st10{fill-rule:evenodd;clip-rule:evenodd;fill:#CE8B6B;}
	.st11{fill:#766684;}
	.st12{fill-rule:evenodd;clip-rule:evenodd;fill:#6A5D6A;}
	.st13{fill-rule:evenodd;clip-rule:evenodd;fill:#766684;}
	.st14{fill-rule:evenodd;clip-rule:evenodd;fill:#4B3659;}
	.st15{fill-rule:evenodd;clip-rule:evenodd;fill:#E0DFE1;}
	.st16{fill-rule:evenodd;clip-rule:evenodd;fill:#34253F;}
	.st17{fill-rule:evenodd;clip-rule:evenodd;fill:#D3CFD2;}
</style>
<g>
	<g>
		<path class="st0" d="M266.2,284.7v-54.3l-39.1-3.8l-32.9,34.6c12.7,20.3,33.2,44,35.7,45.2C231.8,307.2,266.2,284.7,266.2,284.7z"
			/>
	</g>
	<path class="st1" d="M150.6,275.5h115.6v76.2H150.6V275.5z"/>
	<g>
		<path class="st0" d="M285.6,210.4c7.5-13,6.6-18.2,7.5-35.9v-19c0-18.2-14.9-33-33-33h-86.3c-13.8,0-22.2,6.7-29,17.8L94,222.8
			c1.8,0.3,54.4,47.2,59.7,48.3c13.4,2.6,89.7-29.7,89.7-29.7l5.3-2.1c13.1-5.3,24.1-11.7,32.1-21.8
			C282.6,215.2,284.1,212.9,285.6,210.4z"/>
	</g>
	<g>
		<path class="st2" d="M133.5,234.5c-1.4,0-2.8-0.4-4-1.1c-3.6-2.2-4.8-7-2.5-10.6l21.4-34.8c2.2-3.6,7-4.8,10.6-2.5
			c3.6,2.2,4.8,7,2.5,10.6l-21.4,34.8C138.6,233.2,136.1,234.5,133.5,234.5L133.5,234.5z"/>
	</g>
	<g>
		<path class="st3" d="M230,297.4c-2.5-1.2-5-5.2-11.2-12.8c-6.3-7.7-16.6-17.4-24.4-23.4c-13.8-11.5-13.8-11.5-23.3-19.8
			c-10.8-7.8-24-12.1-37.5-14.7c-5.3-1-10.6-1.8-15.9-2.3l-23.6,17l12.3,24.8c8.5,1.7,15.2,4.3,19.4,6.2
			c38.5,17.8,54.6,45.6,55.3,55.4c0.6,8.3-9.3,10.4-41.9,10.4H82.6L68,360.3L82.6,380l61.5,15.4l78.7-15.4l43.4-39.5L230,297.4z"/>
	</g>
	<g>
		<path class="st4" d="M243.4,241.4l-16.3-32.2L181.4,229c-5.5,2.2-9.3,6.9-10.5,12.4c-0.7,3.3-0.5,6.8,0.8,10.1
			c3.5,8.8,13.7,13.2,22.5,9.6L243.4,241.4z"/>
	</g>
	<g>
		<path class="st5" d="M248.7,239.2c13.1-5.3,24.1-11.7,32.1-21.8c1.7-2.2,3.3-4.5,4.8-7c7.5-13,6.6-18.2,7.5-35.9v-19
			c0-16.6-12.5-30.5-28.5-32.7c5.9,6,9.5,14.1,9.5,23.1v19c-0.9,17.7,0,22.9-7.5,35.9c-1.5,2.5-3.1,4.8-4.8,7
			c-6.7,8.4-15.4,14.3-25.7,19.1l7.3,14.5L248.7,239.2z"/>
	</g>
	<g>
		<path class="st6" d="M243.4,241.4l-7.3-14.5c-2.1,1-4.2,1.9-6.4,2.7l-5.3,2.2l-0.1-0.1L187,246.7c-5.6,2.2-11.8,1.3-16.4-2
			c0,2.3,0.4,4.6,1.3,6.8c3.5,8.8,13.7,13.2,22.5,9.6L243.4,241.4z"/>
	</g>
	<g>
		<path class="st2" d="M243.4,249.1c-2.8,0-5.5-1.6-6.9-4.2l-16.3-32.2c-1.9-3.8-0.4-8.5,3.4-10.4c3.8-1.9,8.5-0.4,10.4,3.4
			l16.3,32.2c1.9,3.8,0.4,8.5-3.4,10.4C245.8,248.8,244.6,249.1,243.4,249.1L243.4,249.1z"/>
	</g>
	<g>
		<path class="st4" d="M76.9,338.1c-8.4,0-14,0-17.5-7.4c-4.7-9.9-16.3-27.5-27.7-28.4c-8.8-0.7-7.6,2.5-6.5,8.6L37.2,380l45.4,15.4
			v-57.3L76.9,338.1z"/>
	</g>
	<g>
		<path class="st4" d="M106.3,266.2l11.3-41.8c-5.3-0.6-10.5-1-15.5-1.4c-3.9-0.3-6.3,0.1-8.1-0.3c-2.2-0.4-3.5-1.6-5.4-5.6
			c-4.7-9.9-17.2-29.2-28.6-30.1c-8.8-0.7-7.5,2.5-6.5,8.6l10.7,60.8c1.9,10.7,2,9.2,13.8,8.1C88.7,263.6,98.3,264.5,106.3,266.2
			L106.3,266.2z"/>
	</g>
	<g>
		<path class="st7" d="M376.7,306.2c-23.1-19.4-61.6-27.5-95.9-23.8c-16.4,1.8-31.8,6.2-44.1,13.4c-3.2,1.8-4.9,2.5-6.7,1.6v43.1
			l68.4,54.9L409.1,380C408.8,349.9,413.9,342.1,376.7,306.2z"/>
	</g>
	<g>
		<path class="st6" d="M216.9,160.9c14,0,25.6-12.6,25.6-28.1v-10.3h-51.1v10.3C191.4,148.3,202.9,160.9,216.9,160.9z"/>
	</g>
	<g>
		<path class="st4" d="M233.7,122.5c19.6-9.1,35-30.8,35-48.2V58.4c-18.2-29.2-85.2-40.5-103.6,0v15.9c0,17.5,15.4,39.1,35.1,48.3
			c5.1,2.3,10.6,4.1,16.3,4.2C222.4,126.8,228.3,125,233.7,122.5L233.7,122.5z"/>
	</g>
	<g>
		<path class="st8" d="M268.7,58.4c0-38.5-25.9-58-51.8-58.4c-25.9,0.4-51.8,19.9-51.8,58.4c21-1.5,23.6-16.7,38.1-13
			C207.9,46.6,265.7,58.2,268.7,58.4z"/>
	</g>
	<g>
		<path class="st9" d="M216.9,126.7c-4.1,0-8.3-0.9-13-2.6c-1.3-0.5-2.5-1-3.8-1.6h-8.8v7.7c0,6.8,19.1,12.2,26.3,12.2
			c12.5,0,24.8-5.6,24.8-12.2v-7.7h-8.8c0,0,0,0,0,0c-0.3,0.2-0.6,0.3-0.9,0.4c-2.3,1.1-4.8,2-7.3,2.6
			C222.6,126.3,219.9,126.7,216.9,126.7L216.9,126.7z"/>
	</g>
	<g>
		<path class="st10" d="M268.7,58.4c0-38.5-25.9-58-51.8-58.4c-4.7,0.1-9.3,0.8-13.8,2.1c19.4,5.6,36,22.7,37.8,51.1
			C254.8,55.9,267.3,58.3,268.7,58.4z"/>
	</g>
	<g>
		<path class="st6" d="M233.7,122.5c19.6-9.1,35-30.8,35-48.2V58.4c-1.4-0.1-14-2.5-27.8-5.3V69c0,18.6-17.5,41.9-38.8,49.8
			c-2,0.7-3.9,1.3-5.7,1.7c1.3,0.7,2.5,1.3,3.8,2c1.2,0.6,2.5,1.1,3.8,1.6c4.7,1.7,8.8,2.6,13,2.6c4.5,0,8.8-1.1,13-2.6
			C231.2,123.6,232.4,123.1,233.7,122.5z"/>
	</g>
	<g>
		<path class="st6" d="M106.3,266.2l5.6-20.8c-9.3-2.9-22.5-5.5-38-4c-11.8,1.1-11.9,2.5-13.8-8.1l4.1,23.3c1.9,10.7,2,9.2,13.8,8.1
			C88.7,263.6,98.3,264.5,106.3,266.2L106.3,266.2z"/>
	</g>
	<g>
		<path class="st4" d="M298.4,380v-39.5H230h-5.4c-10.9,0-19.8,8.9-19.8,19.8c0,10.3,8,18.8,18.1,19.7l33.1,11L298.4,380z"/>
	</g>
	<g>
		<path class="st11" d="M298.4,387.8c-4.3,0-7.7-3.5-7.7-7.7v-39.5c0-4.3,3.5-7.7,7.7-7.7s7.7,3.5,7.7,7.7V380
			C306.1,384.3,302.6,387.8,298.4,387.8L298.4,387.8z"/>
	</g>
	<g>
		<path class="st4" d="M455.3,330.8c2-11.8,0-28.6-9.1-50c-8.6-4.2-18.3-6.1-28.5-5.1c-18.5,2-33.4,14.8-41,30.4
			c-1.1,2.2-2,4.5-2.8,6.8c-2.2,6.6-3,13.4-2.3,19.9c2.3,21.9,16.1,40.6,37.5,47.1l11.2-3.6c16.1-5.1,28.4-18.3,32.4-34.7
			L455.3,330.8z"/>
	</g>
	<g>
		<path class="st3" d="M484.7,342.2c3.8-16-5-31.5,0.7-57c4.3-19.2-10-19.7-26.3-13.8c-5.3,1.9-9.6,5.1-12.9,9.4
			c-8.4,10.9-9.7,28.6-0.4,48.8c12.4,26.8-36.7,50.4-36.7,50.4C451.4,380,477.2,373.9,484.7,342.2L484.7,342.2z"/>
	</g>
	<g>
		<path class="st6" d="M445.8,329.6c-9.3-20.2-8-37.9,0.4-48.8c-7.1-3.5-15-5.4-23.2-5.3c-5.6,12.4-5.5,30,2.6,49.9
			c8.7,21.3-12.9,40.7-26.5,50.5c3.1,1.7,6.5,3.1,10,4.2C409.1,380,458.2,356.4,445.8,329.6L445.8,329.6z"/>
	</g>
	<g>
		<path class="st12" d="M484.7,342.2c3.8-16-5-31.5,0.7-57c3-13.3-3-17.7-12.5-17.1c-19.7,27.2-2.1,53.4-8.5,76.9
			c-4.8,20.1-16.9,29.9-35.9,34.4C459.3,377.3,478.4,368.7,484.7,342.2L484.7,342.2z"/>
	</g>
	<g>
		<path class="st12" d="M194.2,310.7c-16.8-51.7-82.5-65.4-82.3-65.3l-5.6,20.8c8.5,1.7,15.2,4.3,19.4,6.2
			c38.5,17.8,54.6,45.6,55.3,55.4c0.3,4.3-2.2,7-9.4,8.5c0,0,8.6,3.1,16-4.4l-0.1,0.1C194.1,326.2,196.4,317.4,194.2,310.7z
			 M181.7,335.7c0.3-0.1,0.6-0.3,1-0.5C182.4,335.3,182,335.5,181.7,335.7z M182.7,335.2c0.1-0.1,0.3-0.1,0.4-0.2
			C183,335,182.9,335.1,182.7,335.2z M183.2,334.9c0.1-0.1,0.3-0.2,0.5-0.3C183.5,334.8,183.4,334.8,183.2,334.9z M183.7,334.6
			c0.1-0.1,0.3-0.1,0.4-0.2C184,334.5,183.8,334.6,183.7,334.6z M184.2,334.4c0.1-0.1,0.3-0.2,0.4-0.3
			C184.4,334.2,184.3,334.3,184.2,334.4z M185.1,333.8c0.1-0.1,0.3-0.2,0.4-0.3C185.3,333.6,185.2,333.7,185.1,333.8z M185.5,333.5
			c0.1-0.1,0.3-0.2,0.4-0.3C185.8,333.3,185.6,333.4,185.5,333.5z M185.9,333.2c0.1-0.1,0.3-0.2,0.4-0.3
			C186.2,333,186.1,333.1,185.9,333.2z M186.3,332.9c0.3-0.2,0.6-0.4,0.8-0.6C186.9,332.5,186.6,332.7,186.3,332.9z M187.5,331.9
			c-0.1,0.1-0.3,0.2-0.4,0.3 M185.1,333.8c-0.1,0.1-0.3,0.2-0.4,0.3"/>
	</g>
	<g>
		<path class="st13" d="M399.1,375.8c-15.7-8.6-25.6-24.6-27.5-42.9c-0.7-6.5,0.2-13.4,2.3-19.9c0.8-2.3,1.7-4.6,2.8-6.8
			c-6.1-5.2-13.4-9.5-21.3-13.1c-1.6,3.4-3,6.8-4.1,10.3c-3.6,10.9-5.1,22.1-3.9,32.9c1.7,16,7.1,31,15.7,43.7h46.1
			C405.5,379,402.2,377.5,399.1,375.8L399.1,375.8z"/>
	</g>
	<g>
		<path class="st14" d="M409.1,380H298.4h-75.5H82.6H37.2H4.9C2.2,380,0,382.3,0,385v60.6c0,2.7,2.2,5,4.9,5h27h448.1h27
			c2.7,0,5-2.2,5-5V385c0-2.7-2.2-4.9-5-4.9L409.1,380z"/>
	</g>
	<g>
		<path class="st15" d="M480.1,450.5H31.9v22.1c0,12.1,9.9,22.1,22.1,22.1h404c12.1,0,22.1-9.9,22.1-22.1L480.1,450.5L480.1,450.5z"
			/>
	</g>
	<g>
		<path class="st16" d="M512,445.5V385c0-2.7-2.2-4.9-5-4.9h-49c2.7,0,5,2.2,5,4.9v60.6c0,2.7-2.2,5-5,5h22h27
			C509.8,450.5,512,448.3,512,445.5L512,445.5z"/>
	</g>
	<g>
		<path class="st17" d="M480.1,472.6v-22.1h-22h-56.3v22.1c0,12.1-10,22.1-22.1,22.1H458C470.1,494.7,480.1,484.7,480.1,472.6
			L480.1,472.6z"/>
	</g>
</g>
</svg>
