<?xml version="1.0" encoding="utf-8"?>
<!-- Generator: Adobe Illustrator 25.0.1, SVG Export Plug-In . SVG Version: 6.00 Build 0)  -->
<svg version="1.1" id="Capa_1" xmlns="http://www.w3.org/2000/svg" xmlns:xlink="http://www.w3.org/1999/xlink" x="0px" y="0px"
	 width="512px" height="500.4px" viewBox="0 0 512 500.4" style="enable-background:new 0 0 512 500.4;" xml:space="preserve">
<style type="text/css">
	.st0{fill:#5F4570;}
	.st1{fill:#4B3659;}
	.st2{fill:#F8FAFB;}
	.st3{fill:#DD7C9C;}
	.st4{fill:#FFFFFF;}
</style>
<path class="st0" d="M444.1,16.1c0,10.2,2.5,33.8,0.8,44.8s-2.5,19.5,6.8,28.8c9.3,9.3,59.2,60.9,60.1,68.5
	c0.8,7.6,0.8,17.8-16.9,24.5c-17.8,6.8-34.7,19.5-28.8,22c5.9,2.5,21.2,16.1,11.9,33.8c-9.3,17.8-26.2,23.5-26.2,23.5
	s16.9,19.6,8.5,33.1s-19.1,13.5-16.3,36.4c2.8,22.8,18.3,66-0.4,81.2c-18.8,15.2-66.2,27.1-97.5,26.2c-31.3-0.8-38.1,38.1-48.2,49.1
	c-10.2,11-203.8,13.5-219.9,11.8s-38.1,3.4-33.8-20.3S72.7,395,70.2,363.7s-20.3-49.9-32.1-55s-18.6-10.2-18.6-10.2V5.1L444.1,16.1z
	"/>
<path class="st1" d="M422.1,0c3.4,19.5-6.8,60.9-3.4,70.2s24.5,33,25.4,43.1c0.8,10.2-16.6,25.4-26.1,40.6
	c-9.4,15.2-4.9,32.1,0,39.8c4.9,7.6,15.7,62.6,10.3,79.5s-14.4,44-15.8,59.2c-1.4,15.2,15.5,46.5,3.7,60.9
	c-11.8,14.4-42.3,29.6-81.2,16.1s-97.3-38.1-114.2-41.4s-49.9-8.5-62.6-28.8s-22-66-33.8-73.6c-11.8-7.6-88-32.1-96.4-38.1
	s-8.5-5.9-8.5-5.9V0H422.1z"/>
<path class="st2" d="M411.6,0c3.4,19.5-6.8,60.9-3.4,70.2s24.5,33,25.4,43.1c0.8,10.2-16.6,25.4-26.1,40.6s-4.9,32.1,0,39.8
	c4.9,7.6,15.7,62.6,10.3,79.5s-14.4,44-15.8,59.2c-1.4,15.2,15.5,46.5,3.7,60.9c-11.8,14.4-64.5-4-83.5,0.1
	c-40.3,8.8-95-22.1-111.9-25.5s-49.9-8.5-62.6-28.8s-22-66-33.8-73.6c-11.8-7.6-88-32.1-96.4-38.1s-8.5-5.9-8.5-5.9V0H411.6z"/>
<path class="st1" d="M402.6,0c3.4,19.5-6.8,60.9-3.4,70.2s24.5,33,25.4,43.1c0.8,10.2-16.6,25.4-26.1,40.6s-4.9,32.1,0,39.8
	s15.7,62.6,10.3,79.5s-14.4,44-15.8,59.2c-1.4,15.2,15.5,46.5,3.7,60.9c-11.8,14.4-42.3,29.6-81.2,16.1s-97.3-38.1-114.2-41.4
	s-49.9-8.5-62.6-28.8s-22-66-33.8-73.6c-11.8-7.6-88-32.1-96.4-38.1S0,221.6,0,221.6V0H402.6z"/>
<path class="st2" d="M224.3,204.5l182.6,21.2c0,0,13.6,24.9,8.5,32.3c-5.2,7.4-10.9,46.5-13.9,50.8c-3,4.2-63.9,13.5-91,9.3
	c-27.1-4.2-102.3-40.6-98.1-60.1C216.5,238.5,224.3,204.5,224.3,204.5"/>
<path class="st1" d="M393.1,275.2c0,0-62.8-8.4-86.5-10.9c-23.7-2.5-80.6-20.4-80.6-20.4l-6.9-17.2c0,0,66.7,20.7,90.1,23.7
	c23.4,3,86.5,11.2,86.5,11.2L393.1,275.2z"/>
<polygon class="st1" points="252.7,221 245.1,266.4 252.7,269.8 261.7,223.4 "/>
<polygon class="st1" points="290.7,228.5 280.6,275.2 290.7,277 299.9,230.4 "/>
<polygon class="st1" points="332.9,234.7 323.9,284.8 332.6,286.9 341.5,236.5 "/>
<polygon class="st1" points="373.9,239.8 363.1,293.1 373.4,295.4 383.4,242.3 "/>
<g>
	<path class="st3" d="M368.3,396.8c-6.3,0-12.2-0.6-18-1.8c-19.7-4.2-42.7-12.7-64.9-20.9c-10.4-3.9-20.3-7.5-29.3-10.5
		c-16.9-5.6-29.7-9.3-40-12.2c-17.6-5-27.3-7.8-36.3-14.5c-13.6-10.2-28.9-52.4-40.1-83.2L138,249c-4.1-11.3-11.2-25.3-18-38.9
		c-10.4-20.7-19.4-38.6-19.4-48.6c0-14.5,8.9-22,17.6-22c2.7,0,5.5,0.8,7.9,2.2c9.2,5.5,18.7,18,21.7,26.3c0.5,1.3,0.9,2.5,1.3,3.8
		c2.3,6.7,3.9,10.9,8.1,11.8c1,0.2,2.3,0.4,3.7,0.4c8,0,19.2-4.1,26.5-15.8c3-4.8,5.1-9.6,6.9-14c3.9-9.4,7.6-18.2,19.2-18.2
		c0.8,0,1.7,0,2.6,0.1c5.1,0.5,9.1,2.9,12,6.9c8,11.3,4.7,32.8,2,44.6c-2.5,10.8-3.8,29.1-1.2,45.5c2.1,13.4,7.7,30.5,22,35.9
		C266,275,308.2,284,342,291.3c50.8,10.8,55.1,12.2,56.7,14.7c0.5,0.8,0.7,1.8,0.4,2.8c-0.7,3.2-2.3,37.9,0,45.6
		c0.2,0.8,0.6,1.8,1,3c2.9,8.9,7.8,23.8,2,32.2c-2.4,3.4-6.1,5.3-11.2,5.5c-1.5,0.1-3.5,0.3-5.8,0.6
		C380.6,396.2,374.9,396.8,368.3,396.8z"/>
	<path class="st4" d="M213.4,139.4c0.7,0,1.5,0,2.2,0.1c16.1,1.7,16.1,25.4,11,47.4c-5.1,22-5.9,74.4,22.8,85.4
		c28.8,11,147.2,32.1,146.3,35.5c-0.8,3.4-2.5,38.9,0,47.4c2.5,8.5,13.5,35.5-5.1,36.4c-4.7,0.2-12.6,1.8-22.5,1.8
		c-5.2,0-11.1-0.4-17.3-1.8c-28.7-6.1-65.8-22-93.9-31.3c-45.7-15.2-61.7-16.1-75.3-26.2c-13.5-10.2-30.5-58.4-40.6-86.3
		c-10.2-27.9-37.2-70.6-37.2-86.3c0-12.1,7.1-18.6,14.2-18.6c2.1,0,4.2,0.6,6.1,1.7c8.5,5.1,17.4,16.9,20.3,24.5
		c2.9,7.6,4.4,16.1,11.8,17.8c1.2,0.3,2.8,0.5,4.4,0.5c8.3,0,21-4,29.4-17.4C200,154.7,199.7,139.4,213.4,139.4 M213.4,132.6
		c-13.8,0-18.3,10.8-22.3,20.3c-1.8,4.4-3.7,8.9-6.6,13.5c-6.6,10.5-16.5,14.2-23.6,14.2c-1.4,0-2.4-0.2-2.9-0.3
		c-2.3-0.5-3.5-3.5-5.6-9.6c-0.4-1.3-0.9-2.6-1.4-3.9c-3.3-8.7-13.1-21.9-23.2-28c-2.9-1.8-6.3-2.7-9.6-2.7c-10.2,0-21,8.9-21,25.5
		c0,10.8,9.2,29,19.8,50.1c6.8,13.4,13.8,27.3,17.8,38.5c0.5,1.5,1.1,3.1,1.7,4.7c14.1,39,27.9,74.7,41.2,84.7
		c9.5,7.1,20,10.1,37.4,15.1c10.2,2.9,22.9,6.5,39.8,12.2c9,3,18.8,6.6,29.2,10.5c22.4,8.3,45.5,16.8,65.4,21.1
		c6,1.3,12.2,1.9,18.7,1.9c6.8,0,12.6-0.7,17.2-1.2c2.2-0.3,4.2-0.5,5.6-0.6c7.7-0.3,11.7-4,13.8-7c6.8-9.8,1.5-25.7-1.6-35.2
		c-0.4-1.2-0.7-2.2-0.9-2.9c-2-6.7-0.7-39.7,0.1-43.9c0.4-1.8,0.1-3.7-0.9-5.3c-1.8-2.9-4-4-21-7.9c-9.9-2.3-23.5-5.2-37.8-8.3
		c-33.8-7.2-75.8-16.2-90.8-21.9c-12.8-4.9-17.8-20.8-19.8-33.3c-2.5-16-1.2-33.7,1.2-44.2c6.3-27.4,2.1-40.8-2.5-47.3
		c-3.4-4.8-8.4-7.7-14.4-8.4C215.4,132.7,214.4,132.6,213.4,132.6L213.4,132.6z"/>
</g>
</svg>
