<?xml version="1.0" encoding="utf-8"?>
<!-- Generator: Adobe Illustrator 25.0.1, SVG Export Plug-In . SVG Version: 6.00 Build 0)  -->
<svg version="1.1" xmlns="http://www.w3.org/2000/svg" xmlns:xlink="http://www.w3.org/1999/xlink" x="0px" y="0px" width="480px"
	 height="480px" viewBox="0 0 480 480" style="enable-background:new 0 0 480 480;" xml:space="preserve">
<style type="text/css">
	.st0{fill:#FFFFFF;}
	.st1{fill:#D3D3D3;}
	.st2{fill:#FFB531;}
	.st3{fill:#4B3659;}
</style>
<g id="Calque_1">
	<g id="Filled_outline">
		<path class="st0" d="M320,472H160c5.3-15.9,8-32.5,8-49.3V360h144v62.7C312,439.5,314.7,456.1,320,472z"/>
		<path class="st1" d="M168,360v52.6c42.6,32.3,101.4,32.3,144,0V360H168z"/>
		<path class="st0" d="M384,152v77.9c0,52.9-19.6,103.8-54.9,143.1c-33.9,37.7-87.8,49.9-134.7,30.7c-1-0.4-2.1-0.9-3.1-1.3
			c-7.7-3.4-15-7.6-21.8-12.5c-1-0.7-1.9-1.4-2.9-2.2c-5.7-4.4-11-9.3-15.8-14.6C115.6,333.7,96,282.8,96,229.9V152
			c0-28.8,8.6-56.9,24.7-80.7c44.6-65.9,134.1-83.1,199.9-38.6C360.3,59.5,384,104.2,384,152z"/>
		<path class="st1" d="M166.7,387.6c-5.7-4.4-11-9.3-15.8-14.6C115.6,333.7,96,282.8,96,229.9V152c0-28.8,8.6-56.9,24.7-80.7
			c19.4,25.4,29.9,56.5,30,88.5v25.1l13.3,66.5c2.6,12.8-5.8,25.3-18.6,27.8c-12.2,2.4-24.2-5-27.5-17l7,25.6
			c0,0,27.4,50.3,42.4,77.4C171.2,372.3,170.9,380.9,166.7,387.6z"/>
		<path class="st1" d="M384,152v77.9c0,52.9-19.6,103.8-54.9,143.1c-33.9,37.7-87.8,49.9-134.7,30.7c6.7-1.8,13.2-4.1,19.5-7
			c17.8-7.9,33.7-19.4,46.7-33.9c40.8-45.4,63.4-104.2,63.4-165.3v-90c0-30.6-8.4-60.7-24.5-86.8C351,44.2,384,95.5,384,152z"/>
		<path class="st2" d="M240,8C160.5,8,96,72.5,96,152v35.3c0-79.5,64.5-144,144-144s144,64.5,144,144V152C384,72.5,319.5,8,240,8z"
			/>
		<path class="st0" d="M143.5,344.1C129.6,318.9,104,272,104,272l-6.5-23.9c3.2,11.8,15.3,18.7,27.1,15.5
			c11.2-3.1,18.1-14.2,15.8-25.6L128,176v-23.4c0-36.2-14.4-71-40-96.6V0H8v146.8c0,3.4,0.6,6.9,1.6,10.1L48,272l59.9,93.7
			c6,9.5,18.6,12.2,28.1,6.2c0.4-0.3,0.8-0.6,1.3-0.9l0.4-0.3C146,364.6,148.5,353.2,143.5,344.1z"/>
		<path class="st0" d="M336.5,344.1C350.4,318.9,376,272,376,272l6.5-23.9c-3.2,11.8-15.3,18.7-27.1,15.5
			c-11.2-3.1-18.1-14.2-15.8-25.6l12.4-62v-23.4c0-36.2,14.4-71,40-96.6V0h80v146.8c0,3.4-0.6,6.9-1.6,10.1L432,272l-59.9,93.7
			c-6,9.5-18.6,12.2-28.1,6.2c-0.4-0.3-0.8-0.6-1.3-0.9l-0.4-0.3C334,364.6,331.5,353.2,336.5,344.1z"/>
		<path class="st3" d="M199.1,279.7l-2.1,0.8l5.9,14.9l2.1-0.8c21.5-8.6,48.3-8.6,69.8,0l2.1,0.8l5.9-14.9l-2.1-0.8
			C255.6,269.6,224.4,269.6,199.1,279.7z"/>
		<rect x="232" y="160" class="st3" width="16" height="88"/>
		<path class="st3" d="M464,0v146.8c0,2.6-0.4,5.1-1.2,7.6l-38,114.1l-59.4,92.9c-1.8,2.9-4.8,4.9-8.2,5.5
			c-7.1,1.1-13.8-3.8-14.9-10.9c-0.4-2.7,0-5.6,1.3-8c13.9-25.3,39.5-72.2,39.5-72.2c0.3-0.5,0.5-1.1,0.7-1.7l6.5-23.7l25.4-80
			l-15.2-4.9l-25.5,80.1l0.1,0c0,0.1-0.1,0.2-0.2,0.3c-2,7.5-9.8,11.9-17.3,9.9c-0.5-0.1-1-0.3-1.5-0.5c-6.3-2.5-9.9-9.2-8.6-15.8
			l12.4-62c0.1-0.5,0.2-1,0.2-1.6v-23.4c-0.1-34.1,13.5-66.9,37.7-90.9c1.5-1.5,2.3-3.5,2.3-5.7V0h-16v52.7
			c-5.5,5.9-10.6,12.2-15.1,18.8C324.7,0.4,231.2-21.5,160,22.7c-19.9,12.3-36.6,29.1-48.9,48.9c-4.5-6.7-9.5-13-15.1-18.8V0H80v56
			c0,2.1,0.8,4.2,2.3,5.7c24.2,24.1,37.7,56.8,37.7,90.9V176c0,0.5,0.1,1.1,0.2,1.6l12.4,62c1.3,6.6-2.3,13.3-8.6,15.8
			c-7.2,2.9-15.4-0.6-18.3-7.8c-0.2-0.5-0.4-1-0.5-1.5c0-0.1-0.1-0.2-0.2-0.3l0.1,0l-25.5-80.1l-15.2,4.9l25.4,80l6.5,23.7
			c0.2,0.6,0.4,1.2,0.7,1.7c0,0,25.6,46.9,39.5,72.2c3.1,5.6,1.6,12.5-4,16.7c-2.7,2.1-6.2,2.9-9.6,2.3c-3.4-0.6-6.4-2.6-8.2-5.5
			l-59.4-92.9l-38-114.1c-0.8-2.4-1.2-5-1.2-7.6V0H0v146.8c0,4.3,0.7,8.6,2.1,12.6l38.4,115.1c0.2,0.6,0.5,1.2,0.8,1.8l59.9,93.7
			c4.3,6.6,11.1,11.2,18.8,12.6c1.6,0.3,3.3,0.4,5,0.4c6.3,0,12.5-2.1,17.5-6c0.3-0.2,0.6-0.5,0.9-0.8c0.6,0.7,1.1,1.4,1.7,2
			c4.6,5.1,9.6,9.7,15,14v30.4c0,15.9-2.6,31.7-7.6,46.8c-1.4,4.2,0.9,8.7,5.1,10.1c0.8,0.3,1.7,0.4,2.5,0.4h160c4.4,0,8-3.6,8-8
			c0-0.9-0.1-1.7-0.4-2.5c-5-15.1-7.6-30.9-7.6-46.8v-30.3c5.3-4.2,10.3-8.9,14.9-13.9c0.6-0.7,1.2-1.4,1.8-2.1
			c0.4,0.4,0.8,0.8,1.2,1.1c12.5,9.4,30.3,6.9,39.7-5.7c0.4-0.6,0.8-1.2,1.2-1.7l59.9-93.7c0.4-0.6,0.6-1.2,0.8-1.8L478,159.5
			c1.4-4.1,2-8.3,2-12.6V0H464z M309.3,464H170.7c3.5-13.5,5.3-27.4,5.3-41.3v-19.2c3.9,2.3,8,4.3,12.1,6.2
			c33,14.7,70.7,14.7,103.8,0c4.1-1.8,8.2-3.9,12.1-6.2v19.2C304,436.7,305.8,450.5,309.3,464z M323.1,367.7
			c-10.5,11.7-23.3,21-37.7,27.4c-28.9,12.8-61.9,12.8-90.8,0c-14.4-6.4-27.3-15.7-37.8-27.5c-1.5-1.6-2.8-3.3-4.2-5
			c2.4-7.4,1.6-15.6-2.2-22.4c-11.6-21-31.2-56.9-37.5-68.4c16.3,3.2,32.1-7.4,35.2-23.7c0.8-3.9,0.7-7.8,0-11.7l-5.4-27.1
			c7.1,0.7,14.2,1.2,21.3,1.2c12.5,0,24.9-1.1,37.2-3.2l-2.8-15.8c-19.5,3.3-39.4,3.8-59.1,1.3l-3.5-17.7v-13.8
			c18.1-9.6,39.9-12,62-6.4l3.9-15.5c-23.3-5.9-46.3-4.2-66.4,4.4c-0.7-11.9-2.8-23.7-6.4-35.1c4-5.7,8.4-11.1,13.3-16.2
			c0.4-0.5,0.9-1,1.4-1.5c0.4-0.4,0.8-0.8,1.6-1.5c9.1-8.9,19.4-16.4,30.6-22.3c10.5-5.7,21.7-9.8,33.3-12.5
			c20.2-4.7,41.2-4.7,61.4,0c11.6,2.6,22.8,6.8,33.3,12.5c11.2,6,21.6,13.5,30.7,22.4c1.1,1,2.1,2,3.2,3.2c4.7,4.9,9.1,10.2,13,15.9
			c-3.6,11.4-5.8,23.2-6.4,35.2c-20-8.6-43.1-10.2-66.4-4.4L282,155c22.2-5.6,44-3.3,62,6.4v13.8l-3.7,18.4
			c-17,1.5-34.1,0.8-50.9-2.1l-2.8,15.8c12.1,2.1,24.4,3.1,36.8,3.1c4.6,0,9.1-0.2,13.6-0.5l-5.3,26.4c-3.3,16.3,7.3,32.1,23.6,35.4
			c3.8,0.8,7.8,0.8,11.6,0c-6.3,11.5-25.9,47.5-37.5,68.4c-3.8,6.8-4.6,14.9-2.1,22.4C326,364.3,324.6,366,323.1,367.7L323.1,367.7z
			"/>
	</g>
</g>
<g id="Calque_2">
</g>
<g id="Calque_4">
</g>
<g id="Calque_3">
</g>
<g id="Calque_5">
</g>
</svg>
