<?xml version="1.0" encoding="utf-8"?>
<!-- Generator: Adobe Illustrator 23.0.1, SVG Export Plug-In . SVG Version: 6.00 Build 0)  -->
<svg version="1.1" id="Layer_1" xmlns="http://www.w3.org/2000/svg" xmlns:xlink="http://www.w3.org/1999/xlink" x="0px" y="0px"
	 viewBox="0 0 190.79 169.92" style="enable-background:new 0 0 190.79 169.92;" xml:space="preserve">
<style type="text/css">
	.st0{fill:#3EB6AC;}
	.st1{fill:#52385A;}
	.st2{fill:#FFFFFF;}
</style>
<g>
	<path class="st0" d="M112.64,162.87"/>
	<path class="st1" d="M0,84.96c0,20.87,4.47,47.7,13.41,65.58c16.4,11.92,52.17,19.38,81.98,19.38c26.83,0,67.07-7.45,81.98-19.38
		c8.94-17.89,13.41-44.72,13.41-65.58c0-20.87-4.47-49.19-13.41-67.07C160.98,7.45,122.22,0,95.39,0C65.58,0,31.3,7.45,13.41,17.89
		C4.47,35.77,0,62.6,0,84.96"/>
	<g>
		<path class="st2" d="M63.28,91.56c0,4.84-1.55,8.56-4.66,11.14c-3.11,2.58-6.97,3.87-11.58,3.87c-2.88,0-5.5-0.49-7.85-1.47
			c-2.35-0.98-4.34-2.66-5.96-5.04c-1.62-2.38-2.43-5.3-2.43-8.77h11.24c0,1.65,0.47,2.91,1.41,3.8s2.14,1.34,3.6,1.34
			c1.51,0,2.72-0.45,3.63-1.34c0.91-0.89,1.37-2.18,1.37-3.87c0-1.46-0.49-2.68-1.47-3.67c-0.98-0.98-2.23-1.47-3.74-1.47h-1.58
			v-9.73h1.58c1.55,0,2.72-0.46,3.5-1.37c0.78-0.91,1.17-1.99,1.17-3.22c0-1.46-0.43-2.6-1.3-3.43c-0.87-0.82-1.92-1.23-3.15-1.23
			c-1.23,0-2.29,0.41-3.15,1.23c-0.87,0.82-1.3,1.94-1.3,3.36H31.33c0-4.48,1.5-8.05,4.49-10.73c2.99-2.67,6.73-4.01,11.21-4.01
			c4.52,0,8.27,1.36,11.24,4.08c2.97,2.72,4.46,6.18,4.46,10.39c0,4.21-1.69,7.38-5.07,9.53C61.4,83.54,63.28,87.08,63.28,91.56z"/>
		<path class="st2" d="M101.05,106.16h-31.4V96.01l17.69-19.19c1.65-1.78,2.47-3.52,2.47-5.21c0-1.37-0.38-2.47-1.13-3.29
			c-0.75-0.82-1.84-1.23-3.26-1.23c-1.23,0-2.3,0.37-3.19,1.1c-0.89,0.73-1.34,1.94-1.34,3.63H69.65c0-4.62,1.52-8.25,4.56-10.9
			c3.04-2.65,6.77-3.98,11.21-3.98c4.62,0,8.37,1.33,11.28,3.98c2.9,2.65,4.35,6.24,4.35,10.76c0,2.38-0.46,4.39-1.37,6.03
			c-0.92,1.65-2.47,3.63-4.66,5.96L83.36,96.01h17.69V106.16z"/>
		<path class="st2" d="M127.92,72.98c0,3.06-0.99,5.42-2.98,7.06c-1.99,1.65-4.44,2.47-7.37,2.47c-2.93,0-5.38-0.82-7.37-2.47
			c-1.99-1.65-2.98-4-2.98-7.06v-6.51c0-3.06,0.99-5.42,2.98-7.06c1.99-1.65,4.44-2.47,7.37-2.47c2.92,0,5.38,0.82,7.37,2.47
			c1.99,1.65,2.98,4,2.98,7.06V72.98z M119.97,72.71v-5.96c0-1.78-0.8-2.67-2.4-2.67c-1.6,0-2.4,0.89-2.4,2.67v5.96
			c0,1.78,0.8,2.67,2.4,2.67C119.17,75.38,119.97,74.49,119.97,72.71z M149.45,57.35l-23.24,48.81h-8.64l23.24-48.81H149.45z
			 M159.8,97.04c0,3.06-0.99,5.42-2.98,7.06c-1.99,1.65-4.44,2.47-7.37,2.47s-5.38-0.82-7.37-2.47c-1.99-1.65-2.98-4-2.98-7.06
			v-6.51c0-3.06,0.99-5.42,2.98-7.06c1.99-1.65,4.44-2.47,7.37-2.47s5.38,0.82,7.37,2.47c1.99,1.65,2.98,4,2.98,7.06V97.04z
			 M151.84,96.77V90.8c0-1.78-0.8-2.67-2.4-2.67s-2.4,0.89-2.4,2.67v5.96c0,1.78,0.8,2.67,2.4,2.67S151.84,98.55,151.84,96.77z"/>
	</g>
</g>
</svg>
