<?xml version="1.0" encoding="utf-8"?>
<!-- Generator: Adobe Illustrator 23.0.1, SVG Export Plug-In . SVG Version: 6.00 Build 0)  -->
<svg version="1.1" id="Layer_1" xmlns="http://www.w3.org/2000/svg" xmlns:xlink="http://www.w3.org/1999/xlink" x="0px" y="0px"
	 viewBox="0 0 380.38 338.62" style="enable-background:new 0 0 380.38 338.62;" xml:space="preserve">
<style type="text/css">
	.st0{fill:#3EB6AC;}
	.st1{fill:#20D0C2;}
	.st2{fill:#FFFFFF;}
	.st3{fill:#FEDB41;}
</style>
<g>
	<path class="st0" d="M190.19,338.62c-54.56,0-128-13.24-162.81-38.56l-0.29-0.21l-0.16-0.32C7.25,260.17,0.27,204.78,0.27,169.31
		c0-49.25,10.21-100.28,26.66-133.16l0.2-0.39l0.38-0.22C62.8,14.94,131.22,0,190.19,0c51.6,0,129.31,14.29,162.74,35.56l0.34,0.22
		l0.18,0.36c18.41,36.83,26.66,93.42,26.66,133.16c0,35.48-6.98,90.87-26.66,130.22l-0.14,0.29l-0.25,0.2
		C324.2,323.11,245.54,338.62,190.19,338.62z M29.4,297.89c30.41,21.91,97.93,37.79,160.79,37.79c54.69,0,132.19-15.16,160.78-37.75
		c12.12-24.4,26.2-72.58,26.2-128.61c0-54.42-13.11-105.14-26.16-131.48C317.82,16.95,241.2,2.94,190.19,2.94
		c-58.3,0-125.82,14.67-160.83,34.91C13.47,69.9,3.21,121.42,3.21,169.31C3.21,204.37,10.08,259.01,29.4,297.89z"/>
	<g>
		<path class="st1" d="M194.53,85.62c65.83,0,119.2,53.36,119.2,119.19c0,65.83-53.36,119.2-119.2,119.2
			c-65.83,0-119.19-53.37-119.19-119.2S128.7,85.62,194.53,85.62z"/>
		<path class="st2" d="M269,111.75c22.17,17.76,37.85,43.27,42.94,72.42c-0.36-0.55-0.72-1.28-1.1-2.35
			c-2.33,0.76-2.4,0.82-5.15,1.28l-0.12,0.17c-1.09,1.56,0.06,0.9-1.87,2.52c-2.29,1.92-3.78,4.55-6.33,6.11
			c-0.31,2.72,0.23,3.33-0.46,6.57c-0.27,1.19-1.6,4.4-3.17,4.16c-0.49-0.09-2.6-5.29-3.09-6.72c-0.84-2.44-1.79-4.25-2.4-7.06
			c-0.35-1.5-0.58-4.37-0.92-5.38c-1.64,0.25-1.56,1.29-3.13,0.19c-1.11-0.79-0.61-1.29-1.22-2.48c-1.3-1.22-2.63-2.44-3.97-3.67
			c-1.03-0.33-5,0.25-6.68,0.06c-3.02-0.28-3.28-0.09-5.07-2.51c-3.17,0.16-2.9,1.34-5.99-1.32c-2.02-1.71-1.64-4.46-4.58-2.91
			c-0.12,2.51,1.11,3.06,2.21,4.22c0.8,0.89,1.79,1.5,2.21,2.69c0.04,0.03,0.23,1.16,0.27,1.32c2.86,0.19,3.55-1.19,5.11-2.35
			c1.53,1.43,0.04,1.68,2.25,2.81c1.75,0.89,1.41,0.37,2.56,1.8c0.57,1.92-3.93,7.15-5.42,8.1c-1.14,0.73-1.75,0.3-2.78,1.16
			c-1.52,1.29,0.19,1.1-2.48,2.08c-2.86,1.04-5.69,3.24-8.7,3.42c-0.65-1.77-1.3-3.57-1.94-5.38c-1.91-6.14-1.83-3.76-3.78-6.94
			c-0.91-1.38-0.53-2.26-1.14-3.48c-0.42-0.92-1.07-1.32-1.64-2.44c-0.88-1.74-1.91-4.46-3.93-4.19c-0.42,1.37,1.87,6.02,2.44,7.15
			c0.57,1.13,1.49,1.62,1.76,3.24c0.38,2.23-0.08,1.95,1.14,3.45c2.56,3.09-0.12,2.54,3.86,5.56c2.98,2.26,2.21,2.94,3.47,5.96
			c1.94,0.55,7.75-2.05,8.73-1.29c1.18,2.11-1.37,5.47-2.02,7.3c-2.14,6.14-5.88,6.05-8.74,10.76c-1.56,2.54-2.29,2.88-3.74,5.93
			c-1.64,3.45,3.32,13.02,0.35,17.02c-0.65,0.92-2.75,1.47-5.38,4.25c-2.79,3.02,0.07,2.5-1,7.55c-0.84,1.16-1.87,1.22-2.9,2.05
			c-0.38,1.19-0.07,2.13-0.72,3.6c-0.69,1.77-0.8,0.82-1.79,2.26c-0.72,1.13-0.65,1.59-1.49,2.63c-0.72,0.95-1.11,1.22-1.79,1.84
			c-3.32,3.06-10.46,3.15-11.07,2.72c-1.68-1.43-0.53-1.8-0.95-3.82c-0.41-1.77-1.35-3.26-2.14-4.63l-0.08-0.14
			c-0.38-0.67-0.72-1.31-0.92-1.92c-1.37-4.34-0.87-7.64-3.28-12.04c-3.02-5.69,1.68-8.65,1.49-11.86
			c-0.08-0.85-0.38-1.37-0.46-2.05c-0.57-3.54-0.91-6.72-3.28-9.5c-2.6-3.02-2.25-1.96-1.42-6.94c1.07-5.71-1.37-4.25-4.81-4.4
			c-1.68-5.19-4.96-2.66-8.24-1.13c-2.06,0.94-2.82-0.28-5.15,0.06c-5.19,0.7-1.11,2.94-8.05-2.57c-2.9-2.29-0.95-1.13-2.67-4
			c-0.57-1.04-2.33-2.41-3.13-3.45c-2.63-3.3,0.5-6.63,0.04-10.42c-0.8-7.03-1.95-0.92,1.98-9.41c2.06-4.52,5.19-4.56,5.99-6.57
			c0.69-1.8,0.23-3.09,1.53-4.73c1.14-1.34,2.79-1.07,3.43-3.18c0.91-2.6-0.84-2.93-2.75-2.99c-0.8-2.72-0.8-2.05-0.19-4.56
			c0.35-1.4,0.04-2.08,0.35-3.48c0.76-3.51,6.75-0.03,8.47-1.46c0.8-1.5,0.91-2.96,0-4.4c-0.96-1.43-2.21-1.25-2.86-2.63
			c1.45-0.98,0.38-0.12,1.64-0.4c1.49-0.33,1.3-0.76,3.05-1.1c1.56-0.31,2.56-1.74,4.08-2.72c2.18-1.4,1.14-2.66,3.78-3.09
			c4.24-0.74,1.49-0.61,1.95-4.56c0.64-0.24,1.26-0.52,1.87-0.79c1.34,1.74-0.34,1.04,1.26,2.2c0.42-0.24,0.92-0.49,1.37-0.73
			c-0.23-1.9-1.11-1.53-1.68-3.88c-2.1,0.33-2.86,2.11-4.54,1.47c-1.64-0.61-1.72-2.96-1.64-4.92c0.61-1.47,3.66-2.26,4.84-2.63
			c1.91-0.64,1.64-1.92,3.4-3.67c2.29-2.29,0.61,0.03,1.72-2.93c2.52-0.09,1.34-0.19,2.82-0.95l0.07-0.03l0.15-0.06
			c0.88-0.4,2.02-0.49,3.17-0.88c4.19-1.4,5.91-0.7,8.96,0.55c2.37,0.98,9.5,1.01,10.04,4.01c-1.72,1.8-3.36,0.49-5.84,0.64
			c0.46,2.32,0.65,2.32,2.75,2.96c0.35-1.1-0.15-0.67,0.42-1.37c0.69,0.15,1.37,0.28,2.06,0.4c0.69-2.36,1.49-2.02,3.82-2.29
			c-0.38-1.62-0.8-1.16,0.07-2.44c2.41,0.25,0.46,0.03,1.64,1.96c1.68-0.22,3.32-2.08,5.65-2.32c1.45-0.15,1.37,0.4,3.43,0.18
			c1.68-0.18,1.6-0.79,3.28-0.09c0.61-1.13,0-1.1,1.49-1.37c2.29-0.4,4.27,1.01,6.49,1.32c-1.64-2.02-3.2-1.62-1.18-4.98
			c2.56-0.52,2.79-0.15,3.89,1.77c0.63-0.35,0.9-0.71,1.2-0.89L269,111.75z M78.12,179.11L78.12,179.11
			c5.37-24.43,18.23-46.05,36.05-62.33c1.39,0.48,3.22,0.16,4.59,0.11c0.49-0.92,0.8-1.71,1.68-2.05c0.35-0.12,0.76-0.15,1.33-0.12
			c0.07,0.46,0.19,0.92,0.3,1.37c0,0.03,0.08,0.34,0.04,0.28c0.04-0.06,0.07,0.18,0.11,0.28c2.4-1.4,0.38-1.44,1.68-3.97
			c-2.02-0.4-1.76-0.16-3.02-1.44c1.22-1.34,3.59-1.8,5.35-1.68c-0.12,1.22-0.69,1.19-0.23,2.23c1.37-0.85,2.33-3.14,4.54-2.72
			c0.42,0.3,0.92,0.58,1.37,0.85c-1.14,1.07-2.86,1.13-4.35,1.74c-0.65,6.63,2.1,1.07,1.18,5.62c1.64-0.12,3.24-1.31,3.85-2.53
			c-0.61-0.79-1.49-0.79-1.98-1.74c0.39-1.22,1.21-2.15,2.37-2.7c0.78-0.38,1.72-0.57,2.79-0.57c12.13,0.09,6.37,0.64,10.11,2.36
			c0.84,0.36,2.33,0.55,2.82,1.29c0.76,1.16,0.04,2.26,1.26,3.18c1.07,0.79,1.22-0.03,2.63,1.74c-0.3,1.01-1.03,2.05-2.52,2.08
			c-2.06,0.03-0.84-1.37-3.05-1.16c0.04,2.08,2.1,2.88,0.19,4c-1.68,1.01-0.61-0.36-1.87,0.34c-0.04,0.03-0.16,0.09-0.19,0.12
			c-0.07,0.06-0.15,0.15-0.19,0.21c-0.23,0.25-0.42,0.46-0.61,0.67c-3.05-0.82-2.48-0.46-4.31-2.47c-0.69-0.76-0.8-0.95-2.02-0.85
			c-0.76,0.03-1.75,0.36-2.48-0.31c1.49-1.87,2.21-0.06,4.39-1.16c0.38-0.19,2.79-2.05,3.17-2.47c-0.65-1.46-0.08-0.25-1.03-1.19
			c-2.14-2.17-2.75-1.62-5.65-1.62c-1.36,1.56-2.37,3.49-3.85,4.34c-0.89,0.52-1.95,0.63-3.36,0.03c0.65,2.63,2.33,0.61,2.48,3.79
			c-1.11-0.22-1.68-0.76-2.82-0.37c-2.44,0.92-0.27,0.82-0.07,1.32c0,0.03,1.14,0.15,0,0.58c-1.26,0.46-0.19-0.25-2.63-1.68
			c0.34-0.61,0.69-1.25,1.03-1.9c-1.98,0.61-4.47,1.59-6.79,2.72c-2.63,1.32-5.12,2.81-6.61,4.19c-0.04,2.29,0.38,0.76,0.61,3.48
			c3.55,0.21,2.4,1.28,5.96,2.29c0.68,0.19,1.56,0.37,2.63,0.55c0,1.71-1.53,2.99-0.46,4.77c2.48,1.74,2.56-1.65,3.17-3.82
			c8.4-1.75,4.35-4.22,6.52-8.84c0.33-0.69,0.79-1.43,1.46-2.22c0.65,0.03,3.28,0.3,3.85,0.43c1.91,0.33,0.88,0.79,2.94,1.71
			c-0.04,1.65-0.88,3.79,1.56,3.39c1.87-0.33,1.45-1.8,3.74-2.17c1.03,2.41,0.76,3.45,1.22,6.36c5.5,2.14,3.05,3.88,1.98,7.89
			c0.69,0.33,1.41,0.64,2.14,0.94c-0.04,1.16-0.08,2.29-0.12,3.43c-0.12,0-5.88-1.26-6.26-1.37c0.88-2.51,2.48-2.54,3.51-5.1
			c-2.06,0.36-1.91,1.01-3.4,1.46c-1.33,0.4-2.36,0.12-3.78,0.31c-0.5,1.65-0.04-1.44,0.12,0.67c0.07,0.8,0.46,0.03-0.08,0.89
			c-1.91-0.89-1.26-2.96-4.81-1.04c0.8,0.37,1.6,0.7,2.44,1.04c-0.11,2.35-0.3,0.58-0.8,2.14c-1.22,4,3.32,1.53,4.5,1.32
			c-0.3,2.11-1.6,2.11-3.44,2.69c-2.02,0.61-2.63,1.44-4.24,1.81c0-2.51-0.38-0.4,0.72-2.14c-1.6,0.15-2.79,0.88-4.31,1.53
			l-0.15,0.06c-1.96,0.8-2.26,0.92-2.48,3.42c-1.68,0.52-3.63,1.1-4.81,2.33c-1.18,1.13-2.37,2.26-3.51,3.36
			c-0.11,0.09-0.19,0.18-0.26,0.25c0.42,3.15,0,3.21-1.91,4.43c-1.6,1.04-2.14,1.01-3.62,2.32c-4.77,4.28-2.48,2.29-2.21,9.66
			c-0.99-0.3-1.95-0.64-2.86-0.98c-0.73-4.89,0.26-3.27-3.66-4.4c-4.24-1.22-3.66,0.85-5.42,1.22c-1.95,0.42-2.9-1.77-5.73,0.06
			c-1.56,1.07-3.05,1.77-3.43,3.67c-0.46,2.29-1.49,3.97-1.34,6.51c0.27,6.88,6.53,7.27,8.13,4.06c1.07-2.14,0.8-3.3,4.28-2.75
			c0.35,1.84-0.19,3.18-0.65,4.58c-0.3,0.82-1.14,2.32-0.72,3.45c2.48,1.01,2.56-0.89,5.84,1.07c0.23,3.27-1.49,6.94,1.03,8.83
			c1.94,1.43,2.06,0.15,3.78-0.15c1.91-0.33,1.57,0.85,3.32,1.13c0.99-1.22,0.57-0.46,1.22-1.96c1.14-2.6,1.45-1.37,4.16-2.96
			c0.26-0.15,0.49-0.3,0.76-0.49c0.3,0.64,0.65,1.25,0.95,1.87c1.98-2.36,2.21-0.06,4.5,0.58c0.98,0.27,1.69,0.37,2.23,0.37
			c1.66,0.03,1.83-0.78,4.11,0.02c0.27,0.13,0.61,0.22,0.92,0.31c0.04,0,0.15,0.06,0.15,0.12c0.04,0.03,0.15,0.12,0.19,0.16
			c0.38,0.42,0.42,0.85,0.72,1.31c1.57,1.5,3.13,2.99,4.65,4.46c3.01,1.19,3.01-1.04,6.45,2.29c1.45,1.37,0.8,1.35,1.6,3.12
			c0.12,0.28,0.34,0.55,0.5,0.89c0.3,0.82,0.65,1.62,0.99,2.41c1.56,2.05,3.7,0.76,5.88,2.88c1.26,1.22,0.3,0.85,3.09,1.34
			c4.31,0.7,2.63,0.31,5.92,2.78c1.26,0.91,1.56,0.39,2.75,1.19c1.64,2.29,1.22,4.77-0.15,6.78c-4.24,6.17-2.79,5.16-2.98,10.05
			c-0.15,2.81-0.95,8.62-3.59,9.32c-9.58,2.69-4.01,4.56-6.52,9.29c-0.72,1.35-1.26,1.68-1.72,2.75c-1.91,4.46-0.57,5.96-6.22,4.95
			c0.53,0.95,0.19,0.3,0.73,1.16c1.68,2.6,1.95,4.56-1.49,5.19c-2.86,0.55-1.64,0-1.91,3.18c-1.11,0.46-1.6,0-2.33,0.74
			c0.99,1.84,0.07,0.31,1.76,1.34c-0.3,1.01-0.53,1.99-0.8,2.96c-0.65,2.38-0.84,0.19-1.07,2.96c0.99,0.46,1.68,0.36,2.56,1.56
			c-0.12,0.92-1.03,3.42-1.3,4.86c1.41,2.11,2.56,4.37,5.57,4.59c-0.04,1.77,0.38,1.59-1.14,1.95c-1.3,0.31-4.05-0.91-5.19-1.53
			c-1.98-1.07-3.82-2.47-5.15-4.49c-0.76-1.13-0.46-0.58-1.26-1.65c-1.45-1.86-0.87-2.72-1.3-3.98c-0.23-0.74-1.41-1.53-0.92-3.91
			c0.12-0.67,1.18-3.88-0.11-3.33c-1.3,0.52,0.99,0.3-0.8,1.16c-0.42-1.16-0.76-2.87-0.99-4.31c-0.46-2.41-1.03-2.51-1.3-3.97
			c-0.57-3.4,0.88-3.76-0.72-9.42c-1.06-3.74-0.63-12.6-1.74-17.14c-0.18-0.72-0.39-1.34-0.66-1.81c-1.03-1.71-3.55-2.5-5.57-3.88
			c-0.12-0.03-0.19-0.06-0.23-0.12c-2.79-1.95-5.42-9.63-7.64-12.49c-1.03-1.38-1.68-0.76-2.14-2.94c-0.49-1.99,0.27-1.65,0.92-3.3
			c-3.4-6.23,4.39-6.14,2.79-13.63c-0.34-1.37-1.33-3.3-2.17-3.91c-1.6,0.7-0.84,1.1-1.68,2.44c-1.3-0.73-2.6-1.47-3.85-2.2
			c-3.93-3.79-1.83-1.04-2.94-3.51c-2.36-5.19-4.62-2.29-7.44-4.86c-1.26-1.07-1.49-2.75-3.59-2.44c-3.17,0.43-1.41,0.92-4.7-0.61
			c-2.79-1.31-5.68-2.84-7.63-4.61c-0.08-2.75,0.92-2.88-0.8-5.44C78.81,179.98,78.47,179.54,78.12,179.11L78.12,179.11
			L78.12,179.11z M115.49,115.6L115.49,115.6c0.74-0.1,0.74-0.42,2.67-0.89c-0.16-0.64-0.27-0.64-0.42-0.88l-0.06-0.12
			C116.94,114.33,116.21,114.97,115.49,115.6L115.49,115.6z M217.49,151.04L217.49,151.04l-0.07-0.05
			c-0.27-0.18-0.53-0.36-0.76-0.58c-1.68-1.5-2.02-2.84-3.89-2.51c-0.04,1.41,0.15,1.47,0.84,2.38c2.59,3.24,1.79,2.14,3.82,3.33
			l0.07,0.04c0.48,0.28,1.03,0.66,1.79,1.21c-2.59,2.29-0.19,2.53-1.79,3.3l-0.07,0.04c-0.15,0.06-0.3,0.12-0.42,0.18
			c-0.53-1.34,0.65-0.7-0.73-2.66c-0.76-1.01-1.49-1.32-2.67-1.87c-2.98-1.4-2.6-2.5-4.43-4.34c-2.06,0.06-1.6,0.71-3.05,1.44
			c-1.75,0.85-1.49-0.15-3.55,0.03c-1.68,2.97,0.72,0.49-2.33,2.94c-3.66,2.84-0.65,5.81-6.52,6.69c-0.42,0.06-0.57,0-0.99,0.15
			c-1.11,0.39-0.46,0.06-1.11,0.7c0.5,1.16-0.19,0.98,1.79,1.25c3.62,0.49,4.09-1.74,6.72-2.29c1.3-0.28,9.43-0.61,10-0.46
			c1.75,1.96,0.3,3.34,0.3,4.98c1.91,1.01,4.62,1.25,5.73,2.29c1.26,1.19,0.65,1.01,1.26,1.22l0.07,0.03
			c0.23,0.07,0.56,0.19,1.15,0.4c1.53,0.52,1.45,0.82,3.09,0.95c1.49-4.98-0.04-4.46,7.14-2.17c7.48,2.45,4.12,0.22,7.29,0.55
			c1.57,0.16,1.15,0.64,3.32,0.37c0.42-0.85,3.51-8.62-0.5-7.64c-1.18,0.3-0.38,0.73-2.06,0.3c-1.76-0.46-0.07-0.79-2.02-0.52
			c-1.91,0.28-4.2,1.96-5.69-3.82c-0.57-2.08-1.6-3.88-3.97-0.74c0.61,1.07,1.03,1.16,1.71,2.2c-0.19,0.3-0.84,1.07-1.07,1.32
			c-1.3,1.28,0.53,0.67-1.56,0.94c-1.14-0.85-0.91-1.95-2.02-3.48c-1.95-2.84-0.69-1.53-1.68-4.25
			C219.85,152.23,218.55,151.71,217.49,151.04z M258.25,233.31L258.25,233.31c-1.68,0.85-1.91,2.81-3.17,3.91
			c-1.37,1.25-3.21,0.67-3.74,2.99c-0.69,2.9,1.15,2.02-0.88,5.81c-0.72,1.4-0.76,4.92,0.35,5.96c3.32,3.21,5.12-4.89,5.88-7.43
			c0.57-1.81,1.11-3.85,1.72-5.53C259.02,237.23,259.9,235.64,258.25,233.31L258.25,233.31L258.25,233.31z M252.76,148.05
			L252.76,148.05c0.27,3.73,2.48,5.17,4.05,6.88c-0.19,1.77-0.61,1.31-0.57,3.79c1.87,1.35,3.24,2.17,5.68,1.5
			c0.34-2.99-0.61-2.84-1.53-4.89c0.15-0.25,0.57-0.55,0.65-0.61c0.69-0.92,0.35,0.36,0.69-1.19c-1.79-0.58-4.7-2.41-4.92-4.83
			c0.88-0.7,0.61-0.28,1.26-0.7c1.41-0.92,0.35,0.48,1.18-1.07c-0.72-1.4-1.53-1.65-3.28-0.95
			C255.2,146.28,253.18,147.72,252.76,148.05z M237.15,149.03L237.15,149.03c-1.18-1.65-1.11-2.47-3.4-2.54
			c-0.91,0.98-1.98,2.44-2.48,3.94c-0.76,2.26-0.23,0.7-0.15,3.15c-0.04,0.09,0,0.22,0,0.3c-0.04,1.47-0.38-0.28-0.16,1.07
			c1.79-0.37,0.42-0.34,1.76-0.76c1.26-0.43,5.12-1.59,6.22-1.31c2.63,0.61,4.84,2.69,7.82,0.61c-0.15-2.66-3.36-3.67-5.57-4.83
			c0.12-2.44,0.76-0.52,0.61-2.87c-0.76-0.03-1.22-0.15-1.95,0.15c-1.72,0.76-0.76,0.98-0.76,1.25c0.08,1.32,1.72-0.28-0.04,1.35
			C238.56,148.98,237.75,148.98,237.15,149.03L237.15,149.03L237.15,149.03z M192.57,130.52L192.57,130.52
			c-0.07,4.28,1.42,2.84,2.83,4.95c-0.65,1.8-0.76,0.4-1.49,2.26c-0.65,1.56,0.15,0.16-0.27,2.88c1.11,0.06,2.75-0.33,4.2-0.46
			c2.06-0.18,2.02-0.37,2.75-2.48c-1.14-1.4-2.29-2.81-3.47-4.21c-1.49-2.26,0-0.71-0.46-2.6c-0.34-0.67-0.65-1.34-0.95-2.02
			C193.72,129.51,193.92,129.32,192.57,130.52L192.57,130.52z"/>
		<path class="st3" d="M274.39,70.25l2.04,47.86c-45.01,45.85-126.2,40.91-163.81,1.46l-0.19-46.77l77.76,32.43L274.39,70.25
			L274.39,70.25L274.39,70.25z"/>
		<path class="st1" d="M55.45,61.65L190.19,14.6l134.75,47.05L190.19,108.7L55.45,61.65z"/>
		<path class="st3" d="M191.73,48.92l-90.49,24.52c-0.89,0.15-1.36,0.65-1.28,1.6l-0.5,40.28c2.93,1.13,5.03,4.13,5.03,7.66
			c0,4.49-3.4,8.13-7.6,8.13c-4.2,0-7.6-3.64-7.6-8.13c0-3.3,1.84-6.14,4.47-7.42l0.51-44.15c-0.09-1.39,0.48-2.45,2.17-2.95
			l91.82-24.51C191.53,42.93,194.96,46.68,191.73,48.92L191.73,48.92L191.73,48.92z M99.39,120.32L99.39,120.32l-0.01-0.01
			l-0.02-0.02l-0.03-0.03l-0.01-0.01l-0.02-0.02l-0.03-0.03l-0.01-0.01l-0.02-0.02l-0.03-0.03l-0.01-0.01l-0.02-0.02l-0.03-0.03
			l-0.01-0.01l-0.02-0.02l-0.03-0.03l-0.01-0.01l-0.02-0.02l-0.03-0.03L99,119.95l-0.02-0.02l-0.03-0.03l-0.01-0.01l-0.02-0.02
			l-0.05-0.03l-0.03-0.02l-0.04-0.03l-0.01-0.01l-0.03-0.02l-0.04-0.02l-0.01-0.01l-0.03-0.02l-0.04-0.02l-0.01-0.01l-0.03-0.01
			l-0.04-0.02l-0.01-0.01l-0.03-0.02l-0.04-0.02l-0.01,0l-0.03-0.01l-0.04-0.02l-0.01,0l-0.03-0.01l-0.04-0.02l-0.01,0l-0.03-0.01
			l-0.04-0.02l-0.01,0l-0.03-0.01l-0.04-0.02l-0.01,0l-0.03-0.01l-0.04-0.02l-0.01,0l-0.03-0.01l-0.04-0.01l-0.01,0l-0.03-0.01
			l-0.04-0.01h-0.01l-0.03-0.01l-0.04-0.01l-0.01,0l-0.04-0.01l-0.04-0.01l-0.01,0l-0.04-0.01l-0.04-0.01l-0.01,0l-0.04-0.01
			l-0.04-0.01h0l-0.04-0.01l-0.04-0.01h0l-0.04-0.01l-0.04-0.01h0l-0.04-0.01l-0.04-0.01h0l-0.04-0.01l-0.04-0.01h0l-0.04,0l-0.04,0
			h0l-0.04,0l-0.04,0h0h-0.04l-0.04,0l0,0l-0.04,0h-0.04l-0.07,0h-0.03l-0.04,0h-0.05h-0.01l-0.07,0H96.6l-0.06,0.01l-0.03,0
			l-0.03,0l-0.06,0.01h-0.01l-0.06,0.01l-0.02,0l-0.05,0.01l-0.04,0.01l-0.02,0l-0.06,0.01l0,0l-0.06,0.01l-0.03,0.01l-0.04,0.01
			l-0.05,0.01l-0.01,0l-0.06,0.02l-0.01,0l-0.05,0.01l-0.03,0.01l-0.03,0.01l-0.05,0.02l-0.07,0.02l-0.02,0.01l-0.04,0.01
			l-0.04,0.02l-0.02,0.01l-0.06,0.03h0l-0.06,0.03l-0.02,0.01l-0.03,0.02l-0.04,0.02l-0.01,0.01l-0.05,0.03l-0.01,0l-0.04,0.03
			l-0.03,0.02l-0.02,0.01l-0.05,0.03l0,0l-0.05,0.03l-0.02,0.01L95,119.76l-0.04,0.02l-0.01,0.01l-0.05,0.04l0,0l-0.05,0.03
			l-0.02,0.02l-0.03,0.02l-0.04,0.03l-0.01,0.01l-0.05,0.04L94.69,120l-0.04,0.03l-0.03,0.03l-0.02,0.02l-0.04,0.04l0,0l-0.05,0.04
			l-0.01,0.01l-0.03,0.03l-0.03,0.03l-0.01,0.01l-0.04,0.04l0,0l-0.04,0.04l-0.02,0.02l-0.02,0.03l-0.03,0.04l-0.01,0.01l-0.04,0.05
			l-0.01,0.01l-0.03,0.04l-0.02,0.03l-0.01,0.02l-0.04,0.05l0,0l-0.04,0.06l-0.04,0.05L94,120.79l-0.01,0.01l-0.03,0.06l0,0.01
			l-0.03,0.05l-0.03,0.06l-0.03,0.05l0,0.01l-0.03,0.06l-0.01,0.01l-0.02,0.04l-0.02,0.03l-0.01,0.02l-0.03,0.06l0,0l-0.03,0.06
			l-0.01,0.02l-0.01,0.04c-0.21,0.48-0.33,1.03-0.33,1.6c0,2.08,1.58,3.77,3.53,3.77s3.53-1.69,3.53-3.77
			c0-1.04-0.39-1.98-1.02-2.66L99.39,120.32z"/>
		<path class="st3" d="M96.02,126.64l-10.27,65.72c-0.17,1.07,3.45,2.52,5.17,0.38c2.27,2.71,5.26,1.6,6.16-0.27
			c1.14,1.86,3.82,2.89,5.76,0.11c1.72,2.14,5.58,0.65,5.29-1.14l-10.21-64.86C97.68,125.61,96.16,125.77,96.02,126.64L96.02,126.64
			z"/>
	</g>
</g>
</svg>
