<?xml version="1.0" encoding="utf-8"?>
<!-- Generator: Adobe Illustrator 23.0.1, SVG Export Plug-In . SVG Version: 6.00 Build 0)  -->
<svg version="1.1" id="Layer_1" xmlns="http://www.w3.org/2000/svg" xmlns:xlink="http://www.w3.org/1999/xlink" x="0px" y="0px"
	 viewBox="0 0 1852.98 512" style="enable-background:new 0 0 1852.98 512;" xml:space="preserve">
<style type="text/css">
	.st0{fill:#FEDB41;}
	.st1{fill:#20D0C2;}
	.st2{fill:#FFFFFF;}
	.st3{fill:#52385A;}
</style>
<g>
	<g>
		<path class="st0" d="M993.84,129.48l-2.48-1.21c-11.26-5.5-15.93-19.07-10.43-30.33S1000,82,1011.26,87.5L993.84,129.48z"/>
		<path class="st1" d="M1097.07,461.7v-92.27c0-16.62-10.81-31.3-26.68-36.23l-84.24-26.14h-78.99l-26.75,48.19l-132,82.99
			c-9.34,5.88-15.02,16.14-15.02,27.18V502l34.19-27.48l126.61-62.2c21.25-10.44,39.36-26.31,52.49-46.02l12.3-18.46l96.28,35.46
			v100c0,10.32,8.37,18.69,18.69,18.69h45.68L1097.07,461.7z"/>
		<path class="st0" d="M1017.49,194.13l60.84-130.59c9.39-20.17,0.66-44.14-19.51-53.54l-42.77,91.8
			c-14.32,30.75-33.36,59.33-57.86,82.81c-2.41,2.31-4.44,5.1-5.94,8.31l-45.1,114.14h79.07l37.63-80.78
			C1029.09,215.04,1026.15,202.1,1017.49,194.13z"/>
		<path class="st2" d="M1022.65,195.1l-4.61-2.14l38.65-82.97l4.61,2.14c22.91,10.67,32.83,37.9,22.16,60.81
			S1045.56,205.77,1022.65,195.1z"/>
		<path class="st3" d="M842.81,447.56c2.63,0,5.21-1.07,7.07-2.93c1.87-1.86,2.93-4.44,2.93-7.07c0-2.63-1.06-5.21-2.93-7.07
			c-1.86-1.86-4.44-2.93-7.07-2.93c-2.63,0-5.21,1.07-7.07,2.93c-1.86,1.86-2.93,4.44-2.93,7.07c0,2.63,1.07,5.21,2.93,7.07
			C837.6,446.49,840.18,447.56,842.81,447.56z"/>
		<path class="st3" d="M1172.47,492h-46.99l-18.41-32.9v-89.67c0-21.12-13.55-39.52-33.72-45.77l-73.23-22.73l32.8-70.42
			c3.21-6.88,4.19-14.3,3.15-21.41c1.95,0.21,3.91,0.32,5.86,0.32c6.44,0,12.9-1.13,19.13-3.4c13.99-5.1,25.16-15.34,31.46-28.85
			c12.28-26.37,2.09-57.53-22.64-71.81l17.51-37.59c11.71-25.14,0.79-55.12-24.35-66.83c-2.41-1.12-5.16-1.24-7.65-0.33
			c-2.49,0.91-4.52,2.77-5.64,5.17l-33.93,72.83c-0.06-0.03-0.11-0.06-0.17-0.09c-7.84-3.83-16.71-4.37-24.96-1.54
			c-8.25,2.84-14.91,8.73-18.74,16.57c-3.83,7.84-4.38,16.71-1.54,24.96c2.64,7.66,7.9,13.95,14.91,17.87
			c-10.19,15.33-21.57,29.05-34.05,41.01c-3.38,3.24-6.1,7.04-8.09,11.31c-0.08,0.18-0.16,0.36-0.23,0.55l-44.86,113.53
			l-25.18,45.38l-129.83,81.62c-12.33,7.75-19.7,21.08-19.7,35.65V492H680.5c-5.52,0-10,4.48-10,10s4.48,10,10,10h491.97
			c5.52,0,10-4.48,10-10S1177.99,492,1172.47,492z M1061.39,123.57c6.53,4.2,11.48,10.38,14.18,17.8
			c3.27,8.98,2.85,18.69-1.18,27.35c-4.03,8.66-11.2,15.23-20.17,18.5c-7.42,2.7-15.34,2.89-22.75,0.59l23.18-49.75L1061.39,123.57z
			 M995.75,119.28c-3.04-1.48-5.33-4.07-6.43-7.27s-0.89-6.64,0.6-9.69c1.48-3.05,4.07-5.33,7.27-6.43s6.64-0.89,9.69,0.6
			c0.17,0.08,0.34,0.14,0.52,0.22l-0.41,0.87c-3.5,7.52-7.24,14.76-11.18,21.72L995.75,119.28z M961.43,196.91
			c0.93-1.92,2.16-3.62,3.68-5.08c24.02-23.02,44.2-51.89,60-85.81l37.82-81.2c8.95,8.74,11.9,22.53,6.32,34.5l-60.29,129.41v0
			l-0.55,1.18c-1.84,3.95-0.91,8.64,2.3,11.59c5.72,5.25,7.36,13.52,4.07,20.56l-34.94,75h-58L961.43,196.91z M821.11,448.22
			c-2.43-4.96-8.43-7-13.38-4.56l-44.56,21.89c-0.66,0.32-1.28,0.72-1.86,1.18l-17.93,14.41v-15.71c0-7.65,3.87-14.64,10.34-18.71
			l132-82.99c1.43-0.9,2.61-2.14,3.42-3.61l23.89-43.05h54.43l-29.12,43.7c-12.13,18.21-28.93,32.94-48.57,42.59l-20.82,10.23
			c-4.96,2.44-7,8.43-4.57,13.39c1.74,3.54,5.29,5.59,8.98,5.59c1.48,0,2.98-0.33,4.4-1.03l20.82-10.23
			c22.8-11.21,42.31-28.3,56.4-49.45l7.92-11.89l82.33,30.33v93.02c0,3.03,0.47,5.95,1.35,8.7H761.79l11.19-9l43.57-21.4
			C821.5,459.17,823.55,453.18,821.11,448.22z M1073.94,492c-4.79,0-8.69-3.9-8.69-8.69v-100c0-4.19-2.61-7.93-6.54-9.38
			l-84.38-31.08l16-24.02l77.1,23.93c11.75,3.65,19.65,14.37,19.65,26.68v92.27c0,1.71,0.44,3.39,1.27,4.88l14.21,25.41H1073.94z"/>
	</g>
	<g>
		<path class="st0" d="M1699.9,376.82V270l-27.61-232.45c-1.87-15.71-15.19-27.55-31.01-27.55h-33.04l19.07,25v316.2
			c0,20.77-9.3,40.44-25.35,53.61l-1.92,1.57c-16.05,13.18-25.35,32.85-25.35,53.61c0,23.2,18.8,42,42,42h99.42
			c19.25,0,33.35-18.14,28.59-36.8l-14.95-58.6c-5.43-21.32-26.66-34.6-48.2-30.17l-2.8,0.57l16.66,83h-58.13h70.72L1699.9,376.82z"
			/>
		<path class="st1" d="M1699.9,270l-27.61-232.45c-1.87-15.71-15.19-27.55-31.01-27.55h-33.04l19.07,25v235H1699.9z"/>
		<path class="st2" d="M1574.68,460c0-23.2-18.8-42-42-42h-16.62c-23.2,0-42,18.8-42,42s18.8,42,42,42h16.62
			C1555.88,502,1574.68,483.19,1574.68,460z"/>
		<path class="st0" d="M1465.43,454.33l-2.77,0.94c-12.55,4.27-19.26,17.9-14.99,30.45c4.27,12.55,17.91,19.26,30.45,14.99
			l12.05-4.1"/>
		<path class="st3" d="M1842.98,492h-92.53c5.05-8.84,6.5-19.22,3.94-29.27l-14.95-58.61c-4.09-16.06-15.36-28.42-29.55-34.46V270
			c0-0.38-0.03-0.75-0.07-1.12c0-0.02,0-0.04,0-0.06l-27.61-232.45C1679.75,15.64,1662.15,0,1641.27,0h-33.04
			c-3.8,0-7.28,2.16-8.96,5.56c-1.69,3.41-1.29,7.48,1.02,10.5l17.02,22.31V132c0,5.52,4.48,10,10,10s10-4.48,10-10V35
			c0-2.19-0.72-4.32-2.05-6.07l-6.82-8.93h12.84c10.75,0,19.81,8.05,21.08,18.73L1688.64,260h-51.34v-39c0-5.52-4.48-10-10-10
			s-10,4.48-10,10v130.2c0,17.84-7.91,34.56-21.7,45.88l-1.92,1.58c-9.27,7.61-16.55,17.05-21.5,27.58
			c-9.54-11.15-23.71-18.24-39.5-18.24h-16.62c-23.24,0-42.96,15.32-49.61,36.39c-1.39-0.15-2.84-0.01-4.25,0.47l-2.76,0.94
			c-17.75,6.04-27.28,25.39-21.24,43.14c0.36,1.05,0.78,2.06,1.22,3.05h-88.42c-5.52,0-10,4.48-10,10s4.48,10,10,10h491.97
			c5.52,0,10-4.48,10-10S1848.5,492,1842.98,492z M1464.34,465.38c1,9.68,4.67,18.58,10.26,25.95c-7.22,2.27-15-1.62-17.46-8.83
			C1454.84,475.73,1458.04,468.4,1464.34,465.38z M1516.06,492c-17.64,0-32-14.36-32-32s14.36-32,32-32h16.62
			c17.64,0,31.99,14.35,32,31.99V460v0.01c-0.01,17.64-14.36,31.99-32,31.99H1516.06z M1616.68,492c-17.64,0-32-14.35-32-31.99
			c0,0,0-0.01,0-0.01s0-0.01,0-0.01c0-17.84,7.91-34.56,21.7-45.88l1.92-1.58c18.43-15.13,29.01-37.49,29.01-61.34V280h52.59v85.57
			c-3.42,0-6.88,0.34-10.36,1.05l-2.8,0.57c-5.39,1.11-8.88,6.37-7.79,11.77l14.26,71.03h-45.92c-5.52,0-10,4.48-10,10
			s4.48,10,10,10h58.13c3,0,5.84-1.34,7.74-3.66c1.9-2.32,2.66-5.37,2.07-8.3l-14.55-72.45c13.67,0.34,25.87,9.68,29.39,23.48
			l14.95,58.61c1.5,5.88,0.22,12-3.5,16.79s-9.34,7.54-15.41,7.54H1616.68z"/>
		<path class="st3" d="M1627.3,185c2.64,0,5.22-1.07,7.07-2.93c1.87-1.86,2.93-4.44,2.93-7.07s-1.06-5.21-2.93-7.07
			c-1.85-1.86-4.43-2.93-7.07-2.93c-2.63,0-5.21,1.07-7.07,2.93s-2.93,4.44-2.93,7.07s1.07,5.21,2.93,7.07S1624.67,185,1627.3,185z"
			/>
	</g>
	<g>
		<path class="st2" d="M315.55,121.68c20.51,0,37.14-16.63,37.14-37.14V69.85c0-20.51-16.62-37.14-37.14-37.14
			c-20.51,0-37.14,16.63-37.14,37.14v14.69C278.42,105.05,295.04,121.68,315.55,121.68z"/>
		<path class="st0" d="M320.56,26.84l-0.83-2.44c-3.77-11.09-15.83-17.03-26.92-13.25c-11.09,3.77-17.03,15.83-13.25,26.92
			l3.62,10.65"/>
		<path class="st3" d="M330.4,25.12c-0.09-0.5-0.2-1-0.38-1.5l-0.83-2.44c-2.69-7.9-8.29-14.27-15.77-17.96
			c-7.48-3.68-15.95-4.23-23.84-1.55c-16.3,5.55-25.05,23.32-19.5,39.61l2.86,8.41c-2.9,6.11-4.53,12.94-4.53,20.14v14.69
			c0,25.99,21.15,47.14,47.14,47.14c25.99,0,47.14-21.15,47.14-47.14V69.85C362.69,49.04,349.14,31.36,330.4,25.12z M296.03,20.61
			c2.84-0.96,5.88-0.77,8.57,0.55c1.16,0.57,2.18,1.33,3.05,2.22c-7.06,1.2-13.59,3.97-19.22,7.95
			C288.39,26.63,291.34,22.21,296.03,20.61z M342.69,84.54c0,14.96-12.17,27.14-27.14,27.14s-27.14-12.17-27.14-27.14V69.85
			c0-14.96,12.17-27.14,27.14-27.14s27.14,12.17,27.14,27.14V84.54z"/>
		<path class="st1" d="M313.3,124.85l-18.64-9.26L177.5,10.01h-45l106.42,108.11c5.85,5.94,6.92,15.09,2.6,22.22l-20.85,34.39
			c-8.39,13.83-23.39,22.28-39.56,22.28c-13.12,0-25.62-5.57-34.39-15.32l-30.75-34.19l29.86-77.29
			c8.08-20.91,2.83-44.64-13.33-60.19L74.81,135.1c-4.74,10.29-3.75,22.3,2.62,31.68l60.74,89.36l18.87,220.95
			c1.2,14.09,12.99,24.92,27.14,24.92H217l-22.42-40.06V308.13c0-20.9,13.57-39.38,33.52-45.63c39.28-12.32,71.7-40.36,89.54-77.45
			l9.38-19.5C334.25,150.51,328.16,132.44,313.3,124.85z"/>
		<path class="st0" d="M202.02,192.01c16.18,0,10.27-3.45,18.65-17.28l20.85-34.39c4.32-7.13,3.25-16.29-2.6-22.22L132.5,10.01h45
			l117.16,105.58l18.64,9.26c14.86,7.59,20.95,25.66,13.71,40.7l-9.38,19.5c-17.85,37.09-50.27,65.13-89.54,77.45L202.02,192.01z"/>
		<path class="st0" d="M324.92,169.91l74.32-27.57c9.38-3.48,16.09-11.8,17.52-21.7l9.43-65.53c3.02-20.94-10.69-40.64-31.38-45.09
			l-13.66,96.64l-60.36,23.58"/>
		<path class="st3" d="M154.62,373.19c1.86-1.86,2.93-4.43,2.93-7.07c0-2.63-1.07-5.21-2.93-7.07c-1.86-1.86-4.43-2.93-7.07-2.93
			c-2.63,0-5.21,1.07-7.07,2.93c-1.86,1.86-2.93,4.44-2.93,7.07c0,2.64,1.07,5.21,2.93,7.07c1.86,1.87,4.44,2.93,7.07,2.93
			C150.19,376.12,152.77,375.06,154.62,373.19z"/>
		<path class="st3" d="M501.96,492h-279.1l-18.28-32.67v-151.2c0-16.62,10.65-31.12,26.51-36.09c2.25-0.7,4.47-1.47,6.68-2.27
			c0.03-0.01,0.05-0.02,0.08-0.03c38.74-14.11,70.86-43.07,88.8-80.35l5.54-11.51l70.54-26.17c12.82-4.76,21.99-16.12,23.94-29.65
			l9.43-65.53c3.75-26.03-13.46-50.76-39.17-56.29c-2.71-0.59-5.55-0.02-7.82,1.57c-2.28,1.59-3.79,4.05-4.18,6.8l-12.84,90.86
			l-49.47,19.32c-1.5-1.04-3.08-2-4.76-2.85c-0.03-0.02-0.07-0.04-0.1-0.05l-17.41-8.65L184.19,2.58c-1.84-1.66-4.22-2.57-6.7-2.57
			h-44.95c-0.23,0-0.45,0-0.68,0.02c0,0-0.01,0-0.02,0c-1.36,0.09-2.67,0.45-3.86,1.05c0,0-0.01,0-0.02,0.01c0,0-0.01,0-0.01,0.01h0
			c-0.48,0.24-0.93,0.52-1.37,0.84c0,0-0.01,0.01-0.02,0.01c0,0,0,0,0,0c0,0-0.01,0-0.01,0.01c0,0,0,0,0,0c0,0-0.01,0-0.01,0.01
			c-1.32,0.97-2.41,2.28-3.13,3.82V5.8c0,0,0,0.01,0,0.01c0,0-0.01,0.01-0.01,0.02L65.73,130.91c-6.18,13.39-4.86,29.29,3.43,41.48
			l59.27,87.2l5.49,64.27c0.47,5.5,5.32,9.57,10.82,9.11c5.5-0.47,9.58-5.32,9.11-10.82l-5.71-66.88c-0.15-1.71-0.73-3.36-1.7-4.77
			L85.7,161.15c-4.37-6.43-5.06-14.8-1.81-21.87l50.7-109.93c5.82,11.36,6.69,24.86,1.91,37.24l-29.86,77.29
			c-1.36,3.52-0.62,7.49,1.89,10.29l30.75,34.19c10.65,11.85,25.9,18.64,41.83,18.64c5.43,0,10.77-0.8,15.87-2.32l23.74,49.83
			c-21.8,8.77-36.14,29.77-36.14,53.61v153.81c0,1.71,0.44,3.39,1.27,4.88L199.95,492h-15.77c-9.02,0-16.4-6.78-17.17-15.77
			l-6.08-71.16c-0.47-5.5-5.31-9.58-10.82-9.11c-5.5,0.47-9.58,5.31-9.11,10.81l6.08,71.16c0.43,5.07,1.85,9.82,4.04,14.07H10
			c-5.52,0-10,4.48-10,10c0,5.52,4.48,10,10,10h491.96c5.52,0,10-4.48,10-10C511.96,496.48,507.48,492,501.96,492z M384.8,115.97
			c3.36-1.31,5.76-4.34,6.26-7.91l11.87-83.98c9.53,6.29,15.07,17.72,13.36,29.61l-9.43,65.53c-0.9,6.27-5.16,11.54-11.1,13.75
			l-55.68,20.66c0.25-6.5-1.08-12.9-3.8-18.7L384.8,115.97z M154.15,174.99l-26.64-29.63l27.65-71.56
			c2.78-7.19,4.23-14.64,4.42-22.04l72.22,73.37c2.64,2.68,3.12,6.8,1.17,10.02l-20.85,34.39c-6.53,10.77-18.41,17.46-31.01,17.46
			C170.84,187.01,161.02,182.63,154.15,174.99z M229.22,179.91l20.85-34.39c6.7-11.05,5.05-25.21-4.02-34.42l-89.67-91.09h17.28
			l114.31,103.01c0.68,0.61,1.43,1.12,2.24,1.53l18.59,9.23c1.8,0.93,3.41,2.08,4.81,3.4c0.11,0.11,0.22,0.21,0.32,0.31
			c6.16,6.06,8.04,15.48,4.07,23.73l-9.38,19.5c-14.34,29.81-39.06,53.52-69.09,66.79l-24.68-51.8
			C220.54,191.45,225.46,186.12,229.22,179.91z"/>
	</g>
</g>
</svg>
