<?xml version="1.0" encoding="utf-8"?>
<!-- Generator: Adobe Illustrator 25.0.0, SVG Export Plug-In . SVG Version: 6.00 Build 0)  -->
<svg version="1.1" id="ac4efed3-479d-4629-94aa-2ad5ea7e3c6a"
	 xmlns="http://www.w3.org/2000/svg" xmlns:xlink="http://www.w3.org/1999/xlink" x="0px" y="0px" width="752px" height="823px"
	 viewBox="0 0 752 823" style="enable-background:new 0 0 752 823;" xml:space="preserve">
<style type="text/css">
	.st0{fill:#FFFFFF;}
	.st1{fill:#4B3659;}
</style>
<circle class="st0" cx="376" cy="376" r="376"/>
<path class="st1" d="M416.4,823l40.1-145.7c0,0,108.2-102.5,101.9-184.6c-0.2-2.7,0-2.9,0-2.9l-1.4-20.6c-0.2-3.7-3.5-6.5-7.2-6.3
	c-1.8,0.1-3.5,1-4.7,2.4l-21.4,25.3L516,501c0,0-19,23-54.1,12.6l-11.3-1.7c0,0-28.2,13.6-66.2-8.1c0,0,13.4,15.9-19.2-16.7
	s-76.4-83.5-76.4-83.5l0,0c-6.8-7.3-2-27.6,7.9-28.2c22.6-1.4,48.3-7.4,55.6-15.5c2.8-3.1,4.8-6.7,6.1-10.7l0,0
	c5.2-15.9-3.5-33-19.4-38.1c-2-0.7-4.1-1.1-6.2-1.3c-26.3-2.8-69-4.9-81.2-0.2c-1.2,0.5-2.3,1-3.4,1.5
	c-15.1,7.8-25.1,22.9-26.4,39.8c-3.4,42-7.9,134,12.8,183l25.8,61l-79.8,226.3L416.4,823z"/>
<path class="st0" d="M531,480c0,0-33.4,9.2-34.4-23.4c0,0-2.3-152.9-116.6-97.9S322.1,492,322.1,492s15.7,0.4,12.6,12.2
	c-3.1,11.8-7.9,26.4-7.9,26.4s-0.4,13.5,15.6,8.7c0,0,4.7,2.1-1.8,11.1c0,0,2.9,13.2,11.1,9.8c0,0-5.7,1.9-2.8,6.7s3.9,9.2,8.9,6.2
	s9.2,1,9.2,1s0.8,29.4,29.6,11.8s26.1-27.6,40.1-24.5c1.4,0.3,2.7,0.5,4.1,0.7c17.4,1.8,34.5-5.9,44.8-20.1L531,480z"/>
<path class="st1" d="M523.6,402.6c-1,0-2.1,0.1-3.1,0.2c-9,0.9-17.2,5.9-22,13.6L465.6,468c-7.3,11.4-3.9,26.5,7.5,33.8
	c3.1,2,6.7,3.3,10.4,3.7l0.6,0.1c7.8,0.8,15.5-2.2,20.7-8.1l40.6-45.6c10.2-11.3,10.1-28.6-0.4-39.8c-0.2-0.2-0.4-0.4-0.6-0.6l0,0
	C539,405.7,531.5,402.5,523.6,402.6z"/>
<path class="st1" d="M475.3,347.8c-10.6,0-20.4,5.4-26,14.3l-48.5,76.9c-5.3,8.3-6.2,18.7-2.5,27.8c3.6,9.1,11.3,15.8,20.8,18.1
	c0.3,0.1,0.7,0.2,1,0.2c11.9,2.7,24.1-2,31.3-11.8c14.1-19.3,39.7-55.1,52.4-77.8c6.1-10.7,5.1-24-2.5-33.7l0,0
	c-1.5-1.9-3.1-3.7-4.8-5.4C490.8,350.9,483.2,347.8,475.3,347.8z"/>
<path class="st1" d="M414.7,304.2c-14.4,0.1-27.1,9.6-31.2,23.4c-9.3,31.2-29,64.1-39.9,81c-3.6,5.7-4.8,12.6-3.2,19.2
	c1.5,6.3,5.5,11.7,11.1,14.9c0.4,0.2,0.8,0.4,1.2,0.6c14.8,7.7,33.3,2.3,42.2-12.3l47.2-77.3c5.5-8.9,6.4-19.9,2.4-29.6
	c-3.7-9.4-11.7-16.4-21.5-18.9c-0.6-0.2-1.3-0.3-1.9-0.4C419,304.4,416.9,304.2,414.7,304.2z"/>
<path class="st1" d="M308.1,295.3c4.3,0.4,9.2,0.7,14.3,1c18.2,1.1,38.8,2.4,44.8,10.1l1.2-3.1c3.3-9.4,1.8-19.8-3.9-27.9
	c-5.4-8-14.2-12.9-23.8-13.2l0,0c-0.6,0-1.2,0-1.9,0c-15.8,0.2-29.2,12.9-30.3,28.9C308.3,292.5,308.2,293.8,308.1,295.3z"/>
<path class="st1" d="M345.2,381.5c-0.4,0-0.7,0.1-1,0.3l0,0c-14,8.6-36.9,10.5-49.3,10.8c-1.1,0-2,0.7-2.5,1.6
	c-0.4,0.9-0.3,2,0.4,2.8c5.4,6.3,18,13.7,29.8,15.3c9.8,1.3,19.4-17.2,24.2-28.3c0.3-0.7,0.1-1.6-0.5-2.1
	C346.1,381.6,345.6,381.5,345.2,381.5z"/>
</svg>
