<?xml version="1.0" encoding="utf-8"?>
<!-- Generator: Adobe Illustrator 25.0.0, SVG Export Plug-In . SVG Version: 6.00 Build 0)  -->
<svg version="1.1" id="b4f8c86a-fea8-4128-b90b-b7c767633065"
	 xmlns="http://www.w3.org/2000/svg" xmlns:xlink="http://www.w3.org/1999/xlink" x="0px" y="0px" width="871px" height="477px"
	 viewBox="0 0 871 477" style="enable-background:new 0 0 871 477;" xml:space="preserve">
<style type="text/css">
	.st0{fill:#F2F2F2;}
	.st1{fill:#FFFFFF;}
	.st2{fill:#2F2E41;}
	.st3{fill:#A0616A;}
	.st4{fill:#37BDAF;}
	.st5{fill:#3F3D56;}
	.st6{fill:#FF6584;}
	.st7{fill:#FFB8B8;}
</style>
<path class="st0" d="M158.6,473.3c-63.3-16.5-107.1-74-106.1-139.4c0.1-7.9,1-16,4.3-23.2s9.5-13.4,17.2-15.1
	c8.4-1.9,17.3,1.9,23.6,7.9c6.3,5.9,10.4,13.7,14.2,21.5c22.8,46.7,40.2,96.9,46.7,148.5L158.6,473.3z"/>
<path class="st1" d="M70.2,297.2l16,36.4l16,36.4c5.1,11.5,10.1,23,15.4,34.5c5.2,11.3,10.6,22.6,16.3,33.7
	c5.7,11.1,11.8,21.9,18.4,32.5c0.8,1.3,1.7,2.6,2.5,3.9c0.6,0.9,2,0.1,1.4-0.8c-6.7-10.5-12.9-21.3-18.7-32.3
	c-5.8-11-11.3-22.3-16.5-33.6c-5.3-11.4-10.3-22.8-15.4-34.3c-5.3-12.1-10.6-24.2-15.9-36.2l-16-36.4l-2-4.5
	C71.2,295.4,69.8,296.2,70.2,297.2L70.2,297.2z"/>
<path class="st0" d="M151.9,473.6c-37.3,8.5-75.6-9.5-92.7-43.7c-2.1-4.1-3.8-8.6-4-13.2s1.3-9.5,4.9-12.5c3.9-3.2,9.5-3.7,14.4-2.3
	s9.1,4.3,13.2,7.3c24.5,18.1,47,39.4,64.3,64.5L151.9,473.6z"/>
<path class="st1" d="M58.5,406l18.1,14.6l18.1,14.6c5.7,4.6,11.5,9.2,17.3,13.8c5.8,4.5,11.6,8.9,17.6,13.1
	c6,4.2,12.1,8.2,18.3,11.9c0.8,0.5,1.6,0.9,2.4,1.4c0.5,0.3,1.1-0.5,0.5-0.8c-6.3-3.6-12.5-7.6-18.5-11.7c-6-4.2-11.9-8.5-17.6-13
	c-5.8-4.5-11.5-9.1-17.3-13.7c-6-4.8-12-9.7-18.1-14.5L61.3,407l-2.3-1.8C58.5,404.8,58,405.6,58.5,406L58.5,406z"/>
<path class="st0" d="M720.3,472.4c88.2-23,149.3-103.2,147.9-194.4c-0.2-11-1.3-22.3-6-32.3s-13.3-18.7-24-21
	c-11.8-2.6-24.2,2.7-32.9,11s-14.5,19.2-19.8,30c-31.8,65.2-56,135.1-65.1,207.1L720.3,472.4z"/>
<path class="st1" d="M843.5,226.8l-22.3,50.7l-22.3,50.7c-7.1,16.1-14.1,32.1-21.4,48.1c-7.2,15.8-14.7,31.5-22.7,47
	c-8,15.4-16.5,30.6-25.7,45.3c-1.1,1.8-2.3,3.7-3.5,5.5c-0.8,1.3-2.8,0.1-2-1.2c9.4-14.6,18-29.7,26.1-45.1
	c8.1-15.4,15.7-31,23-46.8c7.3-15.9,14.4-31.9,21.5-47.9c7.4-16.8,14.8-33.7,22.2-50.5l22.3-50.7l2.8-6.3
	C842.1,224.3,844.1,225.5,843.5,226.8L843.5,226.8z"/>
<path class="st0" d="M729.6,472.8c52,11.9,105.4-13.3,129.3-61c2.9-5.8,5.3-11.9,5.6-18.4s-1.8-13.3-6.8-17.4
	c-5.4-4.5-13.3-5.1-20.1-3.2s-12.7,6-18.4,10.2c-34.1,25.2-65.6,55-89.7,89.9L729.6,472.8z"/>
<path class="st1" d="M859.9,378.5l-25.3,20.3l-25.3,20.3c-8,6.4-16,12.9-24.1,19.2c-8,6.3-16.2,12.4-24.5,18.3
	c-8.3,5.9-16.8,11.4-25.6,16.6c-1.1,0.6-2.2,1.3-3.3,1.9c-0.8,0.4-1.5-0.7-0.7-1.2c8.8-5.1,17.4-10.6,25.7-16.3
	c8.4-5.8,16.5-11.9,24.6-18.1c8.1-6.3,16.1-12.7,24.1-19.1c8.4-6.7,16.8-13.5,25.2-20.2l25.3-20.3l3.1-2.5
	C859.8,376.8,860.5,378,859.9,378.5L859.9,378.5z"/>
<path class="st2" d="M215.9,146.9L215.9,146.9l-8.3,7l-57.4,12.7c-7.4,3-11,11.5-8,18.9s11.5,11,18.9,8l36.5-6.1c2-0.3,4-0.8,6-1.4
	c0.8-0.2,1.5-0.5,2.3-0.8c3.2-14.1,7.8-28,13.6-41.3L215.9,146.9z"/>
<path class="st3" d="M692.3,182.1l-7.9,0l-4.2,0l-24.4-42.6c0.2-0.4,0.4-0.9,0.5-1.4c2.7-8.4-4.4-14.1-11.2-14
	c-0.8,0-1.5,0.1-2.3,0.3c13.4,24.3,22.4,50.7,26.6,78.2c0.7,0.2,1.4,0.3,2.1,0.4c3.7,0.3,7.5,0.2,11.1-0.4c5-0.6,9.7-1.5,12.2-1.3
	L692.3,182.1z"/>
<path class="st1" d="M435.9,474c-130.1,0-236-105.9-236-236c0-32.4,6.6-64.4,19.6-94.1C255.9,60.5,339.2,2,435.9,2
	c89,0,166.6,49.5,206.8,122.3c13.4,24.3,22.4,50.7,26.6,78.2c1.8,11.8,2.7,23.6,2.7,35.5C671.9,368.1,566.1,474,435.9,474z"/>
<path class="st4" d="M718.5,182.9l-29.2-4.1c-2.2-0.3-4.3,1.1-4.9,3.2c-0.1,0.2-0.1,0.4-0.1,0.6l-2.3,16.8c-0.3,2.5,1.4,4.7,3.8,5.1
	l29.2,4.1c7.1,1,13.7-4,14.7-11.1S725.6,183.9,718.5,182.9L718.5,182.9L718.5,182.9z"/>
<path class="st5" d="M358.7,214c-27.6,0-50-22.4-50-50c0-27.6,22.4-50,50-50c27.6,0,50,22.4,50,50c0,13.4-5.4,26.2-14.9,35.6
	C384.5,208.9,371.8,214,358.7,214z M358.7,116c-26.5,0-48,21.5-48,48s21.5,48,48,48c26.5,0,48-21.5,48-48c0,0,0,0,0,0
	C406.7,137.5,385.2,116,358.7,116z"/>
<path class="st5" d="M512.7,214c-27.6,0-50-22.4-50-50s22.4-50,50-50s50,22.4,50,50C562.7,191.6,540.3,214,512.7,214z M512.7,116
	c-26.5,0-48,21.5-48,48s21.5,48,48,48s48-21.5,48-48C560.7,137.5,539.2,116,512.7,116z"/>
<path class="st5" d="M393.1,198.9c-19.1,18.8-49.8,18.8-68.8,0c8.9-19,31.5-27.2,50.6-18.3C382.9,184.4,389.3,190.8,393.1,198.9z"/>
<path class="st5" d="M547.1,198.9c-19.1,18.8-49.8,18.8-68.8,0c8.9-19,31.5-27.2,50.6-18.3C536.9,184.4,543.3,190.8,547.1,198.9z"/>
<path class="st5" d="M403.7,246c0-5.5,17.9-10,40-10s40,4.5,40,10s-17.9,26-40,26S403.7,251.5,403.7,246z"/>
<circle class="st6" cx="310.2" cy="227.5" r="17"/>
<circle class="st6" cx="561.7" cy="228" r="17"/>
<polygon class="st7" points="197.9,463.4 210.1,463.4 216,416.1 197.9,416.1 "/>
<path class="st2" d="M233.8,476.7l-38.5,0l0,0l0-14.9l0,0l23.6,0C227.1,461.9,233.8,468.5,233.8,476.7L233.8,476.7L233.8,476.7z"/>
<polygon class="st7" points="136.9,463.4 149.1,463.4 155,416.1 136.9,416.1 "/>
<path class="st2" d="M172.8,476.7l-38.5,0l0,0l0-14.9l0,0l23.6,0C166.1,461.9,172.8,468.5,172.8,476.7L172.8,476.7L172.8,476.7z"/>
<path class="st2" d="M201.2,270.6L212,356c1.5,11.7,2.5,23.5,3.1,35.3l2.9,58.1c0.1,2.2-1.6,4.1-3.8,4.2c-0.1,0-0.1,0-0.2,0h-16.4
	c-2,0-3.7-1.4-4-3.4L179,353.3c-0.2-1.1-1.2-1.8-2.3-1.7c-0.8,0.1-1.5,0.8-1.7,1.6l-17.7,94.9c-0.4,1.8-1.8,3.1-3.6,3.2l-15.1,1
	c-2.2,0.2-4.1-1.5-4.3-3.7c0-0.1,0-0.3,0-0.4l4.9-155.6L201.2,270.6z"/>
<circle class="st7" cx="153.5" cy="124.5" r="24.6"/>
<path class="st1" d="M134.2,294.6c6,14,32,24,38,4c4.6-15.5,23-22,31.1-24.1c2.1-0.6,3.4-2.7,2.9-4.9l-22.7-89
	c-2.7-10.5-10.7-18.9-21.1-22.2c-18-5.6-37,5.9-40.1,24.5c-0.8,5.2-1.4,10.5-1.6,15.8C118.9,238,130.3,285.4,134.2,294.6z"/>
<path class="st7" d="M270.6,214.4c-4.6-3.2-10.8-2-14,2.6c-0.3,0.5-0.6,1-0.9,1.5l-35.6-3.4l8.7,16.4l32.4,0.7
	c5.2,2,11.1-0.7,13-5.9C276,222,274.5,217,270.6,214.4z"/>
<path class="st2" d="M252.9,232.6c-0.9,1-2.1,1.5-3.4,1.5l-46.4-1.1c-11.2,0-22.1-4.1-30.5-11.5l-27.8-24.4
	c-7-3.8-9.6-12.7-5.8-19.7c3.8-7,12.7-9.6,19.7-5.8c0,0,0,0,0,0l46.1,36.4l44.9,8.7c1.8,0.5,3.2,2,3.4,3.9l0.9,8.5
	c0.1,0.9-0.1,1.8-0.5,2.6C253.4,232.1,253.2,232.4,252.9,232.6z"/>
<path class="st2" d="M134.8,144.5c1.9,1.1,4.4,0.5,5.5-1.4c0.2-0.3,0.3-0.6,0.4-1l0-0.1c0.4-1.9,0.1-3.8-0.1-5.7s0.1-4,1.4-5.4
	c2.4-2.6,6.7-1.2,10.3-1.9c4.3-0.9,7.1-4.9,6.7-9.3c0-0.4-0.1-0.8-0.2-1.2c-0.8-3.6,1.5-7.2,5.1-7.9c0.6-0.1,1.2-0.2,1.8-0.1
	c3.5,0.2,7.4,1.3,10.3-1.4c2.2-2.1,2.9-5.3,1.8-8.2c-1.7-4.8-6.4-7.4-11.1-8.8c-11.7-3.4-24.4-1.3-34.4,5.6c-3,2.1-5.7,4.7-7,8.1
	s-0.7,7.7,2.2,9.9c-4.5,4.8-6.1,11.5-4.2,17.8C124.7,138.2,131.4,142.6,134.8,144.5z"/>
<polygon class="st3" points="664.1,463.2 651.9,463.2 646,415.9 664.1,415.9 "/>
<path class="st2" d="M643.1,461.7h23.6l0,0v14.9l0,0h-38.5l0,0l0,0C628.2,468.3,634.9,461.7,643.1,461.7L643.1,461.7z"/>
<polygon class="st3" points="751.1,463.2 738.9,463.2 733,415.9 751.1,415.9 "/>
<path class="st2" d="M730.1,461.7h23.6l0,0v14.9l0,0h-38.5l0,0l0,0C715.2,468.3,721.9,461.7,730.1,461.7L730.1,461.7z"/>
<path class="st2" d="M664.3,433.9c-0.1,0-0.3,0-0.4,0l-17.4-1.4c-2.8-0.2-4.8-2.6-4.6-5.4c0-0.1,0-0.3,0-0.4L668.4,264l1.8-23
	c0.2-2.2,1.8-4,3.9-4.5l26.5-5.8c2-0.4,4.1,0.4,5.2,2.1l6.5,9.4c2.5,3.7,5.3,7.2,8.2,10.5c4.6,5.2,12.4,16.8,13.1,35.7
	c0.2,6.2,0.8,12.4,1.9,18.6l21.3,114.8c0.4,2.7-1.4,5.3-4.1,5.7c-0.1,0-0.2,0-0.3,0l-16.4,1.2c-2.4,0.2-4.7-1.3-5.3-3.7l-29.2-108.5
	c-0.1-0.5-0.7-0.8-1.2-0.7c-0.3,0.1-0.6,0.4-0.7,0.7l-30.2,113.6C668.6,432.4,666.6,433.9,664.3,433.9z"/>
<circle class="st3" cx="710.5" cy="132.4" r="24.6"/>
<path class="st1" d="M668.9,244.7l-0.5-35.1c-1.9-22.4,8.1-34.2,16.7-40.1c4.5-3,10.1-4.1,15.4-2.9l19.3,4.2
	c5.4,1.2,10.2,4.5,13.1,9.3c2.8,4.5,3.6,9.9,2.2,15c-1.3,4.7-4.3,8.8-8.4,11.5c-16.6,11.7-17.8,31.4-17.8,31.6l0,0.4L668.9,244.7z"
	/>
<path class="st3" d="M615.2,224.2c-3.9,4.7-10.9,5.3-15.5,1.4c-0.3-0.3-0.7-0.6-1-0.9c-9.7-10.2,6.1-25.4,15.9-15.2l0,0
	c0.3,0.4,0.7,0.7,1,1.1l49-1.2l5.9-10.7l18,7c-3.5,5.4-7.4,26.4-16.4,25.3C670.8,231,616.4,224.3,615.2,224.2z"/>
<path class="st1" d="M680.8,216.1l-13.7-10.1c-2-1.5-2.4-4.3-1-6.3l17.5-23.8c4.2-5.8,12.4-7,18.2-2.8c5.8,4.2,7,12.4,2.8,18.2
	c0,0,0,0,0,0l-17.5,23.8C685.6,217.1,682.8,217.6,680.8,216.1z"/>
<path class="st2" d="M704.5,126.3c-3.5,1.1-7.1,1.7-10.7,1.8c-3.6,0-7.4-1.2-9.9-3.9c-3.5-3.8-3.4-10-0.7-14.4s7.5-7.1,12.6-8.4
	s10.2-1.2,15.4-1.1c6.1-4.5,15.1-3.8,21.4,0.5s10.1,11.4,11.8,18.8s1.3,15.1,0.7,22.7c-0.3,4.1,0,9.5,4,10.8c2.5,0.8,5.2-0.7,7-2.6
	s3-4.3,4.9-6.1c4-3.9,10.4-4.7,15.7-2.8s9.5,6,12.4,10.8c11,17.6,5.6,40.7-11.9,51.7c-9.2,5.7-20.3,7.2-30.7,4.1
	c-13.5-4.1-23.7-15.5-30.3-28c-8.4-16.1-11.9-34.3-10-52.4L704.5,126.3z"/>
<path class="st5" d="M870,477H1c-0.6,0-1-0.4-1-1s0.4-1,1-1h869c0.6,0,1,0.4,1,1S870.6,477,870,477z"/>
</svg>
