<?xml version="1.0" encoding="utf-8"?>
<!-- Generator: Adobe Illustrator 25.0.0, SVG Export Plug-In . SVG Version: 6.00 Build 0)  -->
<svg version="1.1" id="ffe6bee8-e793-4e33-a4ab-3e285c6a5a44"
	 xmlns="http://www.w3.org/2000/svg" xmlns:xlink="http://www.w3.org/1999/xlink" x="0px" y="0px" width="448.8px" height="437.5px"
	 viewBox="0 0 448.8 437.5" style="enable-background:new 0 0 448.8 437.5;" xml:space="preserve">
<style type="text/css">
	.st0{fill:#FFFFFF;enable-background:new    ;}
	.st1{opacity:0.1;fill:#37BDAF;enable-background:new    ;}
	.st2{fill:url(#SVGID_1_);}
	.st3{fill:#67647E;}
	.st4{opacity:0.1;enable-background:new    ;}
	.st5{fill:#444053;}
	.st6{fill:#EFB7B9;}
	.st7{fill:#A36468;}
	.st8{fill:#E3787D;}
	.st9{opacity:0.1;}
</style>
<path class="st0" d="M138.6,75.9c15.2-13.6,39.1-16.3,60.9-15.3c68.3,3.4,130,36.4,183.4,73.7c19.3,13.5,38.3,28.1,50.9,46.7
	c25.5,37.9,18,90.3-17.5,121.5c-12.1,10.6-26.7,18.8-41.7,26c-26.7,12.8-55.6,23.1-85.9,26.1c-21.6,2.1-43.5,0.4-65-2.5
	c-60.1-8.2-119-26.2-168.4-57C33.4,281.6,13,264.8,4,242.9S0.8,193.3,23,180.4c9.2-5.4,20.1-7.8,30.8-10c15.8-3.3,31.8-6.6,46-13.4
	c14.7-7,32.1-20.6,29.2-36.1C125.9,104.1,123.4,89.5,138.6,75.9z"/>
<ellipse class="st1" cx="206.7" cy="814.1" rx="118.9" ry="19.9"/>
<linearGradient id="SVGID_1_" gradientUnits="userSpaceOnUse" x1="331.6752" y1="-21.9981" x2="331.6752" y2="664.043" gradientTransform="matrix(1 0 0 -1 -100.52 802.4548)">
	<stop  offset="0" style="stop-color:#808080;stop-opacity:0.25"/>
	<stop  offset="0.54" style="stop-color:#808080;stop-opacity:0.12"/>
	<stop  offset="1" style="stop-color:#808080;stop-opacity:0.1"/>
</linearGradient>
<path class="st2" d="M335.2,259.6c-2.3-1.2-27-19.9-27-19.9l-39.9-25.3c0,0-0.2-0.6-0.6-1.6c11-12.4,8.6-30.5-2.6-43.1
	c-13.5-15.4-74.5-48.5-92.9-20.2c-2.6,4-2.7,8.5-3.3,12.9c-1.6,10.3-6.6,20.2-14.6,28.6c-6.1,6.5-14.1,12.4-17.7,19.8
	c0-0.1-0.1-0.2-0.1-0.3c-0.8,1.6-1.5,3.3-1.8,5c-1.8,8.9,4.2,17.5,7.4,26.2c1.1,2.9,1.8,6,2.3,9.1c0.1-0.6,0.1-1.2,0.2-1.9
	c0.8,4.4,1,8.9,0.8,13.4c-22.2,4.5-22.2,42.4-22.2,42.4s-2.7,15.1-2.3,20.5s0.5,17.2,0.5,20s-2.7,20.5-3,22.6c0,0,0,0.1,0,0.1
	c-0.4,2.3-4.5,13.5,5.5,16c0.7,0.2,1.4,0.3,2.2,0.5c0.4,9,1.2,28,0.5,32.2c0,0,3.7,25.5,6.7,31.9c1.9,3.8,4.2,7.4,6.7,10.8
	c-0.2,1.6-0.7,3-1.5,4.4c-1.5,2.2-0.8,4.1,1.8,4.9c-0.1,0.8-0.2,1.6-0.3,2.6c-1.1,9.8-2.8,29.3,0,39.2c3.9,13.6,4.1,18.1,4.1,18.1
	s0,4.1,1.6,6.3s4.5,23.3,4.5,26.7s7.7,33.9,5.5,41.1s-0.5,17.4-0.5,17.4s-1.4,17.8-3,21.7s-2.3,65.8,0.2,81.8s4.1,29.4,4.1,29.4
	s-1.6,14.7-0.2,16.7s3.9,14.2,2,14.9s-2.7,5.7-2.7,5.7c1,1.5,2,2.9,3.1,4.2c-0.7-0.2-1.4-0.5-2-0.9c0.7,1,1.8,2.4,3.1,4l-1.2,16.2
	c-0.1,1.3,0.7,2.5,2,2.8c8.1,2.2,16.8-0.2,22.6-6.4c11.4-11.5,15.2-9.9,17.3-16.9c0.2-0.8,0.4-1.5,0.6-2.2
	c1.5-6.2-5.2-10.9-10.5-8.2c0.7-4.9,1.3-10.5,0.8-13.7c-1.1-6.5-0.9-23.7-0.9-23.7l-1.6-82.2c0,0,3-16.3,6.4-22.6s3-28.5,3-28.5
	l3.9-72.8l3.6-35.5c0,0,3.6-12.2,8.2,1.4c0,0-2.5,27.3-1.4,33.9s2.7,38.4,1.6,45.4s-6.1,45.4-3,55.1s6.6,21.5,5.9,25.3
	s-3,87.2-3,87.2s6.1,16,1.6,21.2s-0.2,26-0.2,26s0.5,0.4,1.5,0.9l-0.1,1.7l-1.4,18.7c-0.1,1.3,0.7,2.5,2,2.9
	c8.1,2.2,16.8-0.2,22.6-6.4c11.4-11.5,15.2-9.9,17.3-17c0.2-0.8,0.4-1.5,0.6-2.2c1.6-6.8-6.5-11.8-11.9-7.3l-0.3,0.2
	c-0.3,0.2-0.6,0.5-0.9,0.7c-0.1,0.1-0.3,0.2-0.5,0.3c1.1-5.2,2.8-14,2-18.1c-1.1-6.1,1.1-24.6,1.1-24.6s6.6-22.2,6.8-31l1.8-70.5
	c0,0-0.2-28.7,0.7-35.7s8.2-67.6,15.5-85.6c5.6-13.8,8.1-49.2,6.6-67.1c-0.1-0.9-0.2-1.7-0.3-2.5c8.9-6.6,9.8-17.5,9.8-17.5
	s-8.2-15.7-16.1-22.3s-9.6-18-9.3-22.9c0.1-3-0.8-5.9-2.7-8.1c0,0-3.6-11.8-6.1-13c-0.2-0.1-0.4-0.2-0.5-0.4
	c-1.7-1.8-0.4-6.8-0.4-6.8v-0.2c0.3-1.2,2-8.8,1.5-10.7c-0.6-2.1,0.3-12,0.3-12s5.8-17.2,4.9-30.7s11.8-12.4,11.8-12.4l39.4-0.4h4.5
	c1.6-1.3,3-2.8,4.3-4.5c7.5-0.9,22.7-3.7,24.4-12C346.9,272,337.5,260.8,335.2,259.6z M152.8,385l0.3-6.9c0.9,0.8,1.5,1.3,1.5,1.3
	c0.5,1.8,0.5,3.7,0.1,5.5c-0.5,1.7-1.8,3.1-3.4,3.8c-0.2,0.1-0.4,0.2-0.5,0.3l-0.4-3.9L152.8,385z M295.6,264
	c-1.7-0.8-7.3-0.6-10.2-0.6s-7.6-2.4-7.6-2.4c-1-2-6.5-3.1-11.5-3.8c-3.7-9.2-9-18.2-9.7-27.8c0-0.4,0-0.7,0-1l0.6,1
	c0,0,22.9,14.6,25.5,19c2,3.3,11.6,10.8,16.1,14.1c-0.6,0.8-1.5,1.4-2.5,1.6C296.1,264.1,295.8,264.1,295.6,264z"/>
<path class="st3" d="M257.8,798.2c-0.2,0.7-0.3,1.4-0.6,2.2c-2,7-5.8,5.4-17,16.8c-5.7,6.1-14.2,8.5-22.3,6.3
	c-1.3-0.3-2.1-1.5-2-2.8l1.4-18.5l0.7-8.9c0,0,17.8,5,26.9-1.3c0.3-0.2,0.6-0.4,0.9-0.7c0.1-0.1,0.1-0.1,0.2-0.2
	c3.1-2.6,7.7-2.1,10.3,1C257.7,793.7,258.3,796,257.8,798.2z"/>
<path class="st3" d="M201.8,791.2c-0.2,0.7-0.4,1.4-0.6,2.2c-2,7-5.8,5.4-17,16.8c-5.7,6.1-14.2,8.5-22.3,6.3
	c-1.3-0.3-2.1-1.5-2-2.8l1.4-18.5l0.7-8.9c0,0,17.8,5,26.9-1.3c0.3-0.2,0.6-0.4,0.9-0.7c0.1-0.1,0.1-0.1,0.2-0.2
	c3.1-2.6,7.7-2.1,10.3,1C201.7,786.7,202.3,789,201.8,791.2z"/>
<path class="st4" d="M183.3,794l0.7,9.6c-10.2,10.2-22.4-5-26-10C167.4,798.5,183.3,794,183.3,794z"/>
<path class="st4" d="M243.5,797.9l1.3-0.9c-9.4,14.2-23.2,7.7-27.6,5.1l0.7-8.9c0,0,17.8,5,26.9-1.3
	C244.2,795.3,243.5,797.9,243.5,797.9z"/>
<path class="st5" d="M272,528.7c-7.2,17.9-14.3,78-15.2,85s-0.7,35.4-0.7,35.4l-1.8,69.9c-0.2,8.8-6.7,30.7-6.7,30.7
	s-2.2,18.4-1.1,24.4s-2.9,22-2.9,22l1.3-0.9c-11.2,17-28.9,4.3-28.9,4.3s-4.3-20.6,0.2-25.8s-1.6-21.1-1.6-21.1s2.2-82.7,2.9-86.5
	s-2.7-15.5-5.8-25.1s1.8-47.8,2.9-54.7s-0.5-38.6-1.6-45.1s1.3-33.6,1.3-33.6c-4.5-13.5-8.1-1.3-8.1-1.3l-3.6,35.2l-3.8,72.2
	c0,0,0.5,22-2.9,28.2s-6.3,22.4-6.3,22.4l1.6,81.6c0,0-0.2,17,0.9,23.5s-2.5,23.3-2.5,23.3c-12.6,29.6-32.7-2.5-32.7-2.5
	s0.9-4.9,2.7-5.6s-0.7-12.8-2-14.8s0.2-16.6,0.2-16.6s-1.6-13.2-4-29.1s-1.8-77.3-0.2-81.2s2.9-21.5,2.9-21.5s-1.8-10.1,0.5-17.3
	s-5.4-37.4-5.4-40.8s-2.9-24.2-4.5-26.5s-1.6-6.3-1.6-6.3s-0.2-4.5-4-17.9c-2.8-9.8-1.1-29.2,0-38.9c0.4-3.6,0.7-5.9,0.7-5.9
	s128.6-20.8,133.7-16.1c1.2,1.1,2,4.9,2.5,10.4C280,479.9,277.5,515,272,528.7z"/>
<path class="st4" d="M223.3,629.5c0.6,0,14.8,1.2,20,0.2C248.5,628.6,223.3,629.5,223.3,629.5z"/>
<path class="st4" d="M224.4,637.9c0,0,19.6,3.4,20.6,1.7S224.4,637.9,224.4,637.9z"/>
<path class="st4" d="M164.5,634.3c0,0,10.2,0.5,15.7,3S164.5,634.3,164.5,634.3z"/>
<path class="st6" d="M127.5,382.9c0,0,1.6,31.2,0.8,36.8c0,0,3.6,25.3,6.6,31.7s9.4,14.5,9.4,14.5l8.8-62l-2.1-21.2L127.5,382.9z"/>
<circle class="st6" cx="220.2" cy="206.1" r="34.5"/>
<path class="st6" d="M202.3,222.2c0,0-10.8,21.1-21.5,30.9c-10.8,9.9,64.6,21.1,66.3,21.1s-13.4-44.8-10.8-50.2
	S202.3,222.2,202.3,222.2z"/>
<path class="st4" d="M278.5,462.1c-1.7,1.3-3.6,2.3-5.5,3.1c-13.7,5.4-28.7,12.9-38.9,9.9s-31.7,0-31.7,0s-43.4-3.6-52-1.5
	c-3.9,1-7,0.9-9,0.2c0.4-3.6,0.7-5.9,0.7-5.9s128.7-20.9,133.8-16.1C277.2,452.9,278,456.7,278.5,462.1z"/>
<path class="st7" d="M287.9,442.2c0,0-1.2,15-15,20.3s-28.7,12.9-38.9,9.9s-31.7,0-31.7,0s-43.4-3.6-52-1.5s-13.2-0.6-10.5-4.5
	s2.4-16.7,2.4-22.1s-3-27.2-0.3-31.1s5.1-18.8,10.5-21.2c1.6-0.7,2.9-2.1,3.4-3.8c0.4-1.8,0.4-3.7-0.1-5.5c0,0-0.9-0.8-2.2-1.9
	c-3.2-2.8-8.5-8.1-6.8-9.8c2.4-2.4,0-17.9,0-17.9s-5.7-12-3.6-16.4S125,308.6,125,308.6s0-40.6,24.5-42.4c0,0,17.3,0.6,19.4-7.2
	c2.1-7.8,15.8-12.3,15.8-12.3l31.4,6.9c0,0,27.8,6,32.9,2.4c5.1-3.6,9,4.8,9,4.8s17.3,0.9,19.1,4.5s-5.7,38.5-5.7,38.5
	s-12.6-1.2-11.7,12.3s-4.8,30.5-4.8,30.5s-0.9,9.9-0.3,12c0.6,1.9-1.2,9.5-1.5,10.6v0.1c0,0-1.2,5,0.4,6.8c0.2,0.2,0.3,0.3,0.5,0.4
	c2.4,1.2,6,12.9,6,12.9c1.9,2.3,2.8,5.1,2.7,8.1c-0.3,4.8,1.5,16.1,9.3,22.7S287.9,442.2,287.9,442.2z"/>
<path class="st7" d="M154.6,373v1.3l-0.5,14c0,0-18.4,1.5-28.4-1s-5.8-13.6-5.4-15.9c0,0,0-0.1,0-0.1c0.3-2.1,3-19.6,3-22.4
	s0-14.5-0.5-19.9s2.2-20.4,2.2-20.4l1.9-2.4l21.1,8.1L154.6,373z"/>
<path class="st4" d="M154.5,374.3l-0.5,14c0,0-18.4,1.5-28.4-1s-5.8-13.6-5.4-15.9L154.5,374.3z"/>
<path class="st4" d="M155.9,388.2c0.4-1.8,0.4-3.7-0.1-5.5c0,0-0.9-0.8-2.2-1.9c15.8-2.2,78.5-10.8,99.6-11.8v0.1c0,0-1.2,5,0.4,6.8
	L155.9,388.2z"/>
<path class="st4" d="M255.6,399c0,0,3.9,22-10.6,29.7C245,428.8,253.2,417.9,255.6,399z"/>
<path class="st4" d="M160.7,429.4c0,0,35-6,41.9-1.3S160.7,429.4,160.7,429.4z"/>
<path class="st4" d="M243.5,293.2c0,0-5.4,22.1-1.4,27.2C246.2,325.5,243.5,293.2,243.5,293.2z"/>
<path class="st4" d="M142.2,275.1c0,0,4.9,8.2,1.9,16.7S142.2,275.1,142.2,275.1z"/>
<path class="st4" d="M132,347.2c0,0,6.3,3.7,4.2,9.6S132,347.2,132,347.2z"/>
<path class="st4" d="M131.4,330.1c0,0,5.8,3.1,6.6,7.8S131.4,330.1,131.4,330.1z"/>
<path class="st4" d="M217.8,508.9c0,0,36.6,3.7,43.9-4.9C261.8,504,228.7,510.5,217.8,508.9z"/>
<path class="st4" d="M154.6,506.8c0,0,39.3,9.3,47.1,1.9C201.7,508.7,167.9,511.3,154.6,506.8z"/>
<path class="st4" d="M220.7,521c0,0,16.4,0,24.1,0.5C252.3,521.9,220.7,521,220.7,521z"/>
<path class="st4" d="M157.3,528c0,0,8.1,9.1,17.2,7.5S157.3,528,157.3,528z"/>
<path class="st8" d="M173.1,154.6c-2.5,3.9-2.6,8.5-3.3,12.8c-1.5,10.2-6.5,20.1-14.3,28.4c-7.2,7.6-17,14.5-18.9,23.8
	c-1.8,8.8,4.2,17.4,7.3,26c8.2,22.7-3.3,46.5-6.6,69.9c-0.9,6.5,0.2,14.7,8.2,16.9c2.5,0.7,5.3,0.6,7.6,1.7c3,1.4,3.9,4.4,4.5,7.1
	c2,9.6,2.7,19.5,2.1,29.3c-0.4,5.5-0.8,11.8,4.4,15.6c2.4,1.7,5.5,2.6,8.6,3.4c8.2,2.2,18.8,4,24.3-1.2c2.3-2.2,3.2-5.2,6.1-7
	c4.3-2.6,10.5-0.8,15.9-0.6c11.2,0.6,21.5-6,25.9-13.9c4.4-7.9,4-17,2.4-25.5s-4.5-17-4.7-25.7c-0.1-3,0.2-6,1.9-8.7
	c3.3-5.1,11.1-7.5,16.4-11.5c9.9-7.6,9.9-20,6.3-30.5c-3.6-10.4-10.1-20.4-10.9-31.2c-0.4-2.6,0.2-5.3,1.5-7.5
	c1.4-2.2,3.9-3.8,6-5.6c14.5-12.2,12.8-32.3,0.8-46.1C251.3,159.4,191.2,126.6,173.1,154.6z"/>
<g class="st9">
	<path d="M145.8,255.1c1.1-9.1,0.9-18.1-2.3-27c-1.6-4.3-3.9-8.6-5.5-13c-0.8,1.6-1.4,3.3-1.8,5c-1.8,8.8,4.2,17.4,7.3,26
		C144.6,249.1,145.4,252.1,145.8,255.1z"/>
	<path d="M159.2,353c0.6-9.8-0.1-19.7-2-29.3c-0.6-2.7-1.5-5.7-4.5-7.1c-2.2-1.1-5.1-1-7.6-1.7c-3.1-0.7-5.7-2.9-7-5.8
		c-0.5,2.3-0.9,4.5-1.2,6.8c-0.9,6.5,0.2,14.7,8.2,16.9c2.5,0.7,5.3,0.6,7.6,1.7c3,1.4,3.9,4.4,4.5,7.1c0.9,4.5,1.6,9,1.9,13.5
		C159.1,354.5,159.1,353.8,159.2,353z"/>
	<path d="M244.4,349.5c-4.4,7.9-14.7,14.5-25.9,13.9c-5.5-0.3-11.6-2-15.9,0.6c-2.9,1.7-3.8,4.8-6.1,7c-5.5,5.1-16.1,3.4-24.3,1.2
		c-3.1-0.8-6.2-1.7-8.6-3.4c-2.3-1.7-3.8-4.1-4.2-6.9c0.1,3.1,0,6.1-0.2,9.2c-0.4,5.5-0.8,11.8,4.4,15.6c2.4,1.7,5.5,2.6,8.6,3.4
		c8.2,2.2,18.8,4,24.3-1.2c2.3-2.2,3.2-5.2,6.1-7c4.3-2.6,10.5-0.8,15.9-0.6c11.2,0.6,21.5-6,25.9-13.9c4.2-7.6,4-16.3,2.6-24.5
		C246.4,345.2,245.6,347.4,244.4,349.5z"/>
	<path d="M263.4,203.3c-2.1,1.8-4.6,3.4-6,5.6c-1.3,2.3-1.8,4.9-1.5,7.5c0.3,3.3,1,6.5,2.1,9.6c1.7-1.8,3.5-3.4,5.5-4.8
		c9.8-8.3,12.2-20.1,9-31.2C270.7,195.2,267.6,199.8,263.4,203.3z"/>
	<path d="M260.5,278c-5.3,4-13,6.4-16.4,11.5c-1.7,2.7-2,5.7-1.9,8.7c0.1,3.5,0.6,7,1.3,10.4c0.2-0.4,0.4-0.8,0.6-1.2
		c3.3-5.1,11.1-7.5,16.4-11.5c9.1-6.9,9.8-17.9,7.2-27.7C266.2,272.2,263.8,275.6,260.5,278z"/>
</g>
<path class="st6" d="M314.8,299.3c0,0,25.9-1.3,28.1-12.2s-7-22-9.3-23.2S307,244.2,307,244.2l-39.3-25.1c0,0-18.8-54-23-33.3
	s12.1,48.1,12.1,48.1s22.6,14.5,25.1,18.8c2.5,4.3,18.1,15.7,18.1,15.7L314.8,299.3z"/>
<path class="st7" d="M328.7,281.7c-6.1,15.5-14,21.7-14,21.7h-4.4l-38.8,0.4l-4.5-12.2l6.3-26.5l3.9,0.2c0,0,4.6,2.4,7.5,2.4
	s8.4-0.1,10,0.6c0.2,0.1,0.5,0.1,0.7,0.1c1.5-0.1,3-2.4,3-2.4S334.8,266.2,328.7,281.7z"/>
<path class="st4" d="M328.7,281.7c-6.1,15.5-14,21.7-14,21.7h-4.4c2.3-6.2,7.2-18.8,9-21.7c1.8-2.8-14.4-9.6-23.9-13.3
	c1.5-0.1,3-2.4,3-2.4S334.8,266.2,328.7,281.7z"/>
</svg>
