<?xml version="1.0" encoding="utf-8"?>
<!-- Generator: Adobe Illustrator 23.0.1, SVG Export Plug-In . SVG Version: 6.00 Build 0)  -->
<svg version="1.1" id="Calque_1" xmlns="http://www.w3.org/2000/svg" xmlns:xlink="http://www.w3.org/1999/xlink" x="0px" y="0px"
	 viewBox="0 0 622.76 173.62" style="enable-background:new 0 0 622.76 173.62;" xml:space="preserve">
<style type="text/css">
	.st0{fill:#37BDAF;}
	.st1{fill:#FFFFFF;}
	.st2{fill:#4B3659;}
	.st3{fill:#3EB6AC;}
	.st4{fill:#52395A;}
</style>
<g>
	<g>
		<path class="st0" d="M0,86.81c0,21.32,4.57,48.74,13.71,67.01c16.75,12.18,53.3,19.8,83.77,19.8c27.41,0,68.54-7.61,83.77-19.8
			c9.14-18.28,13.71-45.69,13.71-67.01s-4.57-50.26-13.71-68.54C164.48,7.62,124.89,0,97.47,0C67.01,0,31.98,7.62,13.71,18.28
			C4.57,36.55,0,63.97,0,86.81"/>
		<path class="st1" d="M76.92,105.35c7.05,0,16.85,11.42,20.07,19.38l6.13,15.01c2.3,5.82,4.44,8.89,10.11,8.89
			c3.98,0,8.27-2.3,10.57-4.9c-3.37-2.3-5.36-6.74-7.35-11.95l-5.21-12.71c-3.22-7.81-7.66-12.1-14.09-13.79
			c1.84-1.53,3.52-3.52,5.06-5.97l16.7-26.5l-0.92-1.23c-2.91-0.15-5.21-0.15-8.43-0.15c-5.36,0-7.81,2.45-10.26,6.74L85.8,99.31
			C83.63,102.59,78.26,104.9,76.92,105.35"/>
		<path class="st1" d="M48.83,148.06c-0.78-41.03,20.95-96.21,64.01-122.29l6.82,11.26C102.27,47.56,87.45,64.44,76.8,85.86
			c-9.93,19.98-15.19,41.98-14.81,61.95L48.83,148.06z"/>
		<path class="st2" d="M134.82,50.9c0,2.15,0.46,4.9,1.38,6.74c1.68,1.23,5.36,1.99,8.42,1.99c2.76,0,6.89-0.77,8.43-1.99
			c0.92-1.84,1.38-4.6,1.38-6.74s-0.46-5.05-1.38-6.89c-1.68-1.07-5.67-1.84-8.43-1.84c-3.06,0-6.59,0.77-8.42,1.84
			C135.28,45.84,134.82,48.6,134.82,50.9"/>
	</g>
	<g>
		<g>
			<path class="st3" d="M266.54,124.87c1.9,4.98,3.8,9.22,7.03,11.43c-2.19,2.48-6.3,4.69-10.11,4.69c-5.41,0-7.46-2.94-9.65-8.49
				l-5.85-14.34c-3.08-7.6-5.7-9.67-12.44-9.67c-2.19,0-4.4,0.14-6.74,0.29v31.19c-2.05,0.43-4.69,0.58-7.46,0.58
				c-2.62,0-5.13-0.14-7.32-0.58V33.21l0.89-0.89h5.85c6.3,0,8.06,2.94,8.06,9.67v54.17l4.98-0.29c1.61,0,2.65-0.58,3.51-2.05
				l12.87-20.21c2.33-4.09,4.69-6.45,9.82-6.45c3.08,0,5.27,0,8.06,0.14l0.87,1.18l-15.95,25.34c-1.47,2.33-3.08,4.24-4.84,5.7
				c6.16,1.61,10.4,5.7,13.48,13.19L266.54,124.87z"/>
		</g>
		<g>
			<path class="st4" d="M303.74,139.94c-2.05,0.43-4.84,0.58-7.46,0.58c-2.79,0-5.56-0.14-7.6-0.58V86.37c0-5.27-1.61-7.6-6.45-7.6
				h-1.61c-0.43-1.9-0.72-3.51-0.72-5.41c0-1.76,0.29-3.51,0.72-5.56c3.66-0.43,7.17-0.58,9.22-0.58h2.05
				c7.32,0,11.86,4.98,11.86,13.02V139.94z M285.43,40.98c1.76-1.03,5.13-1.76,8.06-1.76c2.62,0,6.45,0.72,8.06,1.76
				c0.89,1.76,1.32,4.55,1.32,6.59s-0.43,4.69-1.32,6.45c-1.47,1.18-5.41,1.9-8.06,1.9c-2.94,0-6.45-0.72-8.06-1.9
				c-0.89-1.76-1.32-4.4-1.32-6.45C284.1,45.36,284.56,42.74,285.43,40.98z"/>
			<path class="st4" d="M383.97,124.44c0,5.13,0.58,9.82,2.48,13.33c-2.19,1.76-5.85,3.22-9.51,3.22c-5.99,0-8.06-3.37-8.06-9.67
				v-37.2c0-9.82-2.05-14.05-9.07-14.05c-5.85,0-13.33,3.37-18.46,9.07v50.8c-2.05,0.43-4.84,0.58-7.46,0.58
				c-2.79,0-5.41-0.14-7.6-0.58V67.91l0.89-0.89h5.7c5.7,0,8.06,3.37,8.35,9.07c6.3-5.7,14.49-9.82,23.27-9.82
				c13.76,0,19.47,10.54,19.47,24.02L383.97,124.44L383.97,124.44z"/>
			<path class="st4" d="M416.77,108.63c0.58,12.15,4.55,20.94,16.99,20.94c7.32,0,14.2-2.33,20.36-5.56
				c2.48,2.33,4.24,6.59,4.84,9.65c-7.03,4.98-17.28,8.21-27.53,8.21c-23.13,0-30.15-18.14-30.15-37.93
				c0-21.8,10.25-38.21,30.59-38.21c18.89,0,29,13.91,29,31.33c0,4.69-0.29,7.46-1.03,11.58
				C459.82,108.63,416.77,108.63,416.77,108.63z M416.77,97.63h29.58v-1.9c0-10.25-4.09-18.75-14.63-18.75
				C422.33,77.01,417.49,84.76,416.77,97.63z M442.23,31.77c4.4,1.47,9.07,5.7,10.68,9.96L427.89,61.2
				c-2.79-0.72-5.56-3.37-6.74-6.16L442.23,31.77z"/>
			<path class="st4" d="M480.88,66.61c6.88,1.47,11.26,6.14,13.33,13.02c3.37-7.46,9.36-13.02,19.18-13.02
				c2.62,0,4.98,0.29,7.75,0.87c0,4.09-1.03,10.11-3.66,14.34c-1.9-0.58-3.95-0.58-5.99-0.72c-7.92,0-12.59,5.13-15.67,11.12v47.72
				c-2.05,0.43-4.84,0.58-7.46,0.58c-2.79,0-5.56-0.14-7.6-0.58v-50.2c0-7.75-2.94-12.73-5.41-15.09
				C476.07,71.88,478.4,68.2,480.88,66.61z"/>
			<path class="st4" d="M552.78,139.94c-2.05,0.43-4.84,0.58-7.46,0.58c-2.79,0-5.56-0.14-7.6-0.58V86.37c0-5.27-1.61-7.6-6.45-7.6
				h-1.61c-0.43-1.9-0.72-3.51-0.72-5.41c0-1.76,0.29-3.51,0.72-5.56c3.66-0.43,7.17-0.58,9.22-0.58h2.05
				c7.32,0,11.86,4.98,11.86,13.02L552.78,139.94L552.78,139.94z M534.47,40.98c1.76-1.03,5.13-1.76,8.06-1.76
				c2.62,0,6.45,0.72,8.06,1.76c0.89,1.76,1.32,4.55,1.32,6.59s-0.43,4.69-1.32,6.45c-1.47,1.18-5.41,1.9-8.06,1.9
				c-2.94,0-6.45-0.72-8.06-1.9c-0.89-1.76-1.32-4.4-1.32-6.45C533.15,45.36,533.6,42.74,534.47,40.98z"/>
			<path class="st4" d="M573.41,123.98c6.16,3.37,13.76,6.45,20.5,6.45c8.06,0,13.02-3.66,13.19-9.07c0-4.09-3.22-7.75-9.22-9.96
				l-8.21-3.08c-10.25-3.8-18.6-9.82-18.6-20.94c0-13.48,11.12-21.66,25.77-21.66c7.92,0,17.86,2.48,24.02,5.27
				c0,3.8-1.76,8.78-4.55,11.12c-4.98-2.33-12.3-4.84-19.47-4.84c-6.45,0-10.54,3.51-10.54,8.49c0,4.24,2.94,6.59,9.07,8.93
				l8.78,3.37c10.83,4.09,18.6,10.68,18.6,21.97c0,13.62-11.58,21.8-27.96,21.8c-10.68,0-20.05-3.51-26.35-7.32
				C568.59,131.15,570.78,126.34,573.41,123.98z"/>
		</g>
	</g>
</g>
</svg>
