<?xml version="1.0" encoding="utf-8"?>
<!-- Generator: Adobe Illustrator 27.9.0, SVG Export Plug-In . SVG Version: 6.00 Build 0)  -->
<svg version="1.1" id="Calque_1" xmlns="http://www.w3.org/2000/svg" xmlns:xlink="http://www.w3.org/1999/xlink" x="0px" y="0px"
	 viewBox="0 0 195 173.6" style="enable-background:new 0 0 195 173.6;" xml:space="preserve">
<style type="text/css">
	.st0{fill:#37BDAF;}
	.st1{fill:#4B3659;}
</style>
<g>
	<g>
		<path class="st0" d="M0,86.8c0,21.3,4.6,48.7,13.7,67C30.5,166,67,173.6,97.5,173.6c27.4,0,68.5-7.6,83.8-19.8
			c9.1-18.3,13.7-45.7,13.7-67s-4.6-50.3-13.7-68.5C164.5,7.6,124.9,0,97.5,0C67,0,32,7.6,13.7,18.3C4.6,36.5,0,64,0,86.8"/>
		<path class="st1" d="M134.8,50.9c0,2.2,0.5,4.9,1.4,6.7c1.7,1.2,5.4,2,8.4,2c2.8,0,6.9-0.8,8.4-2c0.9-1.8,1.4-4.6,1.4-6.7
			s-0.5-5-1.4-6.9c-1.7-1.1-5.7-1.8-8.4-1.8c-3.1,0-6.6,0.8-8.4,1.8C135.3,45.8,134.8,48.6,134.8,50.9"/>
	</g>
</g>
</svg>
